<svg xmlns="http://www.w3.org/2000/svg" data-name="Layer 1" viewBox="0 0 800 800" id="testing-applications-side-by-side"><path fill="#7da1d4" d="M327.09 505.46c-10.72 1.36-21.25 2.91-31.61 4.94S275 515 265.05 518a270.09 270.09 0 0 0-28.9 10.59l-3.47 1.57-1.73.78-1.71.83-3.41 1.64-3.36 1.74c-2.25 1.12-4.42 2.38-6.61 3.58-1.1.6-2.15 1.28-3.23 1.9s-2.16 1.23-3.2 1.92c-2.1 1.34-4.21 2.64-6.23 4.06-1 .7-2.06 1.36-3.06 2.08l-3 2.18c-1 .71-2 1.47-2.93 2.23l-2.9 2.25-2.8 2.36-1.4 1.17-1.35 1.22-2.71 2.43-2.59 2.47-1.3 1.26c-.43.41-.83.87-1.26 1.3l-2.5 2.6c-3.23 3.56-6.37 7.17-9.21 11-.71 1-1.46 1.89-2.13 2.87s-1.35 2-2 2.93c-1.38 1.94-2.63 3.95-3.83 6s-2.34 4-3.41 6.07-2 4.1-2.92 6.17a78.71 78.71 0 0 0-4.26 12.49 67 67 0 0 0-1.84 12.63 70.28 70.28 0 0 0 .54 12.94 78.24 78.24 0 0 0 2.79 12.94 93.42 93.42 0 0 0 11.61 24.47 102.69 102.69 0 0 0 8.39 10.94 100.22 100.22 0 0 0 9.85 9.7 92.71 92.71 0 0 0 11.13 8.2 111.93 111.93 0 0 0 12.47 6.68 118.46 118.46 0 0 0 27.63 8.58 175.09 175.09 0 0 0 30.13 2.76c10.31.12 20.8-.39 31.37-1.25s21.22-2 32-3A317.14 317.14 0 0 1 293.46 735a229.27 229.27 0 0 1-31.81 8.21 158.48 158.48 0 0 1-33.65 2.56 133.81 133.81 0 0 1-17.32-1.77 119.94 119.94 0 0 1-17.13-4.22 124.41 124.41 0 0 1-16.55-6.69 112.73 112.73 0 0 1-15.51-9.4A117.11 117.11 0 0 1 147.71 712a118.63 118.63 0 0 1-11.89-13.72 115.46 115.46 0 0 1-16.94-32.44 107 107 0 0 1-4.29-18.19 100.44 100.44 0 0 1-.88-18.94 95.68 95.68 0 0 1 2.9-18.92c.8-3.07 1.76-6.07 2.82-9s2.24-5.82 3.55-8.6a124.72 124.72 0 0 1 8.86-15.84c1.65-2.5 3.33-4.94 5.13-7.28l2.69-3.51c.9-1.17 1.88-2.27 2.82-3.4l1.42-1.69.71-.84.75-.81 3-3.25c1-1.09 2-2.09 3.09-3.13s2.06-2.08 3.14-3.07c2.17-2 4.28-4 6.55-5.81 1.13-.93 2.24-1.87 3.37-2.78l3.49-2.68 1.73-1.32 1.78-1.24 3.56-2.49 3.64-2.35 1.81-1.16c.61-.39 1.24-.74 1.86-1.1l3.72-2.18c1.24-.72 2.51-1.37 3.77-2.06 2.5-1.39 5.09-2.59 7.65-3.85a193.3 193.3 0 0 1 31.76-11.67 217.78 217.78 0 0 1 32.72-6.12 214 214 0 0 1 65.09 2.9Z"></path><path fill="#d8e5ed" d="M533 178.5a244.84 244.84 0 0 0-18.84-27.31A203.73 203.73 0 0 0 492 127.63a179.93 179.93 0 0 0-25.14-19.13 158.56 158.56 0 0 0-27.59-13.84 144.2 144.2 0 0 0-59.18-9.19c-19.86 1.12-39.24 6.53-55.89 16.26a113.49 113.49 0 0 0-40.34 40.82c-9.8 16.83-15.3 36.22-14.66 55.7a94 94 0 0 0 5.67 28.84 107.24 107.24 0 0 0 36.56 49.09 100.31 100.31 0 0 0 29 14.88A82.79 82.79 0 0 1 307 284a102.6 102.6 0 0 1-29.45-19.48 111.14 111.14 0 0 1-21.94-28.67A106.61 106.61 0 0 1 244 200.63a114.83 114.83 0 0 1 .88-37.36 123.7 123.7 0 0 1 4.8-18.1 130.9 130.9 0 0 1 7.4-17.17 134.34 134.34 0 0 1 35.36-43.3A132.52 132.52 0 0 1 308 74a137.14 137.14 0 0 1 16.9-8.3 142.11 142.11 0 0 1 17.72-5.9 148.77 148.77 0 0 1 36.62-4.74 153.07 153.07 0 0 1 70.39 16.64 155.65 155.65 0 0 1 29.74 19.87A164.13 164.13 0 0 1 503.6 117a166.41 166.41 0 0 1 18.08 29.44A150.75 150.75 0 0 1 533 178.5Z"></path><circle cx="290.97" cy="79.81" r="11.81" fill="#7da1d4" transform="rotate(-80.78 290.984 79.802)"></circle><path fill="#eaeef8" stroke="#292839" stroke-linecap="round" stroke-linejoin="round" stroke-width="1.76" d="M302.78 79.81A9.81 9.81 0 1 1 293 70a9.81 9.81 0 0 1 9.78 9.81Z"></path><circle cx="334.7" cy="59.98" r="11.81" fill="#7da1d4" transform="rotate(-76.72 334.683 59.987)"></circle><path fill="#eaeef8" stroke="#292839" stroke-linecap="round" stroke-linejoin="round" stroke-width="1.76" d="M346.51 60a9.81 9.81 0 1 1-9.81-9.8 9.81 9.81 0 0 1 9.81 9.8Z"></path><path fill="#7da1d4" d="M393.53 52.71a9.28 9.28 0 1 1-9.27-9.27 9.28 9.28 0 0 1 9.27 9.27Z"></path><path fill="#eaeef8" stroke="#292839" stroke-linecap="round" stroke-linejoin="round" stroke-width="1.76" d="M393.53 52.71a7.7 7.7 0 1 1-7.7-7.7 7.7 7.7 0 0 1 7.7 7.7Z"></path><circle cx="426.23" cy="61.99" r="7.12" fill="#7da1d4"></circle><path fill="#eaeef8" stroke="#292839" stroke-linecap="round" stroke-linejoin="round" stroke-width="1.76" d="M433.35 62a5.92 5.92 0 1 1-5.92-5.92 5.92 5.92 0 0 1 5.92 5.92Z"></path><path fill="#292839" d="M269.59 145.44a1.17 1.17 0 0 1-.51-.11 1.3 1.3 0 0 1-.68-1.71c13-30 43-54.92 78.44-65.06 17.5-5 33-6.94 48.84-6 14.63.83 30.09 4.17 48.66 10.49a1.3 1.3 0 0 1-.84 2.47c-37.09-12.64-63.09-13.84-95.94-4.42-34.68 9.93-64.09 34.3-76.77 63.6a1.3 1.3 0 0 1-1.2.74Z"></path><path fill="#a5d1f0" d="M307.56 201.67a137.22 137.22 0 0 1 37.29 7.87c12.57 4.58 24.51 10.9 37.41 14.45s27.4 4 39-2.66c11.36-6.57 18-18.77 26.48-28.78 21.92-25.85 58.6-37.32 91.94-31.21s62.7 28.64 79.75 57.94 22.23 64.75 17.2 98.28c-3.05 20.28-9.6 41.46-2.53 60.72 5.37 14.66 17.73 25.42 27.15 37.87 17 22.5 9.46 49.86 4.53 75.57-5.46 28.53-17.12 56.27-36.67 78-25 27.89-60.94 44.14-97.6 51.89-28.11 5.94-57.25 5-85.6 1.39-14.4-1.84-63.85-20.34-72.46-5.52-2.82 4.84-3.08 10.69-3.82 16.25-5.42 40.87-42.53 74.35-83.54 78.58s-82.71-19.13-103.35-54.83-20.74-81.54-3.28-118.88c6.43-13.73 15.13-26.62 18.7-41.36 5.86-24.19-4.31-44-19.37-61.86-12.48-14.83-20.35-34.71-24.79-53.62-9.92-42.32-1.42-89.35 25.25-124.06 29.68-38.62 79.97-59.49 128.31-56.03Z"></path><path fill="#eaeef8" d="M623 319.27c3.62-42.54-11.28-91.34-44.69-114a73.19 73.19 0 0 0-28.54-11.6c-11.66-2.56-24.1-.4-35.46 3.93-18.39 6.76-35.83 14.87-53.61 22.24-8.89 3.69-17.87 7.19-27.09 10.24-15 5.38-30.71 7.54-46.4 8.09-52.46 1.62-114.12-6.49-154.14 37.31-26 28.67-36.24 66.53-27.59 104.93 8.66 37.32 26 71.39 24.87 109.15a128.52 128.52 0 0 1-2.69 21.2c-8.11 38.4-22.18 80 2.58 113.56 5.78 8.75 12.23 14.72 19 18.46 33.86 18.7 75.4-18.26 106-41.7 16.77-12.44 36.78-13.52 57.33-9.73 48.14 8.11 101.14 33.53 144 .86a194.48 194.48 0 0 0 20.79-21.12 217.1 217.1 0 0 0 50.78-133.75 260.65 260.65 0 0 0-1.44-33.91c-2.06-19.77-2.06-39.79-3-60.06-.09-7.77-.31-15.83-.7-24.1Z"></path><path fill="#fff" d="M612 323.83c-1.38-39.71-1.92-88.93-40.32-111.65a71.2 71.2 0 0 0-33-9.67 45.09 45.09 0 0 0-17.31 2.1c-24.54 8.52-48.85 16.89-73.34 24.16-8.16 2.42-16.35 4.72-24.69 6.79-43.13 10.7-87.48 2-131.83 6.91C228.23 249.5 185 315 196.32 378.23 202.81 415.55 219.58 448 220 484.6a117.92 117.92 0 0 1-2 21.27c-8.11 45.43-23.25 103.84 22.66 132.47a43.87 43.87 0 0 0 29 5.71 54.89 54.89 0 0 0 27.32-12.16c30.29-26.5 60.57-59.49 103.3-56.25 51.38 3.79 110.34 43.27 156.46 4.18a174.73 174.73 0 0 0 21.38-23.43c25.74-33.8 40.53-77 40.53-124a159.19 159.19 0 0 0-1.92-22.65c-2.27-18.49-4.43-36.34-4.33-54.7-.19-10.34-.26-20.95-.4-31.21Z"></path><path fill="#292839" d="M596.47 296.67a1.3 1.3 0 0 1-1.3-1.3 49.08 49.08 0 0 0-.27-5.21 1.29 1.29 0 0 1 1.15-1.43 1.3 1.3 0 0 1 1.44 1.15 51.86 51.86 0 0 1 .28 5.49 1.3 1.3 0 0 1-1.3 1.3Zm-2.93-16.3a1.3 1.3 0 0 1-1.21-.82 33.83 33.83 0 0 0-5.56-9.3 1.3 1.3 0 0 1 2-1.68 36.3 36.3 0 0 1 6 10 1.3 1.3 0 0 1-.72 1.69 1.36 1.36 0 0 1-.51.11Zm-14.32-17a1.31 1.31 0 0 1-.68-.2 39 39 0 0 0-10-4.31 1.3 1.3 0 1 1 .69-2.51A41.37 41.37 0 0 1 579.9 261a1.3 1.3 0 0 1-.68 2.41Zm-32.74-5a1.3 1.3 0 0 1-.26-2.57 50.33 50.33 0 0 1 11.53-1.06 1.3 1.3 0 0 1 1.27 1.33 1.32 1.32 0 0 1-1.33 1.27 48 48 0 0 0-10.94 1Zm-15.43 6.08a1.3 1.3 0 0 1-.68-2.41 50 50 0 0 1 4.84-2.61 1.3 1.3 0 1 1 1.1 2.36 45.75 45.75 0 0 0-4.58 2.46 1.2 1.2 0 0 1-.68.2Zm57.2 33.28a1.29 1.29 0 0 1-1.29-1.21c-.81-11.42-5.51-20.39-13.26-25.25-8.16-5.11-18.82-5.27-30.83-.46a1.3 1.3 0 0 1-1-2.41c12.82-5.13 24.29-4.9 33.18.67 8.47 5.31 13.61 15 14.47 27.27a1.3 1.3 0 0 1-1.2 1.39Z"></path><path fill="#d8e5ed" d="M339.23 548.82A89.36 89.36 0 1 1 213.05 542a89.46 89.46 0 0 1 126.18 6.82Zm-103.38 92.71a49.51 49.51 0 1 0 3.8-69.91 49.55 49.55 0 0 0-3.8 69.91Z"></path><rect width="247.66" height="436.09" x="269.43" y="205.89" fill="#292839" stroke="#292839" stroke-linecap="round" stroke-linejoin="round" stroke-width="1.76" rx="12.42" transform="rotate(180 393.255 423.94)"></rect><rect width="247.66" height="436.09" x="275.56" y="205.89" fill="#7da1d4" stroke="#292839" stroke-linecap="round" stroke-linejoin="round" stroke-width="1.76" rx="12.42" transform="rotate(180 399.39 423.94)"></rect><rect width="383.42" height="222.29" x="207.68" y="297.6" fill="#fff" rx="9.76" transform="rotate(90 399.385 408.745)"></rect><rect width="213.64" height="374.77" x="292.57" y="221.36" fill="#eaeef8" rx="6.87" transform="rotate(180 399.39 408.745)"></rect><path fill="#7da1d4" d="M308.92 235.85v14.51h-1.76v-12.67h-.08l-3.55 2.31v-1.78l3.63-2.41Zm9.27 0v14.51h-1.76v-12.67h-.08L312.8 240v-1.78l3.63-2.41Zm8.48 5.31a1.27 1.27 0 1 1 1.28-1.27 1.3 1.3 0 0 1-.17.64 1.38 1.38 0 0 1-.47.46 1.16 1.16 0 0 1-.64.17Zm0 7.35a1.27 1.27 0 1 1 1.28-1.28 1.28 1.28 0 0 1-.17.64 1.3 1.3 0 0 1-.47.46 1.17 1.17 0 0 1-.64.18Zm13.07 2.05a4.33 4.33 0 0 1-2.73-.87 5.47 5.47 0 0 1-1.72-2.55 14.06 14.06 0 0 1 0-8.06 5.53 5.53 0 0 1 1.73-2.55 4.64 4.64 0 0 1 5.44 0 5.53 5.53 0 0 1 1.73 2.55 13.83 13.83 0 0 1 0 8.06 5.4 5.4 0 0 1-1.72 2.55 4.33 4.33 0 0 1-2.73.87Zm0-1.56a2.73 2.73 0 0 0 2.47-1.53 8.91 8.91 0 0 0 .88-4.36 11.55 11.55 0 0 0-.4-3.22 4.52 4.52 0 0 0-1.15-2 2.57 2.57 0 0 0-1.8-.69 2.73 2.73 0 0 0-2.46 1.55 8.91 8.91 0 0 0-.88 4.38 11.43 11.43 0 0 0 .39 3.2 4.43 4.43 0 0 0 1.15 2 2.6 2.6 0 0 0 1.8.67Zm12.85-13.15v14.51h-1.76v-12.67h-.09L347.2 240v-1.78l3.63-2.41Zm69.44 7.51h5.68v11.63h-5.68zm9.05-3.57h5.68v15.2h-5.68zm9.06-4.04h5.68v19.24h-5.68zm9.06-4.53h5.68v23.77h-5.68z"></path><rect width="34.45" height="9.45" x="462.62" y="238.38" fill="#7da1d4" rx="3.16"></rect><path fill="#a5d1f0" d="M479.84 238.38h14.06a3.16 3.16 0 0 1 3.16 3.16v3.13a3.16 3.16 0 0 1-3.16 3.16h-14.06v-9.45Z"></path><circle cx="399.39" cy="620.67" r="14.54" fill="#2d4a9f" stroke="#292839" stroke-linecap="round" stroke-linejoin="round" stroke-width="1.76" transform="rotate(-9.22 399.271 620.49)"></circle><circle cx="399.39" cy="620.67" r="11.36" fill="#eaeef8" transform="rotate(-13.28 399.458 620.79)"></circle><path fill="#292839" d="M575 732.36a112.89 112.89 0 0 1-35.77-5.82c-24.15-8-45.66-25-60.58-47.75s-21.9-49.24-19.65-74.59a1.3 1.3 0 1 1 2.59.23c-4.54 50.94 29.91 103.49 78.43 119.64a111.22 111.22 0 0 0 35.17 5.73 113 113 0 0 0 52.26-12.95c27.21-14.17 46.9-37.75 55.45-66.43a110.2 110.2 0 0 0-18.68-98.11 1.3 1.3 0 0 1 2-1.61 112.86 112.86 0 0 1 19.18 100.47 110.64 110.64 0 0 1-21.81 40.17 116.93 116.93 0 0 1-78.16 40.54c-3.49.32-6.98.48-10.43.48Z"></path><path fill="#292839" d="M589.46 710.12a57.65 57.65 0 0 1-33.14-10.53 1.3 1.3 0 0 1-.33-1.81 1.31 1.31 0 0 1 1.82-.33 55.29 55.29 0 0 0 47.52 7.82c16.54-4.71 30.72-16.63 37-31.12a1.3 1.3 0 0 1 2.39 1C638 690.6 623.58 702.78 606 707.77a60.63 60.63 0 0 1-16.54 2.35Z"></path><path fill="#a5d1f0" stroke="#292839" stroke-linecap="round" stroke-linejoin="round" stroke-width="1.76" d="M606.94 664.16a10.3 10.3 0 1 1-13.59-5.23 10.3 10.3 0 0 1 13.59 5.23Z"></path><path fill="#292839" d="M706 549.91a70.41 70.41 0 0 1-25-4.51 1.3 1.3 0 0 1-.75-1.68 1.29 1.29 0 0 1 1.67-.75c32.66 12.41 74-3.23 90.21-34.16 4.76-9.05 6.78-17.7 6-25.71a30.21 30.21 0 0 0-3.29-11.1c-.57.7-1.17 1.38-1.79 2-5.07 5.37-11 8.39-16.68 8.51-6.31.13-13.61-4.16-14.42-11.31-.48-4.18 1.39-7.94 5.26-10.59 5.37-3.67 13.29-4.21 18.84-1.29a25.74 25.74 0 0 1 9 8 42.45 42.45 0 0 0 6.62-25.14A53.86 53.86 0 0 0 764.81 405c-16.82-15.39-43.57-21.3-71.53-15.79s-47.91 20.13-63.07 46.07a1.3 1.3 0 0 1-2.25-1.31c15.56-26.64 36.16-41.67 64.82-47.31s56.36.47 73.79 16.42c10.55 9.65 17.16 24.23 17.7 39 .37 10.4-2.33 20-7.69 27.62a32.45 32.45 0 0 1 4.11 13.08c.81 8.52-1.31 17.66-6.3 27.17-8.2 15.61-22.51 27.91-40.3 34.64a79.43 79.43 0 0 1-28.09 5.32Zm52-89.83a16.6 16.6 0 0 0-9.26 2.74c-1.76 1.2-4.63 3.86-4.15 8.14.62 5.44 6.44 9 11.57 9h.22c5-.1 10.25-2.83 14.84-7.68.8-.85 1.55-1.73 2.26-2.65a23.61 23.61 0 0 0-8.58-7.95 14.94 14.94 0 0 0-6.96-1.6Z"></path><path fill="#7da1d4" d="M621 350.86c-.16 1.06-.28 2.12-.38 3.17-4.42.65-8.87 1.52-13.31 2.61a74.51 74.51 0 0 0 5.23 30.75c4.51-.41 9-1.07 13.41-1.92a61.87 61.87 0 0 0 3 5.65q-4.81 4.71-9.21 9.95A74.84 74.84 0 0 0 642 422.85a135.33 135.33 0 0 0 9.73-9.42 60.86 60.86 0 0 0 5.72 2.84 135.5 135.5 0 0 0-1.6 13.46 74.84 74.84 0 0 0 30.81 4.53 134.71 134.71 0 0 0 2.34-13.35 62.74 62.74 0 0 0 6.3-1.07 132.25 132.25 0 0 0 6.61 11.83 74.9 74.9 0 0 0 27.59-14.46q-2.7-6.27-6-12.17a61.94 61.94 0 0 0 4.46-4.56 133.18 133.18 0 0 0 12.29 5.7 74.43 74.43 0 0 0 13.86-27.94 136.48 136.48 0 0 0-12-6.33c.21-1 .39-2.09.55-3.15s.28-2.11.38-3.16c4.42-.65 8.87-1.52 13.31-2.62a74.63 74.63 0 0 0-5.23-30.74 132.76 132.76 0 0 0-13.41 1.92 59.72 59.72 0 0 0-3-5.66 134 134 0 0 0 9.22-9.94 74.87 74.87 0 0 0-22.27-21.79 131.3 131.3 0 0 0-9.73 9.42c-1.85-1-3.76-2-5.72-2.83.75-4.42 1.29-8.92 1.6-13.46a74.67 74.67 0 0 0-30.81-4.53q-1.51 6.66-2.35 13.35a63 63 0 0 0-6.29 1.06 134.62 134.62 0 0 0-6.53-11.78 74.84 74.84 0 0 0-27.6 14.45q2.7 6.29 6 12.18a61.94 61.94 0 0 0-4.46 4.56 134.41 134.41 0 0 0-12.29-5.7 74.36 74.36 0 0 0-13.86 27.94c3.93 2.32 7.94 4.44 12 6.33-.26 1-.44 2.04-.62 3.1Zm67.76-27.51a39 39 0 1 1-44.23 32.89 39 39 0 0 1 44.25-32.89Z"></path><path fill="#a5d1f0" d="m194.86 562.65-11.49 11.9-.29 16.53-16.54.3-11.9 11.48-11.89-11.48-16.54-.3-.29-16.53-11.49-11.9 11.49-11.9.29-16.53 16.54-.3 11.89-11.48 11.9 11.48 16.54.3.29 16.53 11.49 11.9z"></path><path fill="none" stroke="#292839" stroke-linecap="round" stroke-linejoin="round" stroke-width="1.76" d="m194.86 562.65-11.49 11.9-.29 16.53-16.54.3-11.9 11.48-11.89-11.48-16.54-.3-.29-16.53-11.49-11.9 11.49-11.9.29-16.53 16.54-.3 11.89-11.48 11.9 11.48 16.54.3.29 16.53 11.49 11.9z"></path><path fill="#d8e5ed" d="m256.88 237.56-1-.26v-2.65l1-.25c1.08-.3 2.17-.62 3.25-1s2.14-.69 3.2-1.07a50.57 50.57 0 0 0-1-7.25 57.41 57.41 0 0 0-2-7.06c-2.59.22-5.13.53-7.65.93-.34-.84-.69-1.67-1.07-2.48l.7-.56c1.73-1.43 3.41-2.93 5.07-4.49a52.65 52.65 0 0 0-8.6-11.81c-2 1.08-3.93 2.22-5.83 3.44-.2.12-.39.25-.58.38-.67-.66-1.36-1.3-2.07-1.91 1.11-2.21 2.16-4.45 3.11-6.74-.94-.77-2-1.46-3-2.17s-2-1.34-3.12-1.93a50.07 50.07 0 0 0-6.58-3.22q-2.07 2.7-3.93 5.5l-.24.38c-.91-.34-1.85-.64-2.79-.92v-.43c.1-2.23.12-4.52.06-6.77a56.8 56.8 0 0 0-7.22-1.27c-.6-.06-1.21-.1-1.82-.15l-.92-.06h-4.57q-.78 3.28-1.35 6.63c0 .12 0 .24-.05.37-1 .07-2 .17-3 .31q-1.29-3.33-2.82-6.56a51.6 51.6 0 0 0-13.81 4.51c.45 2.41 1 4.77 1.61 7.11-.85.46-1.67 1-2.48 1.48a112.54 112.54 0 0 0-5.39-5 57.09 57.09 0 0 0-5.77 4.52 53.79 53.79 0 0 0-5.08 5.27c1.27 1.85 2.64 3.68 4 5.44.16.2.33.4.49.61-.55.73-1.09 1.47-1.59 2.24l-.78-.3q-3.14-1.17-6.4-2.15a49.34 49.34 0 0 0-3.44 6.46c-.53 1.11-.94 2.26-1.39 3.4s-.81 2.31-1.12 3.5q3.31 2 6.77 3.76-.32 1.29-.54 2.61h-1c-2.24.15-4.51.36-6.74.66a51.5 51.5 0 0 0 0 14.6c2.23.3 4.5.51 6.74.65h1q.22 1.32.54 2.61-3.45 1.74-6.77 3.76c.31 1.18.73 2.33 1.12 3.49s.86 2.3 1.39 3.4a50.11 50.11 0 0 0 3.44 6.47q3.27-1 6.4-2.15l.78-.3c.5.76 1 1.51 1.59 2.24-.16.2-.33.4-.49.61a84.426 84.426 0 0 0-4 5.44 53.79 53.79 0 0 0 5.08 5.27 57 57 0 0 0 5.77 4.51q2.81-2.41 5.39-5c.81.52 1.63 1 2.48 1.49-.62 2.34-1.16 4.7-1.61 7.11a52.31 52.31 0 0 0 13.91 4.51c1-2.15 2-4.35 2.82-6.56 1 .13 2 .24 3 .31 0 .12 0 .24.05.37.38 2.22.83 4.44 1.35 6.63h4.57l.92-.07 1.82-.14a55.11 55.11 0 0 0 7.22-1.28c.06-2.24 0-4.53-.06-6.77v-.42c.94-.28 1.88-.58 2.79-.92l.24.38c1.24 1.87 2.55 3.69 3.93 5.5a50.07 50.07 0 0 0 6.58-3.22c1.08-.59 2.09-1.28 3.12-1.94s2-1.39 3-2.16c-1-2.29-2-4.54-3.11-6.74.71-.62 1.4-1.25 2.07-1.91l.58.38c1.9 1.21 3.85 2.36 5.83 3.44a52.7 52.7 0 0 0 8.6-11.82c-1.66-1.56-3.34-3.05-5.07-4.48l-.7-.56c.38-.82.73-1.64 1.07-2.48 2.52.4 5.06.71 7.65.92a56.76 56.76 0 0 0 2-7 50.9 50.9 0 0 0 1-7.26c-1.06-.37-2.13-.73-3.2-1.06s-2.23-.6-3.35-.9Z"></path><path fill="#a5d1f0" d="m241.66 235.64-12.84 7.32 3.9 14.26-14.27-3.89-7.32 12.84-7.33-12.84-14.26 3.89 3.9-14.26-12.84-7.32 12.84-7.33-3.9-14.26 14.26 3.89 7.33-12.83 7.32 12.83 14.27-3.89-3.9 14.26 12.84 7.33z"></path><path fill="none" stroke="#292839" stroke-linecap="round" stroke-linejoin="round" stroke-width="1.76" d="m241.66 235.64-12.84 7.32 3.9 14.26-14.27-3.89-7.32 12.84-7.33-12.84-14.26 3.89 3.9-14.26-12.84-7.32 12.84-7.33-3.9-14.26 14.26 3.89 7.33-12.83 7.32 12.83 14.27-3.89-3.9 14.26 12.84 7.33z"></path><ellipse cx="211.13" cy="235.64" fill="#fff" rx="15.3" ry="15.16"></ellipse><path fill="#7da1d4" d="M98.37 321.7c-.88 1.83-1.84 3.49-2.76 5.14s-1.79 3.34-2.7 4.92-1.72 3.24-2.59 4.78-1.65 3.17-2.48 4.7c-3.23 6.21-6.14 12.28-8.81 18.27s-5 11.95-7.18 17.9-4 11.91-5.58 17.91a243.26 243.26 0 0 0-6.66 37.42C59 439.27 58.46 446 58.18 453c0 1.74-.1 3.51-.19 5.31s-.06 3.59-.13 5.44-.06 3.7-.11 5.61 0 3.81-.17 5.84c-1.54-1.27-2.93-2.65-4.35-4.05s-2.61-2.92-3.85-4.45-2.33-3.15-3.44-4.77-2.07-3.33-3.06-5a86.26 86.26 0 0 1-8.47-22.07 98.13 98.13 0 0 1 .83-47.72 99.75 99.75 0 0 1 9-22.41 95.57 95.57 0 0 1 14-19.39 86.49 86.49 0 0 1 18.3-14.95c1.71-1 3.42-1.95 5.15-2.86s3.56-1.67 5.35-2.44 3.7-1.34 5.54-1.95 3.83-1.14 5.79-1.44Z"></path><path fill="#fff" stroke="#292839" stroke-linecap="round" stroke-linejoin="round" stroke-width="1.76" d="M64.32 512.19a6.82 6.82 0 1 1-6.79-6.19 6.53 6.53 0 0 1 6.79 6.19Z"></path><ellipse cx="47.06" cy="436.47" fill="#7da1d4" stroke="#292839" stroke-linecap="round" stroke-linejoin="round" stroke-width="1.76" rx="9.93" ry="9.11"></ellipse><ellipse cx="57.53" cy="382.09" fill="#fff" stroke="#292839" stroke-linecap="round" stroke-linejoin="round" stroke-width="1.76" rx="13.05" ry="11.98"></ellipse><path fill="#fff" stroke="#292839" stroke-linecap="round" stroke-linejoin="round" stroke-width="1.76" d="M472.41 498.59c-.1-.57-.22-1.17-.38-1.8-.07-.27-.13-.55-.2-.83-.28-1.15-.56-2.34-.95-3.54l-.68-2.16-2.26-.19c-2.2-.2-4.27-.32-6.32-.37h-2a62.5 62.5 0 0 0-5.8-11.23c.37-.52.73-1.06 1.11-1.61 1.32-2 2.42-3.74 3.4-5.41l1.17-2-1.9-2.45c-.79-1-1.6-2-2.5-2.93l-.42-.48c-.35-.38-.7-.77-1.08-1.17l-1.53-1.54c-.58-.61-1.19-1.16-1.71-1.63l-1.64-1.51-1.72-1.4-.89-.74-.64-.49-2.11-1.61-2 1.2c-1.82 1.09-3.61 2.25-5.33 3.43-.52.36-1.06.73-1.62 1.14a64.42 64.42 0 0 0-11.28-5.68c0-.64 0-1.29-.05-2-.08-2.26-.22-4.4-.42-6.37l-.24-2.32-4.35-1.17c-.53-.15-1.05-.26-1.57-.37l-.66-.14h-.07l-.67-.14c-.5-.11-1-.23-1.6-.32l-2.09-.35c-.81-.14-1.57-.23-2.32-.31l-2.25-.26-2.43-.16c-.7 0-1.43-.09-2.2-.09H400l-.87 2.07c-.82 2-1.59 3.95-2.29 5.91-.22.61-.43 1.23-.64 1.88a62.5 62.5 0 0 0-6.28.71c-2.06.34-4.13.78-6.17 1.33-.41-.55-.81-1.07-1.21-1.57-1.29-1.65-2.65-3.28-4-4.87l-1.54-1.66-2.13.71c-.74.25-1.41.53-2.06.79l-2.25.93-2 .95c-.7.33-1.4.66-2.12 1.05l-1.89 1c-.49.26-.95.53-1.4.8l-.58.35h-.07l-.58.35c-.45.26-.91.54-1.4.87l-3.72 2.47.52 2.28c.44 1.92 1 4 1.63 6.17l.58 1.88a63.81 63.81 0 0 0-8.87 9c-.66-.21-1.28-.39-1.89-.57-2-.57-4.09-1.09-6.15-1.55l-2.26-.5-1.48 2.2-.45.67-.6 1-1.18 1.91-1.08 2c-.34.6-.73 1.32-1.09 2.08l-.94 1.93c-.25.52-.46 1-.66 1.48l-.27.62c-.53 1.17-1 2.38-1.42 3.54l-1.07 2.85 1.77 1.54c1.45 1.28 3.07 2.6 4.94 4 .53.41 1.06.8 1.57 1.18a63.62 63.62 0 0 0-1.91 12.49l-1.85.66c-1.94.71-3.86 1.49-5.89 2.37l-2.07.91v2.26c0 1.26.13 2.48.23 3.66 0 .28 0 .57.08.85 0 .65.13 1.25.21 1.83l.38 2.74.51 2.72c.11.57.22 1.16.39 1.79.06.28.13.56.2.83.27 1.15.56 2.34.94 3.55l.69 2.15 2.25.2c2.21.19 4.28.31 6.33.37h2a63.82 63.82 0 0 0 5.8 11.23c-.36.52-.73 1.06-1.1 1.62-1.32 2-2.43 3.74-3.4 5.41l-1.18 2 1.93 2.36c.78 1 1.59 2 2.49 2.92l.44.49c.33.38.68.77 1.07 1.16l1.52 1.54c.59.61 1.19 1.17 1.71 1.64l1.65 1.5 1.71 1.43.89.74.65.5 2.1 1.6 2-1.19c1.81-1.1 3.6-2.25 5.33-3.43l1.62-1.15a63.64 63.64 0 0 0 11.27 5.68c0 .64 0 1.3.05 2 .09 2.27.23 4.41.43 6.37l.23 2.33 4.35 1.16c.53.15 1.06.26 1.57.37l.66.14h.08l.66.14c.51.12 1 .23 1.6.32l2.1.35c.8.15 1.58.23 2.32.32l2.25.25 2.43.16c.7 0 1.43.09 2.2.09h2.24l.88-2.08c.82-2 1.59-3.94 2.29-5.91.21-.6.43-1.23.64-1.87 2.11-.14 4.21-.38 6.27-.72s4.13-.78 6.17-1.32l1.21 1.57c1.29 1.64 2.66 3.28 4.06 4.87l1.49 1.68 2.13-.71c.73-.24 1.4-.52 2.05-.79l2.26-.93 2-1c.69-.32 1.4-.65 2.12-1l1.88-1c.5-.26 1-.54 1.41-.81l.58-.35h.06l.58-.34c.45-.27.92-.54 1.4-.87l3.72-2.48-.52-2.28c-.44-1.92-1-4-1.63-6.16-.19-.65-.38-1.27-.58-1.88a63.27 63.27 0 0 0 8.87-9l1.89.56c2 .57 4.09 1.09 6.16 1.55l2.25.5 1.29-1.92.19-.27.46-.68.6-1 1.17-1.92 1.09-2c.33-.6.73-1.32 1.09-2.08l.94-1.92c.25-.53.46-1 .66-1.48l.27-.62c.53-1.17 1-2.37 1.41-3.53l1.07-2.86-1.76-1.55a85.634 85.634 0 0 0-4.94-4c-.54-.42-1.06-.81-1.57-1.19a62.86 62.86 0 0 0 1.9-12.49l1.86-.65c1.93-.72 3.85-1.49 5.89-2.38l2.07-.9v-2.27c0-1.26-.13-2.48-.24-3.66 0-.28 0-.56-.07-.85 0-.65-.13-1.24-.21-1.82l-.38-2.74Z"></path><path fill="#a5d1f0" d="M418.49 573.39a60.27 60.27 0 0 1-8.06 1.9 61 61 0 0 1-8.24.78c-.41 1.35-.85 2.7-1.32 4q-1 2.86-2.22 5.73c-.72 0-1.44-.05-2.16-.09l-2.16-.15-2.15-.24c-.72-.08-1.44-.16-2.15-.29l-2.13-.35c-.71-.12-1.41-.29-2.12-.44s-1.42-.29-2.11-.48l-2.09-.56c-.21-2-.33-4.11-.41-6.15-.05-1.42-.07-2.82-.06-4.22a60.67 60.67 0 0 1-14.76-7.43c-1.13.84-2.26 1.68-3.43 2.48-1.67 1.15-3.4 2.26-5.17 3.33l-.85-.66-.84-.69-1.65-1.38-1.6-1.46c-.53-.49-1.06-1-1.56-1.49l-1.52-1.53c-.5-.52-1-1.06-1.46-1.6-1-1-1.88-2.18-2.79-3.3 1-1.76 2.15-3.53 3.28-5.22.79-1.18 1.59-2.32 2.42-3.46a60.2 60.2 0 0 1-7.58-14.68h-4.23q-3-.09-6.13-.36c-.43-1.37-.74-2.78-1.09-4.18-.18-.7-.3-1.41-.44-2.11l-.4-2.12-.29-2.14c-.1-.71-.21-1.42-.26-2.14-.12-1.43-.28-2.87-.31-4.31 1.9-.83 3.79-1.59 5.7-2.3 1.33-.48 2.67-.93 4-1.36a60.38 60.38 0 0 1 2.49-16.33c-1.14-.81-2.27-1.64-3.4-2.51-1.61-1.24-3.23-2.55-4.77-3.89.51-1.35 1-2.71 1.59-4 .29-.65.56-1.32.87-2l.95-1.94c.31-.66.65-1.29 1-1.92l1-1.89 1.13-1.84.57-.92c.19-.3.4-.6.6-.89q3 .66 6 1.49c1.36.39 2.71.82 4 1.26a60.71 60.71 0 0 1 11.61-11.76q-.68-2-1.29-4c-.58-1.95-1.12-4-1.57-5.95l1.8-1.2c.6-.41 1.23-.75 1.84-1.13s1.24-.75 1.87-1.09l1.91-1c.64-.35 1.29-.65 1.94-1l2-.91 2-.83c.67-.27 1.34-.55 2-.78 1.37 1.55 2.68 3.13 3.94 4.72.87 1.1 1.71 2.25 2.53 3.39a60.93 60.93 0 0 1 16.3-2.67c.41-1.35.85-2.7 1.32-4 .68-1.91 1.42-3.83 2.22-5.74.73 0 1.44.05 2.16.1l2.16.14 2.16.25c.71.08 1.43.16 2.14.29l2.13.35c.72.11 1.42.29 2.12.44s1.42.28 2.11.48l2.09.56c.21 2 .34 4.1.41 6.14.05 1.42.07 2.82.07 4.22a60.7 60.7 0 0 1 14.76 7.44c1.12-.85 2.26-1.68 3.42-2.48q2.52-1.73 5.17-3.33c.29.22.58.43.86.66l.83.69 1.66 1.38 1.59 1.46c.54.48 1.06 1 1.56 1.49l1.52 1.54c.51.51 1 1.06 1.46 1.59 1 1.06 1.88 2.19 2.79 3.31-1 1.76-2.15 3.52-3.28 5.22-.79 1.18-1.59 2.32-2.42 3.45a59.58 59.58 0 0 1 7.58 14.69h4.23c2 .05 4.07.18 6.13.36.44 1.37.75 2.78 1.09 4.18.18.69.3 1.4.44 2.11l.4 2.12.3 2.13c.09.72.21 1.43.26 2.15.12 1.43.27 2.86.3 4.31-1.9.82-3.78 1.59-5.7 2.29-1.33.49-2.66.94-4 1.36a59.68 59.68 0 0 1-2.49 16.34c1.15.81 2.27 1.64 3.4 2.5 1.61 1.24 3.24 2.56 4.77 3.9-.51 1.35-1 2.71-1.59 4-.29.66-.56 1.33-.87 2l-1 1.94c-.31.65-.65 1.28-1 1.91l-1 1.9-1.13 1.84-.57.92c-.19.3-.4.59-.6.89-2-.45-4-1-6-1.5-1.36-.39-2.7-.81-4-1.25a60.38 60.38 0 0 1-11.61 11.75c.46 1.33.88 2.66 1.29 4 .58 2 1.12 4 1.58 6l-1.81 1.2c-.59.4-1.23.75-1.84 1.13s-1.23.75-1.87 1.09l-1.91 1c-.63.35-1.29.66-1.94 1l-2 .92-2 .82c-.67.28-1.33.56-2 .79a114.73 114.73 0 0 1-3.94-4.73c-.81-1.16-1.66-2.3-2.48-3.45Z"></path><path fill="#fff" d="M441.06 542.53a42.08 42.08 0 0 0 8.35-16.3 45.12 45.12 0 0 0 .84-18.59 47.4 47.4 0 0 0-6.64-17.58 48.79 48.79 0 0 0-5.78-7.5 49.12 49.12 0 0 0-15.32-11 48.92 48.92 0 0 0-9-3.09 47.51 47.51 0 0 0-18.77-.67 45.06 45.06 0 0 0-17.36 6.74 41.84 41.84 0 0 0-12.77 13.12 47.29 47.29 0 0 1 13.83-11.34 46.32 46.32 0 0 1 16.76-5.22 47.58 47.58 0 0 1 51.8 37.15 46.23 46.23 0 0 1 .41 17.55 47.24 47.24 0 0 1-6.35 16.73Z"></path><circle cx="400.53" cy="516.79" r="24.06" fill="#fff" stroke="#292839" stroke-linecap="round" stroke-linejoin="round" stroke-width="1.76" transform="rotate(-13.58 400.44 516.71)"></circle><circle cx="399.9" cy="512.97" r="16.29" fill="#7da1d4" transform="rotate(-27.79 399.847 512.915)"></circle><path fill="#7da1d4" stroke="#292839" stroke-linecap="round" stroke-linejoin="round" stroke-width="1.76" d="m661.54 197.58 8.27.37v44.17l-44.44 25.06v-56.83l36.17-12.77zM616.2 99.81c5 0 9.11 5 9.11 11a1.68 1.68 0 0 1-1.49 1.81h-15.24a1.67 1.67 0 0 1-1.48-1.81c0-6.04 4.08-11 9.1-11Z"></path><path fill="#eaeef8" stroke="#292839" stroke-linecap="round" stroke-linejoin="round" stroke-width="1.76" d="m639.19 114.11.3-4.49h-45.16s-5.18 0-5.18 6.28 5.18 11 5.18 11Z"></path><path fill="#fff" stroke="#292839" stroke-linecap="round" stroke-linejoin="round" stroke-width="1.76" d="M551.51 123.81h126.7v109.91h-126.7z" transform="rotate(90 614.855 178.765)"></path><path fill="#7da1d4" stroke="#292839" stroke-linecap="round" stroke-linejoin="round" stroke-width="1.76" d="M594.33 122.05h45.16s5.55-7.59 0-12.43h-45.16c2.52 4.84 0 12.43 0 12.43Z"></path><path fill="#a5d1f0" d="M605.57 143.22h50.68v7.92h-50.68z" transform="rotate(180 630.915 147.175)"></path><path fill="#a5d1f0" d="M605.57 158.45h50.68v7.92h-50.68z" transform="rotate(180 630.915 162.415)"></path><path fill="#a5d1f0" d="M605.57 173.69h50.68v7.92h-50.68z" transform="rotate(180 630.915 177.65)"></path><path fill="#a5d1f0" d="M605.57 188.93h50.68v7.92h-50.68z" transform="rotate(180 630.915 192.885)"></path><path fill="#a5d1f0" d="M605.57 204.16h50.68v7.92h-50.68z" transform="rotate(180 630.915 208.125)"></path><path fill="#2d4a9f" d="M589.15 176.17a7.26 7.26 0 1 1-7.25-7.25 7.25 7.25 0 0 1 7.25 7.25Z"></path><path fill="#7da1d4" d="M589.15 148a7.26 7.26 0 1 1-7.25-7.25 7.25 7.25 0 0 1 7.25 7.25Z"></path><circle cx="581.9" cy="203.43" r="7.25" fill="#7da1d4"></circle><path fill="#292839" d="M456.09 134.89H456a2.68 2.68 0 0 1-2.54-2.81C454.76 105.9 464.82 86 483.33 73c19.35-13.65 42.61-16 58.69-15.61 18.87.48 38.09 5.16 52.72 12.82 15.72 8.2 24.39 18.79 24.39 29.79a2.68 2.68 0 0 1-5.36 0c0-18.57-34.26-36.35-71.89-37.32-18.63-.47-79.71 3.13-83.12 69.65a2.68 2.68 0 0 1-2.67 2.56Z"></path><path fill="#fff" d="M623.49 100a7 7 0 1 1-7-7 7 7 0 0 1 7 7Z"></path><path fill="#292839" d="M624.43 100a8 8 0 1 0-8 8 8 8 0 0 0 8-8Zm-14.09 0a6.11 6.11 0 1 1 6.11 6.1 6.12 6.12 0 0 1-6.11-6.1Z"></path><path fill="#fff" d="M449.05 131.86a7 7 0 1 0 7.4-6.68 7 7 0 0 0-7.4 6.68Z"></path><path fill="#292839" d="M448.12 131.81a8 8 0 1 1 7.56 8.38 8 8 0 0 1-7.56-8.38c.22-4.4-.23 4.39 0 0Zm14.06.72a6.1 6.1 0 1 0-6.41 5.79 6.1 6.1 0 0 0 6.41-5.79c.18-3.36-.18 3.36 0 0Z"></path><path fill="#f69574" stroke="#292839" stroke-linecap="round" stroke-linejoin="round" stroke-width="1.76" d="m544.22 572.93.45 40.63 24.95-3.67-4.31-8.32 1.59-30.78-22.68 2.14z"></path><path fill="#a5d1f0" stroke="#292839" stroke-linecap="round" stroke-linejoin="round" stroke-width="1.76" d="m571.54 635.81-69.69-4.18s-3.75-5.47-.55-9.92c5.46-7.6 42.75-16.16 42.75-16.16l10.91-.26c2.36 0 10.62-4.31 12.87-4.4 2.66-.1 1.72 2.61 2.24 4.06s2 2.8 2.8 4.1c2.2 3.52 4.61 8.32 3.36 12.68-2.07 7.21-4.69 14.08-4.69 14.08Z"></path><path fill="#fff" stroke="#292839" stroke-linecap="round" stroke-linejoin="round" stroke-width="1.76" d="m573.48 638.38-70.62 1.46c-2.07 0-2-1.81-1.91-4.09h0c.06-2.27.05-4.1 2.1-4.14l70.14-1.49a4 4 0 0 1 3.92 4h0a3.9 3.9 0 0 1-3.63 4.26Z"></path><path fill="#a5d1f0" stroke="#292839" stroke-linecap="round" stroke-linejoin="round" stroke-width="1.76" d="m578.74 561.07-1.21 22-39.4 6.79-5.24-21.45 3.56 1.96 42.29-9.3z"></path><path fill="#292839" d="M539.59 620.14a1.3 1.3 0 0 1-1.29-1.14 17.17 17.17 0 0 0-4.66-9.68 1.3 1.3 0 1 1 1.86-1.81 19.72 19.72 0 0 1 5.38 11.16 1.31 1.31 0 0 1-1.12 1.46Zm-11.71 3.4a1.31 1.31 0 0 1-1.29-1.13 26.57 26.57 0 0 0-4.28-10.41 1.3 1.3 0 0 1 2.08-1.57 29.3 29.3 0 0 1 4.78 11.65 1.3 1.3 0 0 1-1.12 1.46Z"></path><path fill="#7da1d4" stroke="#292839" stroke-linecap="round" stroke-linejoin="round" stroke-width="1.76" d="M533.37 503.77a23.7 23.7 0 0 0-4.17 4.52c-4.52 6.34-3.61 14.71-3.85 22.3a361.32 361.32 0 0 0 3.26 60.88 88.1 88.1 0 0 0 29-2.08c2.46-.59 5-1.38 6.72-3.26 3.3-3.69 3.16-15.82 2.82-20.41-.53-7-2.13-14-.86-20.84 18.09-2.55 38.07-3.17 55.62-8 .64-7.13 1.16-19.56-2.57-26.23-3.88-6.95-12.66-7.25-19.7-8.28-6.79-1-13.73-1.37-20.57-1.93-9.92-.8-20.64-3.23-30.54-2.55a26.06 26.06 0 0 0-15.16 5.88Z"></path><path fill="#292839" stroke="#292839" stroke-linecap="round" stroke-linejoin="round" stroke-width="1.76" d="M617 579s-19.09 4.29-18.14 27.23 22.41 23.43 22.41 23.43 1.78.69 0-24.15C619.37 579.5 617 579 617 579Z"></path><path fill="#f69574" stroke="#292839" stroke-linecap="round" stroke-linejoin="round" stroke-width="1.76" d="m606.14 609.42 38.91-9.48-8.17-23.59-7.17 6.06-29.81 5.29 6.24 21.72z"></path><path fill="#a5d1f0" stroke="#292839" stroke-linecap="round" stroke-linejoin="round" stroke-width="1.76" d="m659.74 576-.2 7c-.08 2.46-.13 4.92-.22 7.38-.1 2.79.69 4.31 1.66 6.9a44.64 44.64 0 0 1 .72 29.18c-.9 2.78-2.21 5.63-4.66 7.2-2.27 1.46-5.11 1.58-7.81 1.65l-9.64.27a10.88 10.88 0 0 1-3.69-.33 3.62 3.62 0 0 1-2.49-2.53 3.86 3.86 0 0 1 1.5-3.47 30.28 30.28 0 0 1 3.3-2.17 12 12 0 0 0 .48-19.62c-1.53-1.14-3.31-1.91-4.88-3-3.69-2.53-3.34-5.92-3.55-10-.12-2.34-4.54-10.28-4.69-12.51-.17-2.64 2.52-1.89 3.93-2.5s2.69-2.16 3.94-3c3.39-2.42 8-5.15 12.35-4.2 7.13 1.62 13.95 3.75 13.95 3.75Z"></path><path fill="#fff" stroke="#292839" stroke-linecap="round" stroke-linejoin="round" stroke-width="1.76" d="M660.6 575.51a7.09 7.09 0 0 1 .83.54 11.38 11.38 0 0 1 3.77 5.54 23.26 23.26 0 0 1 .42 10.24 79.21 79.21 0 0 0-1.18 10.26c0 4 1 8 1.51 12 1 7.5-1.21 16.16-7.09 21.27a24.47 24.47 0 0 1-10.72 5.2 30.22 30.22 0 0 1-10.89.41c-1.82-.26-2.68-.19-3.07-2.07-.09-.39-.82-5 0-4.69 5.49 1.84 12.83 1.58 17.82-1.15 4.82-2.63 6.78-10.39 7.35-15.37.69-6-.09-12-.86-17.89s-1.51-11.6-2.26-17.41c-.18-1.37-1.76-7-1-8 .86-1.32 4.25.49 5.37 1.12Z"></path><path fill="#292839" d="M642.71 614.2a1.3 1.3 0 0 1-.29-2.57c1.08-.24 2.36-.63 3.61-1s2.61-.79 3.78-1a1.3 1.3 0 0 1 .58 2.54c-1.08.24-2.37.63-3.61 1s-2.62.8-3.79 1.06a1.33 1.33 0 0 1-.28-.03Zm9.23 4.71h-.05c-1.28 0-2.75-.06-4.18-.08s-2.92 0-4.24-.08a1.3 1.3 0 0 1 .08-2.6c1.3.05 2.77.06 4.19.08s2.92 0 4.24.07a1.31 1.31 0 0 1 0 2.61Z"></path><path fill="#f69574" stroke="#292839" stroke-linecap="round" stroke-linejoin="round" stroke-width="1.76" d="M478.9 358a13.09 13.09 0 0 1-10.28 7.3 2.06 2.06 0 0 1-2.08-3c3.54-6.52 7.23-13.17-2.28-16.85a20.63 20.63 0 0 0-11-.59c-1.9.34-4.09.77-5.49-.77a3.65 3.65 0 0 1-.59-3.74c.81-2.21 2.88-3.41 4.93-4.33a38.14 38.14 0 0 1 18.77-3.13c6.45.55 12 3.84 18.39 3.75 4.09-.06 7.85-1.2 12-1 2.27 0 6.9.58 7.92 3 .9 2.18-1.65 9-2.08 11.5-.19 1.1-10.89 1.08-12 1.14-1.86.1-14.84 1.27-14.86 1.67a13 13 0 0 1-1.35 5.05Z"></path><path fill="#2d4a9f" stroke="#292839" stroke-linecap="round" stroke-linejoin="round" stroke-width="1.76" d="m500.34 333.49-.34 25.68A149.37 149.37 0 0 1 576.21 382c1 .82 10-9.36 11.08-10.65 4.13-4.8 6.59-11.49 9.5-17.09a11.86 11.86 0 0 0 1.51-4.11 7.75 7.75 0 0 0-3-6.41 21.23 21.23 0 0 0-6.54-3.31c-28.86-10.27-58.41-10.5-88.42-6.94Z"></path><path fill="#7da1d4" stroke="#292839" stroke-linecap="round" stroke-linejoin="round" stroke-width="1.76" d="M555.62 532.9a202.48 202.48 0 0 0-33.9 40.3c-4.19 6.57-8.06 13.53-9.59 21.18s-.4 16.14 4.54 22.17 12.77 8.71 20.3 10.65a180.78 180.78 0 0 0 54.82 5.35c5.62-.31 23.38-.56 27.61-4.71 0 0-4.76-12.63-7-17.45a30.51 30.51 0 0 1 3.36-30.46l-3.52-.94c5.66-9.09 17.85-15.67 30.63-20.92 0 0 8.64 1.52 15.37 0a40.05 40.05 0 0 0 16.77-69.79 42.76 42.76 0 0 0-11.51-6.81c-11.08-4.42-21-3-32.23-.51-2.3.52-21.8 3.14-21.87 2.63 1.75 12.44-8.57 17.65-17.49 22.75A203.45 203.45 0 0 0 564.78 525q-4.69 3.8-9.16 7.9Z"></path><path fill="#292839" stroke="#292839" stroke-linecap="round" stroke-linejoin="round" stroke-width="1.76" d="M517.14 333.42c2-3.09 4.94-5.23 3.75-9.52-1.43-5.14-3.09-7.66-1.67-13.43A28.63 28.63 0 0 1 556.61 290c7.35 2.57 13.42 8.06 17.89 14.45s7.47 13.66 10.2 21c1.39 3.72-12.53 7.48-14.75 7.34-2.17 2.08-5.48 3.35-8 4.44a57.25 57.25 0 0 1-14.69 4.12 26.4 26.4 0 0 1-7.31.3c-2.13-.3-3.23-.32-5 1.32-1.21 1.1-2.19 2.43-3.46 3.47a9.88 9.88 0 0 1-10.26 1.22 9.56 9.56 0 0 1-5.23-12.05 11.56 11.56 0 0 1 1.14-2.19Z"></path><path fill="#f69574" stroke="#292839" stroke-linecap="round" stroke-linejoin="round" stroke-width="1.76" d="M557.21 354.05c5.33.43 11.36-2.78 12.1-8.08-.06.41 3.78 2 4.24 2.6 2.9 3.78-1.42 9.84-2.91 13.42-.18.46 9.69-.34 10.6-.61a24.12 24.12 0 0 0 8.18-4.25 103.18 103.18 0 0 0 11.17-10.76c1.34-1.47 4.36-2.45 2.9-5.06-.78-1.4-2.39-2.09-3.88-2.68-7.27-2.87-15.78-5.08-22.31-9.36-5.93-3.89-10.81-9.36-16.88-13.09-7.7-4.73-15.7-5.39-22.86.76-17.33 14.9 1.66 35.66 19.65 37.11Z"></path><path fill="#292839" d="M570.46 346.6a1.36 1.36 0 0 0 .16-.53c.55-7.35 0-12.15-1.77-15.11a1.32 1.32 0 0 0-2.26 1.35c1.45 2.43 1.91 6.87 1.41 13.56a1.31 1.31 0 0 0 2.46.73Z"></path><path fill="#292839" stroke="#292839" stroke-linecap="round" stroke-linejoin="round" stroke-width="1.76" d="M540 334.42c2.05-.17 4.9.84 6.38 1.21l5.61 1.44c6.6 2.28 13.64 3.65 20.48 5.19a20.68 20.68 0 0 0-1.37-21.53c-4.25-5.89-11.13-8.48-18.19-8.29-6.83.19-13.28.46-18.8 5.19s-10.23 15.05-5 21.58c2.35 3 5.1 3.89 7.22.32.77-1.28.94-3.74 2.15-4.62a3.09 3.09 0 0 1 1.52-.49Zm4.62 128.76-11.5-8.18c-6.29 8.19 3.78 21.17 3.78 21.17Z"></path><path fill="#f69574" stroke="#292839" stroke-linecap="round" stroke-linejoin="round" stroke-width="1.76" d="M513.3 462.87a2 2 0 0 1-.11 1.93c-.91 1.29-2.92.68-4.31-.06l-6.83-3.62c-1.15-.61-2.49-1.24-3.7-.76a3 3 0 0 0-1.53 3.5 7.4 7.4 0 0 0 2.23 3.44 30.07 30.07 0 0 0 28.61 7.9c3.33-.84 6.17-2.67 9.38-3.66 2.34-.73 11.09-4.54 6-7.75-3.81-2.42-8.32-.83-12.31-2-2.07-.6-4.07-2.66-6.1-3.6a27.41 27.41 0 0 0-7.24-2.19 7.59 7.59 0 0 0-3.64.13 3.11 3.11 0 0 0-2.18 2.68c.02 1.41 1.24 2.78 1.73 4.06Z"></path><path fill="#2d4a9f" stroke="#292839" stroke-linecap="round" stroke-linejoin="round" stroke-width="1.76" d="M680.15 442.59c.16 2 .29 4 .38 6.05.16 3.48.11 39.67-2.63 39.68h-15.17a103.17 103.17 0 0 1-37.93 5c-4.95-.28-10-1-14.34-3.4-8.91-5-12.32-15.92-15-25.8-7.62 8.54-19.75 10.18-30.37 12.12a76.88 76.88 0 0 1-28.21 0L533.12 455l23.55-4.56a575.07 575.07 0 0 1 .39-60.74c.55-9.28 1.88-19.65 9.17-25.41 8.26-6.54 21.51-4.78 28.55-12.61 3.35-3.73 4.56-8.95 7.63-12.91 7.13-9.19 21.14-1.17 28.47 3.31 23.42 14.31 35.54 39.56 42.85 65.1a181 181 0 0 1 6.42 35.41Z"></path><path fill="#292839" d="M595.48 465.43a1.24 1.24 0 0 1-.37-.06 1.3 1.3 0 0 1-.87-1.62c4.43-14.82-1-33.65-4.91-47.4-1.37-4.78-2.55-8.9-3.11-12.11a1.3 1.3 0 1 1 2.56-.45c.54 3.08 1.7 7.14 3.05 11.84 4 14.06 9.55 33.32 4.9 48.87a1.31 1.31 0 0 1-1.25.93Zm-19.72-7.88a1.27 1.27 0 0 1-1-.43c-4.36-4.85-9.72-6.45-17.95-5.36a1.3 1.3 0 1 1-.34-2.58c9.06-1.2 15.29.71 20.22 6.2a1.29 1.29 0 0 1-1 2.17Zm2.8 160.39c-11.92 0-23.11-.58-32-1.05l-2.95-.15c-7.89-.41-16.71-1.38-21.55-7.84-3.31-4.41-4-10.79-1.82-17.07 1.88-5.4 5.35-9.87 9-14.35a359.16 359.16 0 0 1 80.9-72.27 1.3 1.3 0 1 1 1.42 2.18 356.71 356.71 0 0 0-80.31 71.74c-3.54 4.29-6.87 8.56-8.6 13.56-1.86 5.37-1.31 11 1.44 14.65 4.16 5.56 12.3 6.42 19.61 6.8l2.94.15c17.53.92 44 2.31 67.22-1.28a1.28 1.28 0 0 1 1.48 1.08 1.31 1.31 0 0 1-1.09 1.49 237.74 237.74 0 0 1-35.69 2.36Z"></path><path fill="#292839" d="M548.12 590.93a1.3 1.3 0 0 1-.46-2.52c14.21-5.32 50.88-10.21 64.57-10.72a1.3 1.3 0 1 1 .1 2.6c-14.91.56-50.87 5.73-63.75 10.56a1.48 1.48 0 0 1-.46.08Zm94.79-31.56a1.3 1.3 0 0 1-.43-2.53 97.07 97.07 0 0 0 20.58-10.65 1.3 1.3 0 0 1 1.5 2.13 99 99 0 0 1-21.22 11 1.25 1.25 0 0 1-.43.05Zm-30.02-8.97a1.3 1.3 0 0 1-1.16-.71c-2.33-4.61-3.2-14.27-3.24-14.68a1.29 1.29 0 0 1 .29-.94c5.79-7 11.77-15.55 11.76-17.6a1.3 1.3 0 0 1 2.6 0c0 3.84-9.34 15.6-12 18.87.2 1.9 1 8.51 2.53 12.34 8.94-1.54 18.88-3.42 26.26-9.44A28.42 28.42 0 0 0 650 513.38a1.3 1.3 0 0 1 2.58-.31 31.07 31.07 0 0 1-11 27.16c-8.19 6.67-19.43 8.6-28.46 10.15Zm69.63-7.82a1.29 1.29 0 0 1-1.09-.59l-3.5-5.35a1.3 1.3 0 0 1-.12-1.21 46 46 0 0 0 3-23.68 1.3 1.3 0 1 1 2.58-.36 48.66 48.66 0 0 1-2.89 24.39l3.13 4.79a1.3 1.3 0 0 1-.38 1.8 1.23 1.23 0 0 1-.73.21Z"></path><path fill="#a5d1f0" stroke="#292839" stroke-linecap="round" stroke-linejoin="round" stroke-width="1.76" d="m601.76 634.64 19.47-5C605.47 614.43 617 579 617 579l-14.83-2.64c-9.23 20.28-8.08 39.64-.41 58.28Z"></path><path fill="#292839" stroke="#292839" stroke-linecap="round" stroke-linejoin="round" stroke-width="1.76" d="m603.88 488.12 3 7s24.31 6.1 41.62 2.61 30.5-5.62 30.5-5.62v-9.76s-29.26 5-45.23 5.41-29.89.36-29.89.36Z"></path><rect width="70.56" height="105.71" x="363.94" y="339.17" fill="#7da1d4" stroke="#292839" stroke-linecap="round" stroke-linejoin="round" stroke-width="1.76" rx="3.38" transform="rotate(-90 399.22 392.03)"></rect><rect width="62.9" height="99.73" x="367.77" y="342.54" fill="#d8e5ed" rx="3.38" transform="rotate(-90 399.225 392.405)"></rect><rect width="36.62" height="96.54" x="380.97" y="334.52" fill="#fff" rx="8.72" transform="rotate(-90 399.28 382.79)"></rect><path fill="#7da1d4" stroke="#292839" stroke-linecap="round" stroke-linejoin="round" stroke-width="1.76" d="M424.6 343.47h27.68v46.65a8.65 8.65 0 0 1-8.65 8.65h-10.38a8.65 8.65 0 0 1-8.65-8.65v-46.65h0Z" transform="rotate(38.1 438.41 371.081)"></path><path fill="#a5d1f0" stroke="#292839" stroke-linecap="round" stroke-linejoin="round" stroke-width="1.76" d="M465.73 358.75c-4.23 5.39-12.53 5.94-18.55 1.22s-7.46-12.91-3.23-18.3 12.53-5.95 18.55-1.23 7.5 12.91 3.23 18.31Z"></path><path fill="#fff" d="M462.6 355.37c-2.84 3.62-8.42 4-12.46.82s-5-8.67-2.17-12.29 8.42-4 12.46-.83 5.01 8.68 2.17 12.3Z"></path><path fill="#7da1d4" stroke="#292839" stroke-linecap="round" stroke-linejoin="round" stroke-width="1.76" d="M388.66 360.33h27.68v27.78a8.65 8.65 0 0 1-8.65 8.65h-10.38a8.65 8.65 0 0 1-8.65-8.65v-27.78h0Z" transform="rotate(38.1 402.484 378.51)"></path><ellipse cx="413.07" cy="365.05" fill="#a5d1f0" stroke="#292839" stroke-linecap="round" stroke-linejoin="round" stroke-width="1.76" rx="12.41" ry="13.84" transform="rotate(-51.9 413.08 365.055)"></ellipse><path fill="#fff" d="M420.84 370.22c-2.84 3.62-8.42 4-12.46.82s-5-8.67-2.17-12.29 8.42-4 12.46-.83 5.01 8.67 2.17 12.3Z"></path><path fill="#7da1d4" stroke="#292839" stroke-linecap="round" stroke-linejoin="round" stroke-width="1.76" d="M359 360.33h27.68v27.78a8.65 8.65 0 0 1-8.65 8.65h-10.35a8.65 8.65 0 0 1-8.65-8.65v-27.78H359Z" transform="rotate(38.1 371.127 376.58)"></path><path fill="#a5d1f0" stroke="#292839" stroke-linecap="round" stroke-linejoin="round" stroke-width="1.76" d="M394.34 373.59c-4.23 5.4-12.54 6-18.55 1.23s-7.46-12.91-3.23-18.31 12.53-5.94 18.54-1.22 7.47 12.91 3.24 18.3Z"></path><ellipse cx="383.9" cy="364.48" fill="#fff" rx="8.33" ry="9.29" transform="rotate(-51.9 383.914 364.484)"></ellipse><path fill="#292839" d="M398.63 358.89a2.14 2.14 0 0 1-2.14-2.14V288.5a2.15 2.15 0 0 1 4.29 0v68.25a2.14 2.14 0 0 1-2.15 2.14Z"></path><path fill="#292839" d="M449.09 290.64h-97.67a2.14 2.14 0 1 1 0-4.28h97.67a2.14 2.14 0 1 1 0 4.28Z"></path><circle cx="349.39" cy="288.5" r="15.86" fill="#a5d1f0" stroke="#292839" stroke-linecap="round" stroke-linejoin="round" stroke-width="1.76"></circle><path fill="#fff" d="M359.11 283.52a7.55 7.55 0 1 1-7.55-7.54 7.55 7.55 0 0 1 7.55 7.54Z"></path><circle cx="447.58" cy="288.5" r="15.86" fill="#a5d1f0" stroke="#292839" stroke-linecap="round" stroke-linejoin="round" stroke-width="1.76"></circle><path fill="#fff" d="M457.3 283.52a7.55 7.55 0 1 1-7.55-7.54 7.55 7.55 0 0 1 7.55 7.54Z"></path><path fill="#eaeef8" stroke="#292839" stroke-linecap="round" stroke-linejoin="round" stroke-width="1.76" d="m456.82 751.12 39.92-20.73v-63.04l-39.92-5.45v89.22z"></path><path fill="#fff" stroke="#292839" stroke-linecap="round" stroke-linejoin="round" stroke-width="1.76" d="M463.44 723.94a8.12 8.12 0 0 1-8.12-8.11V599.64H399.9a8.11 8.11 0 0 1-8.11-8.11V520.3a8.11 8.11 0 0 1 16.22 0v63.12h55.43a8.11 8.11 0 0 1 8.11 8.11v124.3a8.11 8.11 0 0 1-8.11 8.11Z"></path><path fill="#a5d1f0" d="M461.9 720.16a4.34 4.34 0 0 1-4.32-4.33v-120h-59.21a4.34 4.34 0 0 1-4.33-4.33v-71.2a4.33 4.33 0 0 1 8.66 0v66.9h59.2a4.33 4.33 0 0 1 4.33 4.33v124.3a4.34 4.34 0 0 1-4.33 4.33Z"></path><path fill="#7da1d4" stroke="#292839" stroke-linecap="round" stroke-linejoin="round" stroke-width="1.76" d="m473.87 756.56 22.87-20.72v-68.49l-22.87 14.03v75.18z"></path><path fill="#fff" stroke="#292839" stroke-linecap="round" stroke-linejoin="round" stroke-width="1.76" d="M284.21 681.38h189.66v75.18H284.21z"></path><path fill="#a5d1f0" d="M291.55 685.72h171.88v64.25H291.55z"></path><path fill="#eaeef8" stroke="#292839" stroke-linecap="round" stroke-linejoin="round" stroke-width="1.76" d="M166.73 321.16h22.58v215.03h-22.58z" transform="rotate(-124.73 178.002 428.671)"></path><path fill="#7da1d4" d="M75.23 424.57h205.06v13.58H75.23z" transform="rotate(-34.73 177.722 431.31)"></path><path fill="#eaeef8" stroke="#292839" stroke-linecap="round" stroke-linejoin="round" stroke-width="1.76" d="m15.72 509.65 9.2 13.28 9.82-6.8-2.1-3.03 11.47-24.29 26.77-2.22 15.3 22.08-11.47 24.29-26.77 2.21-2.1-3.03-9.82 6.81 9.21 13.28 45.58-.08 22.12-46.85-29.51-42.57L31.79 467l-16.07 42.65z"></path><path fill="#7da1d4" d="m108.23 507.65-19.62 41.56-40.03.07-5.3-7.65 2.5-1.73 1.02 1.47 31.55-2.61 13.51-28.62-18.03-26.01-31.54 2.61-13.51 28.62 1.02 1.47-2.51 1.74-5.3-7.64 14.12-37.47 45.81-3.78 26.31 37.97z"></path><path fill="#eaeef8" stroke="#292839" stroke-linecap="round" stroke-linejoin="round" stroke-width="1.76" d="m334.53 351.71-9.2-13.28-9.82 6.8 2.1 3-5.73 12.15a23.29 23.29 0 0 1-19.12 13.25h0a23.29 23.29 0 0 1-21-9.93h0a23.28 23.28 0 0 1-1.91-23.19h0a23.28 23.28 0 0 1 19.12-13.25l13.38-1.1 2.1 3 9.82-6.8-9.27-13.23h-18.5a42.82 42.82 0 0 0-38.64 24.54h0a42.8 42.8 0 0 0 3.53 42.67l1.34 1.94a42.8 42.8 0 0 0 38.72 18.28h0A42.81 42.81 0 0 0 328 369Z"></path><path fill="#7da1d4" d="m306.14 325.3-2.51 1.7-1-1.48-15.77 1.31a27.41 27.41 0 1 0 27 39l6.76-14.31-1-1.47 2.5-1.74 5.3 7.65-5.65 15a38 38 0 0 1-66.77 8.27l-1.33-1.92a38 38 0 0 1 31.16-59.63h16Z"></path><path fill="#a5d1f0" stroke="#292839" stroke-linecap="round" stroke-linejoin="round" stroke-width="1.76" d="m333.42 548.72-126 76.53c-87.19-84.07-132-208.94-123-336.54l127.74-56.11c-4.51 119 39.66 236.14 121.26 316.12Z"></path><path fill="#fff" d="M206.65 611.06C128 529.69 86.83 413.93 92.25 295l112-49.6c-2 111.94 38.73 221.41 113 299.21Z"></path><path fill="#7da1d4" d="m141.24 335.57-36.89 17.3q-2-20.78-2.07-41.75l36.59-16.52q.24 20.55 2.37 40.97Z"></path><path fill="#fff" stroke="#292839" stroke-linecap="round" stroke-linejoin="round" stroke-width="1.76" d="m136.15 332.72-37 17.28a452.659 452.659 0 0 1-1.56-41.86l36.69-16.49q-.01 20.59 1.87 41.07Z"></path><path fill="#a5d1f0" stroke="#292839" stroke-linecap="round" stroke-linejoin="round" stroke-width="1.76" d="M144.75 257.63c-2.32-.51-30.65 65.77-29.68 65.59 0 0-10.76-6.36-12-4.07s10.66 14.93 10.76 14.91a2.17 2.17 0 0 0 2 .38 3.12 3.12 0 0 0 .83-.36 5.84 5.84 0 0 0 2.3-3.11c-1.26.25 25.96-72.55 25.79-73.34Z"></path><path fill="#7da1d4" d="m154.64 407.07-37.14 18.64q-5.4-20.18-8.91-40.9l37-17.9q3.61 20.32 9.05 40.16Z"></path><path fill="#fff" stroke="#292839" stroke-linecap="round" stroke-linejoin="round" stroke-width="1.76" d="m148.71 404.53-37.29 18.62q-5.16-20.28-8.42-41.1l37.16-17.87q3.35 20.4 8.55 40.35Z"></path><path fill="#a5d1f0" stroke="#292839" stroke-linecap="round" stroke-linejoin="round" stroke-width="1.76" d="M145.9 329.86c-2.53-.32-22.42 66.65-21.48 66.33 0 0-12.69-5.79-13.67-3.49s14 14.21 14 14.18a2.67 2.67 0 0 0 2.17.28 3.08 3.08 0 0 0 .85-.39 5 5 0 0 0 2-3.15c-1.14.38 16.56-72.84 16.13-73.76Z"></path><path fill="#7da1d4" d="m179.58 475.22-37.06 19.87q-8.69-18.85-15.58-38.64l37.16-19.19q6.9 19.41 15.48 37.96Z"></path><path fill="#fff" stroke="#292839" stroke-linecap="round" stroke-linejoin="round" stroke-width="1.76" d="M172.88 473.14 135.65 493q-8.48-19-15.14-38.93l37.31-19.18q6.63 19.54 15.06 38.25Z"></path><path fill="#7da1d4" d="m215.47 537.56-36.62 20.92A402.28 402.28 0 0 1 157 523.54l36.91-20.35a403.24 403.24 0 0 0 21.56 34.37Z"></path><path fill="#fff" stroke="#292839" stroke-linecap="round" stroke-linejoin="round" stroke-width="1.76" d="M208.09 536.09 171.28 557a408.72 408.72 0 0 1-21.49-35.32l37.08-20.37a406.13 406.13 0 0 0 21.22 34.78Z"></path><path fill="#7da1d4" d="M153 297.12a2.15 2.15 0 0 1-.89-4.1l42.56-19.33a2.14 2.14 0 1 1 1.77 3.9l-42.56 19.33a2.09 2.09 0 0 1-.88.2Zm.43 9.69a2.14 2.14 0 0 1-.9-4.08l42.65-19.55a2.14 2.14 0 0 1 1.78 3.89l-42.64 19.55a2.16 2.16 0 0 1-.89.19Zm8.57 6.35a2.14 2.14 0 0 1-.9-4.08L195.88 293a2.14 2.14 0 1 1 1.8 3.89L162.91 313a2.07 2.07 0 0 1-.91.16Zm4.72 51.5a2.14 2.14 0 0 1-.94-4.06l37.09-18a2.14 2.14 0 1 1 1.87 3.85l-37.09 18a2.21 2.21 0 0 1-.93.21Zm-3.99 12.43a2.14 2.14 0 0 1-.94-4.06l43.05-21.09a2.14 2.14 0 1 1 1.88 3.84l-43.05 21.09a2.09 2.09 0 0 1-.94.22Zm2.07 9.18a2.14 2.14 0 0 1-1-4.06l43.08-21.29a2.14 2.14 0 0 1 1.89 3.83l-43.07 21.3a2.13 2.13 0 0 1-.9.22Zm16.99 55.21a2.14 2.14 0 0 1-1-4L223.88 415a2.14 2.14 0 0 1 2 3.8l-43.08 22.46a2.22 2.22 0 0 1-1.01.22Zm3.57 9.04a2.14 2.14 0 0 1-1-4l43.06-22.66a2.14 2.14 0 1 1 2 3.79l-43.06 22.66a2.22 2.22 0 0 1-1 .21Zm30 59.57a2.14 2.14 0 0 1-1.05-4L257 482.23a2.14 2.14 0 1 1 2.1 3.77l-42.7 23.85a2.18 2.18 0 0 1-1.04.24Zm6.52-14.24a2.14 2.14 0 0 1-1-4l31.5-17.45a2.14 2.14 0 1 1 2.08 3.74l-31.5 17.45a2.07 2.07 0 0 1-1.08.26Zm-1.42 22.4a2.14 2.14 0 0 1-1.06-4l42.63-24a2.14 2.14 0 0 1 2.1 3.73l-42.62 24a2.15 2.15 0 0 1-1.05.27Z"></path><rect width="323.29" height="65.17" x="161.01" y="119.79" fill="#7da1d4" stroke="#292839" stroke-linecap="round" stroke-linejoin="round" stroke-width="1.76" rx="7.81"></rect><rect width="56.51" height="314.64" x="294.4" y="-4.94" fill="#eaeef8" rx="4.91" transform="rotate(90 322.655 152.375)"></rect><path fill="#a5d1f0" d="m237.19 146.96-4.04-1.12-33.76 24.52.12 3.95 16.93-5.65 14.25 7.49-2.72-15.86 9.22-13.33z"></path><path fill="#eaeef8" d="m236.55 145.35-15.93-2.32-7.12-14.43-7.13 14.43-15.93 2.32 11.53 11.23-2.72 15.87 14.25-7.49 14.25 7.49-2.72-15.87 11.52-11.23z"></path><path fill="#2d4a9f" d="m212.28 130.68 6.45 13.07 14.42 2.09-10.43 10.17 2.46 14.35-12.9-6.78-12.89 6.78 2.46-14.35-10.42-10.17 14.41-2.09 6.44-13.07z"></path><path fill="#a5d1f0" d="m208.44 153.87-3.85-3.75 5.32-.78 2.37-4.81 2.38 4.81 5.32.78-3.85 3.75.91 5.29-4.76-2.5-4.75 2.5.91-5.29zm83.16-6.91-4.04-1.12-33.75 24.52.12 3.95 16.93-5.65 14.25 7.49-2.72-15.86 9.21-13.33z"></path><path fill="#eaeef8" d="m290.97 145.35-15.93-2.32-7.12-14.43-7.13 14.43-15.93 2.32 11.53 11.23-2.72 15.87 14.25-7.49 14.25 7.49-2.73-15.87 11.53-11.23z"></path><path fill="#2d4a9f" d="m266.7 130.68 6.45 13.07 14.41 2.09-10.43 10.17 2.47 14.35-12.9-6.78-12.89 6.78 2.46-14.35-10.43-10.17 14.42-2.09 6.44-13.07z"></path><path fill="#a5d1f0" d="m262.86 153.87-3.85-3.75 5.32-.78 2.37-4.81 2.38 4.81 5.32.78-3.85 3.75.91 5.29-4.76-2.5-4.75 2.5.91-5.29zm83.16-6.91-4.04-1.12-33.75 24.52.12 3.95 16.93-5.65 14.25 7.49-2.72-15.86 9.21-13.33z"></path><path fill="#eaeef8" d="m345.39 145.35-15.93-2.32-7.13-14.43-7.12 14.43-15.93 2.32 11.53 11.23-2.72 15.87 14.24-7.49 14.25 7.49-2.72-15.87 11.53-11.23z"></path><path fill="#2d4a9f" d="m321.12 130.68 6.45 13.07 14.41 2.09-10.43 10.17 2.46 14.35-12.89-6.78-12.89 6.78 2.46-14.35-10.43-10.17 14.42-2.09 6.44-13.07z"></path><path fill="#a5d1f0" d="m317.27 153.87-3.84-3.75 5.32-.78 2.37-4.81 2.38 4.81 5.32.78-3.85 3.75.91 5.29-4.76-2.5-4.75 2.5.9-5.29zm83.17-6.91-4.04-1.12-33.75 24.52.12 3.95 16.93-5.65 14.25 7.49-2.72-15.86 9.21-13.33z"></path><path fill="#eaeef8" d="m399.81 145.35-15.93-2.32-7.13-14.43-7.12 14.43-15.93 2.32 11.53 11.23-2.72 15.87 14.24-7.49 14.25 7.49-2.72-15.87 11.53-11.23z"></path><path fill="#2d4a9f" d="m375.54 130.68 6.45 13.07 14.41 2.09-10.43 10.17 2.46 14.35-12.89-6.78-12.89 6.78 2.46-14.35-10.43-10.17 14.42-2.09 6.44-13.07z"></path><path fill="#a5d1f0" d="m371.69 153.87-3.84-3.75 5.31-.78 2.38-4.81 2.38 4.81 5.32.78-3.85 3.75.91 5.29-4.76-2.5-4.75 2.5.9-5.29zm83.17-6.91-4.04-1.12-33.75 24.52.12 3.95 16.93-5.65 14.25 7.49-2.73-15.86 9.22-13.33z"></path><path fill="#eaeef8" d="m454.23 145.35-15.93-2.32-7.13-14.43-7.12 14.43-15.93 2.32 11.53 11.23-2.72 15.87 14.24-7.49 14.25 7.49-2.72-15.87 11.53-11.23z"></path><path fill="#2d4a9f" d="m429.96 130.68 6.45 13.07 14.41 2.09-10.43 10.17 2.46 14.35-12.89-6.78-12.89 6.78 2.46-14.35-10.43-10.17 14.41-2.09 6.45-13.07z"></path><path fill="#a5d1f0" d="m426.11 153.87-3.85-3.75 5.32-.78 2.38-4.81 2.38 4.81 5.32.78-3.85 3.75.91 5.29-4.76-2.5-4.76 2.5.91-5.29z"></path><path fill="#eaeef8" d="M343.63 702h-31.17a.92.92 0 0 0-.92.91v5.93a.92.92 0 0 0 .92.92h11.16v32.22a.91.91 0 0 0 .91.91h7a.92.92 0 0 0 .92-.91v-32.27h11.16a.92.92 0 0 0 .91-.92v-5.93a.91.91 0 0 0-.89-.86Zm31.55 33.08h-17.57v-8.84h16.1a.91.91 0 0 0 .91-.91v-5.93a.92.92 0 0 0-.91-.92h-16.1v-8.77H375a.92.92 0 0 0 .92-.92v-5.93a.92.92 0 0 0-.92-.86h-25.4a.92.92 0 0 0-.92.91v39.07a.92.92 0 0 0 .92.91h25.56a.91.91 0 0 0 .91-.91V736a.91.91 0 0 0-.89-.92Zm32.69-12.48a15.91 15.91 0 0 0-3.91-2.34 25.73 25.73 0 0 0-4.4-1.44l-3.67-.92a20.7 20.7 0 0 1-2.29-.68 9.22 9.22 0 0 1-2-1 4 4 0 0 1-1.25-1.23 2.92 2.92 0 0 1-.42-1.62 3.46 3.46 0 0 1 .68-2.08 4.63 4.63 0 0 1 2-1.51 8.79 8.79 0 0 1 3.44-.6 7.79 7.79 0 0 1 4.59 1.23 4.29 4.29 0 0 1 1.86 3.24.91.91 0 0 0 .91.81h6.81a.88.88 0 0 0 .65-.27.89.89 0 0 0 .26-.66 11.12 11.12 0 0 0-2-6.35 12.91 12.91 0 0 0-5.3-4.29 18.31 18.31 0 0 0-7.68-1.53 18.84 18.84 0 0 0-7.71 1.52 13.3 13.3 0 0 0-5.49 4.33 11 11 0 0 0-2.05 6.59 9.55 9.55 0 0 0 3.09 7.4 18.72 18.72 0 0 0 8 4l4.44 1.15a23.73 23.73 0 0 1 3.54 1.16 5.78 5.78 0 0 1 2.12 1.45 2.78 2.78 0 0 1 .67 1.91 3.72 3.72 0 0 1-.81 2.37 5.58 5.58 0 0 1-2.36 1.66 10 10 0 0 1-3.71.64 10.6 10.6 0 0 1-3.68-.61 5.84 5.84 0 0 1-2.5-1.75 5 5 0 0 1-1.06-2.88.91.91 0 0 0-.91-.85h-7a.91.91 0 0 0-.66.28.92.92 0 0 0-.25.67 13.05 13.05 0 0 0 2.19 7.09 12.75 12.75 0 0 0 5.62 4.44 21.37 21.37 0 0 0 8.26 1.48 20.71 20.71 0 0 0 8.37-1.54 12.46 12.46 0 0 0 5.46-4.38 11.51 11.51 0 0 0 1.91-6.55 10.62 10.62 0 0 0-1.05-4.84 10.84 10.84 0 0 0-2.71-3.5Zm38.7-20.6H415.4a.91.91 0 0 0-.91.91v5.93a.92.92 0 0 0 .91.92h11.16v32.22a.92.92 0 0 0 .92.91h7a.91.91 0 0 0 .91-.91v-32.27h11.16a.92.92 0 0 0 .91-.92v-5.93a.91.91 0 0 0-.89-.86Z"></path><path fill="#a5d1f0" d="M340.43 698.09h-31.17a.91.91 0 0 0-.91.91v5.93a.92.92 0 0 0 .91.92h11.16v32.22a.92.92 0 0 0 .92.91h7a.92.92 0 0 0 .92-.91v-32.22h11.16a.92.92 0 0 0 .91-.92V699a.91.91 0 0 0-.9-.91ZM372 731.22h-17.59v-8.83h16.1a.92.92 0 0 0 .91-.92v-5.93a.92.92 0 0 0-.91-.92h-16.1v-8.77h17.41a.92.92 0 0 0 .92-.92V699a.92.92 0 0 0-.92-.91h-25.4a.92.92 0 0 0-.92.91v39.07a.92.92 0 0 0 .92.91H372a.91.91 0 0 0 .91-.91v-5.94a.91.91 0 0 0-.91-.91Zm32.67-12.48a16 16 0 0 0-3.9-2.34 26 26 0 0 0-4.4-1.44l-3.68-.92a21.36 21.36 0 0 1-2.29-.68 9.22 9.22 0 0 1-2-1 4 4 0 0 1-1.25-1.23 3 3 0 0 1-.42-1.62 3.46 3.46 0 0 1 .68-2.08 4.63 4.63 0 0 1 2-1.51 8.79 8.79 0 0 1 3.44-.6 7.77 7.77 0 0 1 4.59 1.23 4.26 4.26 0 0 1 1.86 3.24.92.92 0 0 0 .91.81h6.81a.88.88 0 0 0 .65-.27.9.9 0 0 0 .27-.66 11.13 11.13 0 0 0-2-6.35 12.85 12.85 0 0 0-5.3-4.29 18.29 18.29 0 0 0-7.67-1.53 18.89 18.89 0 0 0-7.72 1.52 13.24 13.24 0 0 0-5.49 4.34 11 11 0 0 0-2.05 6.58 9.55 9.55 0 0 0 3.09 7.4 18.72 18.72 0 0 0 8 4l4.44 1.15a23.73 23.73 0 0 1 3.54 1.16 5.91 5.91 0 0 1 2.13 1.45 2.83 2.83 0 0 1 .67 1.91 3.73 3.73 0 0 1-.82 2.37 5.69 5.69 0 0 1-2.36 1.67 10.22 10.22 0 0 1-3.71.63 10.6 10.6 0 0 1-3.68-.61 5.84 5.84 0 0 1-2.5-1.75 4.92 4.92 0 0 1-1.05-2.88.93.93 0 0 0-.92-.85h-7a.91.91 0 0 0-.66.28.92.92 0 0 0-.25.67 13.14 13.14 0 0 0 2.19 7.09 12.75 12.75 0 0 0 5.62 4.44 21.39 21.39 0 0 0 8.27 1.48 20.78 20.78 0 0 0 8.37-1.54 12.42 12.42 0 0 0 5.45-4.38 11.51 11.51 0 0 0 1.91-6.55 10.62 10.62 0 0 0-1.05-4.84 10.84 10.84 0 0 0-2.72-3.5Zm38.7-20.65H412.2a.91.91 0 0 0-.91.91v5.93a.92.92 0 0 0 .91.92h11.16v32.22a.92.92 0 0 0 .92.91h7a.91.91 0 0 0 .91-.91v-32.22h11.16a.92.92 0 0 0 .92-.92V699a.92.92 0 0 0-.9-.91Z"></path><path fill="#eaeef8" stroke="#292839" stroke-linecap="round" stroke-linejoin="round" stroke-width="1.76" d="M303.42 703.49v-5.94h31.17v5.94h-12.08v33.13h-7v-33.13Zm37.16 33.13v-39.07H366v5.94h-18.35v10.6h17V720h-17v10.67h18.49v5.93Zm53.86-28.33a5.22 5.22 0 0 0-2.24-3.89 8.66 8.66 0 0 0-5.12-1.39 9.71 9.71 0 0 0-3.8.67 5.63 5.63 0 0 0-2.42 1.81 4.44 4.44 0 0 0-.86 2.61 3.86 3.86 0 0 0 .57 2.12 4.7 4.7 0 0 0 1.53 1.51 10.28 10.28 0 0 0 2.16 1 23.09 23.09 0 0 0 2.38.71l3.66.92a24.78 24.78 0 0 1 4.27 1.39 15.25 15.25 0 0 1 3.68 2.21 9.83 9.83 0 0 1 2.58 3.22 9.67 9.67 0 0 1 1 4.43 10.56 10.56 0 0 1-1.76 6 11.55 11.55 0 0 1-5.06 4.06 19.85 19.85 0 0 1-8 1.46 20.29 20.29 0 0 1-7.91-1.41 11.81 11.81 0 0 1-5.23-4.12 12.19 12.19 0 0 1-2-6.6h7a5.94 5.94 0 0 0 1.26 3.39 6.56 6.56 0 0 0 2.89 2 11.23 11.23 0 0 0 4 .67 10.94 10.94 0 0 0 4-.69 6.5 6.5 0 0 0 2.74-2 4.65 4.65 0 0 0 1-2.93 3.71 3.71 0 0 0-.9-2.52 6.63 6.63 0 0 0-2.45-1.68 24.29 24.29 0 0 0-3.67-1.21l-4.49-1.03a17.7 17.7 0 0 1-7.62-3.77 8.59 8.59 0 0 1-2.8-6.72 10.07 10.07 0 0 1 1.88-6 12.33 12.33 0 0 1 5.12-4 17.92 17.92 0 0 1 7.35-1.44 17.31 17.31 0 0 1 7.29 1.44 12 12 0 0 1 4.93 4 10.16 10.16 0 0 1 1.85 5.84Zm11.92-4.8v-5.94h31.17v5.94h-12.07v33.13h-7v-33.13Z"></path><path fill="#2d4a9f" d="m296.38 641.28-10.88 7.29 4.52 12.29-13.09-.51-3.56 12.61-10.29-8.11-10.3 8.11-3.55-12.61-13.1.51 4.53-12.29-10.88-7.29 10.88-7.29-4.52-12.29 13.09.51 3.55-12.61 10.3 8.11 10.29-8.11 3.56 12.61 13.09-.51-4.52 12.29 10.88 7.29z"></path><path fill="none" stroke="#292839" stroke-linecap="round" stroke-linejoin="round" stroke-width="1.76" d="m296.38 641.28-10.88 7.29 4.52 12.29-13.09-.51-3.56 12.61-10.29-8.11-10.3 8.11-3.55-12.61-13.1.51 4.53-12.29-10.88-7.29 10.88-7.29-4.52-12.29 13.09.51 3.55-12.61 10.3 8.11 10.29-8.11 3.56 12.61 13.09-.51-4.52 12.29 10.88 7.29z"></path><circle cx="264.36" cy="643.22" r="15.13" fill="#a5d1f0"></circle></svg>