<svg width="161" height="177" viewBox="0 0 161 177" fill="none" xmlns="http://www.w3.org/2000/svg">
<path d="M3 171C1.34315 171 0 172.343 0 174C0 175.657 1.34315 177 3 177V171ZM160.121 25.1213C161.293 23.9497 161.293 22.0503 160.121 20.8787L141.029 1.7868C139.858 0.615224 137.958 0.615224 136.787 1.7868C135.615 2.95837 135.615 4.85786 136.787 6.02944L153.757 23L136.787 39.9706C135.615 41.1421 135.615 43.0416 136.787 44.2132C137.958 45.3848 139.858 45.3848 141.029 44.2132L160.121 25.1213ZM3 177H86.0714V171H3V177ZM92.0714 171V26H86.0714V171H92.0714ZM92.0714 26H158V20H92.0714V26ZM92.0714 26V26V20C88.7577 20 86.0714 22.6863 86.0714 26H92.0714ZM86.0714 177C89.3851 177 92.0714 174.314 92.0714 171H86.0714H86.0714V177Z" fill="white"/>
</svg>
