<svg xmlns="http://www.w3.org/2000/svg" viewBox="0 0 512 512" id="secure-transaction"><g data-name="Secure Transaction"><path fill="#dee1ec" d="M366.92,86.11V425.88a33.42,33.42,0,0,1-33.41,33.43H176.31a33.43,33.43,0,0,1-33.43-33.43V86.11a33.43,33.43,0,0,1,33.43-33.42h157.2A33.41,33.41,0,0,1,366.92,86.11Z"></path><path fill="#f5f5f5" d="M349.45,84.52V427.46a14.36,14.36,0,0,1-14.36,14.37H174.72a14.37,14.37,0,0,1-14.37-14.37V84.52a14.38,14.38,0,0,1,14.37-14.37h34.51a8.93,8.93,0,0,1,8.93,8.93A8.92,8.92,0,0,0,227.08,88h55.61a8.92,8.92,0,0,0,8.92-8.92,8.93,8.93,0,0,1,8.92-8.93h34.56A14.36,14.36,0,0,1,349.45,84.52Z"></path><path fill="#a9afc4" d="M282.13,396H227.67a17,17,0,0,1,0-34.07h54.46a17,17,0,0,1,0,34.07Z"></path><path fill="#5e6175" d="M333.51,462.31H176.31a36.47,36.47,0,0,1-36.43-36.43V86.11a36.47,36.47,0,0,1,36.43-36.42h157.2a36.43,36.43,0,0,1,36.42,36.42V425.88A36.47,36.47,0,0,1,333.51,462.31ZM176.31,55.69a30.46,30.46,0,0,0-30.43,30.42V425.88a30.46,30.46,0,0,0,30.43,30.43h157.2a30.46,30.46,0,0,0,30.42-30.43V86.11a30.43,30.43,0,0,0-30.42-30.42Z"></path><path fill="#f5f5f5" d="M249.52,308.76a103.56,103.56,0,0,1-60.39-94V167.62h22.31c11.15,0,24.58-4.18,36.84-11.48l6.6-3.93,6.62,3.92c12.35,7.3,25.79,11.49,36.87,11.49h22.31v47.16c0,38.12-22.26,73.1-59.54,93.55l-5.71,3.13Z"></path><path fill="#5e6175" d="M255.56,314.82l-7.29-3.33a106.58,106.58,0,0,1-62.14-96.71V164.62h25.31c10.63,0,23.5-4,35.3-11.05l8.14-4.85,8.15,4.82c11.9,7,24.78,11.08,35.34,11.08h25.3v50.16c0,39.24-22.84,75.2-61.09,96.18Zm-63.43-144.2v44.16A100.55,100.55,0,0,0,250.76,306l4.55,2.08,4.38-2.4c36.31-19.92,58-53.92,58-90.93V170.62h-19.3c-11.61,0-25.6-4.34-38.4-11.91l-5.08-3-5.08,3c-12.71,7.56-26.69,11.9-38.37,11.9Z"></path><path fill="#e1830e" d="M305.12,215.63V183.11h-8.89c-13.88,0-29.06-5.38-41.33-12.64-12.27,7.3-27.29,12.64-41.33,12.64h-8.88v32.52a85.91,85.91,0,0,0,50.21,78.15C283.69,278,305.12,249.85,305.12,215.63Z"></path><polygon fill="#f5f5f5" points="249.37 247.59 229.09 227.31 236.09 220.3 249.37 233.58 279.43 203.52 286.43 210.53 249.37 247.59"></polygon><path fill="none" stroke="#e1830e" stroke-miterlimit="10" stroke-width="18" d="M296.87,323.38h81.2a58,58,0,0,0,57.95-58V198.24"></path><path fill="#e1830e" d="M436,175.39l-26.36,30.14h52.72Z"></path><path fill="none" stroke="#e1830e" stroke-miterlimit="10" stroke-width="18" d="M207.27,126.82H133.93a58,58,0,0,0-57.95,58V252"></path><path fill="#e1830e" d="M76,274.8l26.36-30.13H49.62Z"></path><circle cx="75.98" cy="335.53" r="39.98" fill="#f5f5f5"></circle><path fill="#5e6175" d="M76,378.51a43,43,0,1,1,43-43A43,43,0,0,1,76,378.51Zm0-80a37,37,0,1,0,37,37A37,37,0,0,0,76,298.55Z"></path><path fill="#e08326" d="M68.32,332.3V321.69h12a5.31,5.31,0,1,1,0,10.61Zm12-16.78H62.16v39.72h6.16V338.47h12a11.48,11.48,0,1,0,0-23Z"></path><path fill="#e08326" d="M83.54,349.08H68.32V338.47H83.54a5.31,5.31,0,1,1,0,10.61Zm0-16.78H62.16v22.94H83.54a11.47,11.47,0,1,0,0-22.94Z"></path><rect width="6.16" height="8.97" x="65.73" y="310.46" fill="#e08326"></rect><rect width="6.16" height="8.97" x="76.52" y="310.46" fill="#e08326"></rect><rect width="6.16" height="8.97" x="65.73" y="350.76" fill="#e08326"></rect><rect width="6.16" height="8.97" x="76.52" y="350.76" fill="#e08326"></rect><circle cx="436.02" cy="117.01" r="39.98" fill="#f5f5f5"></circle><path fill="#5e6175" d="M436,160a43,43,0,1,1,43-43A43,43,0,0,1,436,160Zm0-80a37,37,0,1,0,37,37A37,37,0,0,0,436,80Z"></path><path fill="#e1830e" d="M436,139.45a13.32,13.32,0,0,1-13.3-13.31h8.33a5,5,0,1,0,5-5,13.31,13.31,0,1,1,13.3-13.31H441a5,5,0,1,0-5,5,13.31,13.31,0,0,1,0,26.61Z"></path><rect width="8.34" height="8.31" x="431.85" y="135.28" fill="#e1830e"></rect><rect width="8.34" height="8.31" x="431.85" y="90.43" fill="#e1830e"></rect><rect width="6" height="17.93" x="445.89" y="317.86" fill="#5e6175" transform="rotate(-45.56 448.946 326.843)"></rect><rect width="18.02" height="6" x="451.86" y="302.75" fill="#5e6175" transform="rotate(-.28 459.667 306.02)"></rect><rect width="6" height="17.84" x="425.81" y="330.45" fill="#5e6175" transform="rotate(-.29 421.962 332.99)"></rect><path fill="#a9afc4" d="M52.7,219.06h-6v-4.55h6Zm0-14.55h-6v-6h6Zm0-16h-6v-6h6Zm.48-15.65-6-.66c.23-2,.53-4.12.91-6.15l5.9,1.1C53.68,169,53.39,171,53.18,172.86Zm3.2-15L50.67,156c.62-2,1.33-3.93,2.11-5.85l5.56,2.25C57.62,154.18,57,156,56.38,157.83Zm6.11-14.1-5.24-2.92c1-1.81,2.09-3.6,3.22-5.32l5,3.3C64.43,140.39,63.42,142.05,62.49,143.73Zm8.77-12.63-4.57-3.89c1.34-1.57,2.75-3.11,4.21-4.58l4.27,4.21C73.82,128.21,72.5,129.64,71.26,131.1Zm11.08-10.67-3.72-4.71c1.62-1.28,3.31-2.52,5-3.68L87,117C85.41,118.09,83.84,119.24,82.34,120.43Zm13-8.3-2.72-5.35c1.85-.94,3.75-1.82,5.65-2.61l2.31,5.53C98.77,110.44,97,111.26,95.29,112.13Zm14.33-5.58-1.6-5.78c2-.56,4-1,6-1.45l1.17,5.89C113.36,105.58,111.47,106,109.62,106.55Zm15.15-2.63-.44-6c2.06-.15,4.15-.22,6.21-.22v6C128.63,103.71,126.69,103.78,124.77,103.92Z"></path></g></svg>