<svg xmlns="http://www.w3.org/2000/svg" xmlns:xlink="http://www.w3.org/1999/xlink" viewBox="0 0 512 512" id="digital-asset"><defs><linearGradient id="a" x1="126.94" x2="375.69" y1="305.98" y2="305.98" gradientUnits="userSpaceOnUse"><stop offset="0" stop-color="#cacfdd"></stop><stop offset="1" stop-color="#eef0f1"></stop></linearGradient><linearGradient id="b" x1="-5914.62" x2="-5889.7" y1="3172.51" y2="3172.51" gradientTransform="rotate(180 -2829.38 1659.255)" gradientUnits="userSpaceOnUse"><stop offset="0" stop-color="#a9afc4"></stop><stop offset="1" stop-color="#d4d8e5"></stop></linearGradient><linearGradient id="c" x1="224.08" x2="255.86" y1="272.95" y2="272.95" xlink:href="#a"></linearGradient></defs><g style="isolation:isolate"><g data-name="Digital Asset"><path fill="#dee1ec" d="M414.39,229V416.31a12.82,12.82,0,0,1-12.82,12.83H110.44a12.83,12.83,0,0,1-12.83-12.83V229a12.83,12.83,0,0,1,12.83-12.82H401.57A12.82,12.82,0,0,1,414.39,229Z"></path><rect width="285.11" height="182.02" x="113.45" y="231.45" fill="#f5f5f5"></rect><polygon points="375.69 257.18 375.69 395.74 224.08 395.74 224.08 304.72 126.94 304.72 126.94 216.22 271.86 216.22 271.86 257.18 375.69 257.18" style="mix-blend-mode:multiply" fill="url(#a)"></polygon><path fill="#5e6175" d="M401.57,432.15H110.43A15.86,15.86,0,0,1,94.6,416.31V229a15.85,15.85,0,0,1,15.83-15.83H401.57A15.85,15.85,0,0,1,417.4,229V416.31A15.86,15.86,0,0,1,401.57,432.15ZM110.43,219.21A9.84,9.84,0,0,0,100.6,229V416.31a9.84,9.84,0,0,0,9.83,9.84H401.57a9.84,9.84,0,0,0,9.83-9.84V229a9.84,9.84,0,0,0-9.83-9.83Z"></path><path fill="#dee1ec" d="M430,455.37H82a13.13,13.13,0,0,1-13.13-13.13V429.15H443.09v13.09A13.13,13.13,0,0,1,430,455.37Z"></path><path fill="#a9afc4" d="M278,440.12H234a5.21,5.21,0,0,1-5.21-5.21v-5.76h54.4v5.76A5.21,5.21,0,0,1,278,440.12Z"></path><path fill="#5e6175" d="M430,458.37H82a16.15,16.15,0,0,1-16.13-16.13V426.15H446.09v16.09A16.15,16.15,0,0,1,430,458.37Zm-358-26.22v10.09A10.15,10.15,0,0,0,82,452.37H430a10.15,10.15,0,0,0,10.13-10.13V432.15Z"></path><rect width="440" height="6" x="36" y="452.37" fill="#5e6175"></rect><polygon fill="#5e6175" points="439.81 291.44 414.4 291.44 414.4 285.44 433.81 285.44 433.81 245.69 456.31 223.18 460.56 227.43 439.81 248.17 439.81 291.44"></polygon><circle cx="458.44" cy="225.3" r="9.34" fill="#e08326"></circle><polygon fill="#5e6175" points="457.17 336.68 441.84 321.36 414.4 321.36 414.4 315.36 444.33 315.36 461.41 332.44 457.17 336.68"></polygon><circle cx="458.44" cy="334.56" r="9.34" fill="#e08326"></circle><polygon fill="#5e6175" points="456.76 403.88 433.42 380.54 433.42 361.56 414.4 361.56 414.4 355.56 439.42 355.56 439.42 378.05 461 399.63 456.76 403.88"></polygon><circle cx="458.44" cy="401.75" r="9.34" fill="#e08326"></circle><polygon fill="#5e6175" points="95.48 290.56 76.25 271.32 57.88 271.32 57.88 234.64 63.88 234.64 63.88 265.32 78.73 265.32 99.72 286.31 95.48 290.56"></polygon><circle cx="60.88" cy="233.36" r="9.34" fill="#e08326"></circle><polygon fill="#5e6175" points="95.48 331.36 77.86 313.74 60.88 313.74 60.88 307.74 80.34 307.74 99.72 327.12 95.48 331.36"></polygon><circle cx="60.88" cy="310.74" r="9.34" fill="#e08326"></circle><polygon fill="#5e6175" points="64.97 402.87 60.73 398.63 77.47 381.89 77.47 358.85 95.96 340.36 100.21 344.6 83.47 361.34 83.47 384.37 64.97 402.87"></polygon><circle cx="60.88" cy="403.75" r="9.34" fill="#e08326"></circle><polygon fill="#f5f5f5" points="142.94 288.72 142.94 134.39 232.96 134.39 255.86 156.09 255.86 288.72 142.94 288.72"></polygon><polygon fill="#f5f5f5" points="255.86 156.09 255.86 288.72 142.94 288.72 142.94 134.39 232.96 134.39 255.86 156.09"></polygon><path fill="url(#b)" d="M231,157.62V134.38h1.89c.18,0-1-1.06,23,21.71v1.53Z"></path><path fill="#5e6175" d="M258.86,160.62H228V131.38h6.2l24.71,23.42Zm-24.91-6h16l-16-15.17Z"></path><path fill="#a9afc4" d="M165.92 242.94v13.25h67.42V242.94zM165.92 207.88v13.25h67.42V207.88zM165.92 172.82v13.24h67.42V172.82z"></path><rect width="96.9" height="90.88" x="293.2" y="94.91" fill="#f5f5f5" rx="11.02"></rect><path fill="#5e6175" d="M379.08,188.79H304.22a14,14,0,0,1-14-14V105.93a14,14,0,0,1,14-14h74.86a14,14,0,0,1,14,14v68.84A14,14,0,0,1,379.08,188.79ZM304.22,97.91a8,8,0,0,0-8,8v68.84a8,8,0,0,0,8,8h74.86a8,8,0,0,0,8-8V105.93a8,8,0,0,0-8-8Z"></path><path fill="#e08326" d="M364,133.32l-29.78-17.19a8.11,8.11,0,0,0-12.17,7v34.38a8.11,8.11,0,0,0,12.17,7L364,147.38A8.12,8.12,0,0,0,364,133.32Z"></path><rect width="31.78" height="31.54" x="224.08" y="257.18" style="mix-blend-mode:multiply" fill="url(#c)"></rect><path fill="#5e6175" d="M258.86,291.72H139.94V131.39h94.22l24.7,23.41Zm-112.92-6H252.86V157.38l-21.1-20H145.94Z"></path><rect width="119.61" height="106.56" x="240.08" y="273.18" fill="#f5f5f5"></rect><path fill="#5e6175" d="M362.69,382.74H237.08V270.18H362.69Zm-119.61-6H356.69V276.18H243.08Z"></path><polygon fill="#e08326" points="255.96 364.92 255.96 338.1 290.4 303.66 315.6 328.86 328.08 316.37 343.7 331.99 343.7 364.92 255.96 364.92"></polygon><circle cx="314.65" cy="297.49" r="7.89" fill="#e08326"></circle><rect width="19.93" height="6" x="395.06" y="76.96" fill="#5e6175" transform="rotate(-45 405.019 79.956)"></rect><rect width="6" height="19.93" x="378.54" y="56.63" fill="#5e6175"></rect><rect width="19.93" height="6" x="408.96" y="99.24" fill="#5e6175"></rect><path fill="#a9afc4" d="M124.45,181.13h-6v-6h6Zm0-16h-6v-6h6Zm0-16h-6v-6h6Zm.35-15.43-5.9-1.08a27.35,27.35,0,0,1,2-6.42l5.46,2.49A21.93,21.93,0,0,0,124.8,133.7Zm6.72-12-4-4.45a27.46,27.46,0,0,1,5.49-3.86l2.83,5.28A21.75,21.75,0,0,0,131.52,121.66Zm12.65-5.49-.5-6c1.56-.12,2.5-.09,6.25-.09v6C146.17,116.1,145.37,116.07,144.17,116.17Zm21.75-.07h-6v-6h6Z"></path></g></g></svg>