<svg xmlns="http://www.w3.org/2000/svg" xmlns:xlink="http://www.w3.org/1999/xlink" enable-background="new 0 0 3000 2657.7" viewBox="0 0 3000 2657.7" id="online-banking"><rect width="2902.2" height="2573.3" x="48.9" y="42.2" fill="none"></rect><g opacity=".15"><ellipse cx="1526.2" cy="2096.8" fill="#2b2e3d" opacity="0" rx="709.1" ry="329.9"></ellipse><ellipse cx="1526.2" cy="2096.8" fill="#2b2e3d" opacity=".037" rx="697.8" ry="324.6"></ellipse><ellipse cx="1526.2" cy="2096.8" fill="#2b2e3d" opacity=".074" rx="686.4" ry="319.3"></ellipse><ellipse cx="1526.2" cy="2096.8" fill="#2b2e3d" opacity=".111" rx="675.1" ry="314"></ellipse><ellipse cx="1526.2" cy="2096.8" fill="#2b2e3d" opacity=".148" rx="663.7" ry="308.7"></ellipse><ellipse cx="1526.2" cy="2096.8" fill="#2b2e3d" opacity=".185" rx="652.4" ry="303.5"></ellipse><ellipse cx="1526.2" cy="2096.8" fill="#2b2e3d" opacity=".222" rx="641" ry="298.2"></ellipse><ellipse cx="1526.2" cy="2096.8" fill="#2b2e3d" opacity=".259" rx="629.7" ry="292.9"></ellipse><ellipse cx="1526.2" cy="2096.8" fill="#2b2e3d" opacity=".296" rx="618.3" ry="287.6"></ellipse><ellipse cx="1526.2" cy="2096.8" fill="#2b2e3d" opacity=".333" rx="607" ry="282.3"></ellipse><ellipse cx="1526.2" cy="2096.8" fill="#2b2e3d" opacity=".37" rx="595.6" ry="277.1"></ellipse><ellipse cx="1526.2" cy="2096.8" fill="#2b2e3d" opacity=".407" rx="584.3" ry="271.8"></ellipse><ellipse cx="1526.2" cy="2096.8" fill="#2b2e3d" opacity=".444" rx="572.9" ry="266.5"></ellipse><ellipse cx="1526.2" cy="2096.8" fill="#2b2e3d" opacity=".481" rx="561.6" ry="261.2"></ellipse><ellipse cx="1526.2" cy="2096.8" fill="#2b2e3d" opacity=".518" rx="550.2" ry="255.9"></ellipse><ellipse cx="1526.2" cy="2096.8" fill="#2b2e3d" opacity=".556" rx="538.9" ry="250.7"></ellipse><ellipse cx="1526.2" cy="2096.8" fill="#2b2e3d" opacity=".593" rx="527.5" ry="245.4"></ellipse><ellipse cx="1526.2" cy="2096.8" fill="#2b2e3d" opacity=".63" rx="516.2" ry="240.1"></ellipse><ellipse cx="1526.2" cy="2096.8" fill="#2b2e3d" opacity=".667" rx="504.8" ry="234.8"></ellipse><ellipse cx="1526.2" cy="2096.8" fill="#2b2e3d" opacity=".704" rx="493.5" ry="229.5"></ellipse><ellipse cx="1526.2" cy="2096.8" fill="#2b2e3d" opacity=".741" rx="482.1" ry="224.3"></ellipse><ellipse cx="1526.2" cy="2096.8" fill="#2b2e3d" opacity=".778" rx="470.8" ry="219"></ellipse><ellipse cx="1526.2" cy="2096.8" fill="#2b2e3d" opacity=".815" rx="459.4" ry="213.7"></ellipse><ellipse cx="1526.2" cy="2096.8" fill="#2b2e3d" opacity=".852" rx="448" ry="208.4"></ellipse><ellipse cx="1526.2" cy="2096.8" fill="#2b2e3d" opacity=".889" rx="436.7" ry="203.1"></ellipse><ellipse cx="1526.2" cy="2096.8" fill="#2b2e3d" opacity=".926" rx="425.3" ry="197.9"></ellipse><ellipse cx="1526.2" cy="2096.8" fill="#2b2e3d" opacity=".963" rx="414" ry="192.6"></ellipse><ellipse cx="1526.2" cy="2096.8" fill="#2b2e3d" rx="402.6" ry="187.3"></ellipse></g><g opacity=".15"><ellipse cx="780.2" cy="1452.4" fill="#2b2e3d" opacity="0" rx="301.9" ry="140.4"></ellipse><ellipse cx="780.2" cy="1452.4" fill="#2b2e3d" opacity=".037" rx="297.1" ry="138.2"></ellipse><ellipse cx="780.2" cy="1452.4" fill="#2b2e3d" opacity=".074" rx="292.3" ry="135.9"></ellipse><ellipse cx="780.2" cy="1452.4" fill="#2b2e3d" opacity=".111" rx="287.4" ry="133.7"></ellipse><ellipse cx="780.2" cy="1452.4" fill="#2b2e3d" opacity=".148" rx="282.6" ry="131.5"></ellipse><ellipse cx="780.2" cy="1452.4" fill="#2b2e3d" opacity=".185" rx="277.8" ry="129.2"></ellipse><ellipse cx="780.2" cy="1452.4" fill="#2b2e3d" opacity=".222" rx="272.9" ry="127"></ellipse><ellipse cx="780.2" cy="1452.4" fill="#2b2e3d" opacity=".259" rx="268.1" ry="124.7"></ellipse><ellipse cx="780.2" cy="1452.4" fill="#2b2e3d" opacity=".296" rx="263.3" ry="122.5"></ellipse><ellipse cx="780.2" cy="1452.4" fill="#2b2e3d" opacity=".333" rx="258.4" ry="120.2"></ellipse><ellipse cx="780.2" cy="1452.4" fill="#2b2e3d" opacity=".37" rx="253.6" ry="118"></ellipse><ellipse cx="780.2" cy="1452.4" fill="#2b2e3d" opacity=".407" rx="248.8" ry="115.7"></ellipse><ellipse cx="780.2" cy="1452.4" fill="#2b2e3d" opacity=".444" rx="243.9" ry="113.5"></ellipse><ellipse cx="780.2" cy="1452.4" fill="#2b2e3d" opacity=".481" rx="239.1" ry="111.2"></ellipse><ellipse cx="780.2" cy="1452.4" fill="#2b2e3d" opacity=".518" rx="234.3" ry="109"></ellipse><ellipse cx="780.2" cy="1452.4" fill="#2b2e3d" opacity=".556" rx="229.4" ry="106.7"></ellipse><ellipse cx="780.2" cy="1452.4" fill="#2b2e3d" opacity=".593" rx="224.6" ry="104.5"></ellipse><ellipse cx="780.2" cy="1452.4" fill="#2b2e3d" opacity=".63" rx="219.8" ry="102.2"></ellipse><ellipse cx="780.2" cy="1452.4" fill="#2b2e3d" opacity=".667" rx="214.9" ry="100"></ellipse><ellipse cx="780.2" cy="1452.4" fill="#2b2e3d" opacity=".704" rx="210.1" ry="97.7"></ellipse><ellipse cx="780.2" cy="1452.4" fill="#2b2e3d" opacity=".741" rx="205.3" ry="95.5"></ellipse><ellipse cx="780.2" cy="1452.4" fill="#2b2e3d" opacity=".778" rx="200.4" ry="93.2"></ellipse><ellipse cx="780.2" cy="1452.4" fill="#2b2e3d" opacity=".815" rx="195.6" ry="91"></ellipse><ellipse cx="780.2" cy="1452.4" fill="#2b2e3d" opacity=".852" rx="190.8" ry="88.7"></ellipse><ellipse cx="780.2" cy="1452.4" fill="#2b2e3d" opacity=".889" rx="185.9" ry="86.5"></ellipse><ellipse cx="780.2" cy="1452.4" fill="#2b2e3d" opacity=".926" rx="181.1" ry="84.2"></ellipse><ellipse cx="780.2" cy="1452.4" fill="#2b2e3d" opacity=".963" rx="176.3" ry="82"></ellipse><ellipse cx="780.2" cy="1452.4" fill="#2b2e3d" rx="171.4" ry="79.7"></ellipse></g><path fill="#878aa0" d="M1502.1,272.4l43.6,1035.7c0,31.1,16.5,59.9,43.4,75.5l219.5,155.7l197.3,140    c33.5,19.5,109.2-37.7,109.2-76.5l0-1017.4c0-15.8-4.6-31.1-12.8-44c-6.9-10.9-16.4-20.1-27.9-26.8l-480.8-280.3    C1572.2,221.8,1502.1,247.8,1502.1,272.4z"></path><path fill="#2b2e3d" d="M1808.5,699.2l0,840.1l197.3,140c33.5,19.5,109.2-37.7,109.2-76.5l0-1017.4c0-15.8-4.6-31.1-12.8-44    L1808.5,699.2z"></path><path fill="#525575" d="M1991.8,1672.3l-450.4-262.5c-26.9-15.7-43.4-44.4-43.4-75.5l0-1046.4c0-24.5,26.6-39.8,47.7-27.4    l480.9,280.3c25.2,14.7,40.7,41.7,40.7,70.8l0,1017.4C2067.3,1667.7,2025.3,1691.8,1991.8,1672.3z"></path><path fill="#fff" d="M2017,1651.1c10.7,0,22.2-8.5,22.2-22.1l0-1017.4c0-19.1-10.2-36.9-26.7-46.5l-480.9-280.3    c-0.8-0.5-1.4-0.5-1.8-0.5c-0.7,0-3.7,0.6-3.7,3.6l0,1046.4c0,21,11.3,40.6,29.4,51.2L2006,1648    C2009.5,1650,2013.2,1651.1,2017,1651.1L2017,1651.1z"></path><path fill="#caccce" d="M1435.6,2275.7c17.5,9.8,38.7,9.9,56.3,0.4c323.4-173.5,273.6-290.2,327.5-444.9     c55.4-159.1,210.8-193.7,210.8-193.7v-6.7l-482.6-263.1c0,0-155.4,34.6-210.8,193.7c-53.2,152.8-5.4,268.5-315.8,438.5     c-17.3,9.5-17.3,34.3-0.2,43.9L1435.6,2275.7z"></path><linearGradient id="a" x1="1256.889" x2="1662.014" y1="2181.369" y2="1634.647" gradientUnits="userSpaceOnUse"><stop offset="0" stop-color="#fff"></stop><stop offset="1" stop-color="#f5f5f6"></stop></linearGradient><path fill="url(#a)" d="M1435.6,2269c17.5,9.8,38.7,9.9,56.3,0.4c323.4-173.5,273.6-290.2,327.5-444.9     c55.4-159.1,210.8-193.7,210.8-193.7l-482.6-269.8c0,0-155.4,34.6-210.8,193.7c-53.2,152.8-5.4,268.5-315.8,438.5     c-17.3,9.5-17.3,34.3-0.2,43.9L1435.6,2269z"></path><path fill="#caccce" d="M1758.2 1616.1l-161.9-89.1c-.8-.4-1.1-1.5-.7-2.3l6.6-11.9c.4-.8 1.5-1.1 2.3-.7l161.9 89.1c.8.4 1.1 1.5.7 2.3l-6.6 11.9C1760 1616.2 1759 1616.5 1758.2 1616.1zM1460.4 2157.2l-161.9-89.1c-.8-.4-1.1-1.5-.7-2.3l6.6-11.9c.4-.8 1.5-1.1 2.3-.7l161.9 89.1c.8.4 1.1 1.5.7 2.3l-6.6 11.9C1462.2 2157.3 1461.2 2157.6 1460.4 2157.2zM1557.8 1589.9l-102.3-56.3c-.8-.4-1.1-1.5-.7-2.3l6.6-11.9c.4-.8 1.5-1.1 2.3-.7L1566 1575c.8.4 1.1 1.5.7 2.3l-6.6 11.9C1559.7 1590 1558.6 1590.3 1557.8 1589.9zM1591.8 1669.2l-161.9-89.1c-.8-.4-1.1-1.5-.7-2.3l6.6-11.9c.4-.8 1.5-1.1 2.3-.7l161.9 89.1c.8.4 1.1 1.5.7 2.3l-6.6 11.9C1593.6 1669.3 1592.6 1669.6 1591.8 1669.2zM1548.6 1706l-131.3-72.2c-.8-.4-1.1-1.5-.7-2.3l6.6-11.9c.4-.8 1.5-1.1 2.3-.7l131.3 72.2c.8.4 1.1 1.5.7 2.3l-6.6 11.9C1550.4 1706.1 1549.4 1706.4 1548.6 1706zM1554 1769.6l-149.3-82.2c-.8-.4-1.1-1.5-.7-2.3l6.6-11.9c.4-.8 1.5-1.1 2.3-.7l149.3 82.2c.8.4 1.1 1.5.7 2.3l-6.6 11.9C1555.9 1769.7 1554.8 1770 1554 1769.6zM1554 1830.1l-161.9-89.1c-.8-.4-1.1-1.5-.7-2.3l6.6-11.9c.4-.8 1.5-1.1 2.3-.7l161.9 89.1c.8.4 1.1 1.5.7 2.3l-6.6 11.9C1555.9 1830.3 1554.8 1830.6 1554 1830.1zM1464.9 1841.7l-98.4-54.1c-.8-.4-1.1-1.5-.7-2.3l6.6-11.9c.4-.8 1.5-1.1 2.3-.7l98.4 54.1c.8.4 1.1 1.5.7 2.3l-6.6 11.9C1466.7 1841.8 1465.7 1842.1 1464.9 1841.7zM1472.2 1906.3l-131.3-72.2c-.8-.4-1.1-1.5-.7-2.3l6.6-11.9c.4-.8 1.5-1.1 2.3-.7l131.3 72.2c.8.4 1.1 1.5.7 2.3l-6.6 11.9C1474 1906.4 1473 1906.7 1472.2 1906.3zM1729.9 1684.6l64.4 35.4c.8.4 1.8.1 2.3-.7l6.6-11.9c.4-.8.1-1.8-.7-2.3l-64.4-35.4c-.8-.4-1.8-.1-2.3.7l-6.6 11.9C1728.8 1683.1 1729.1 1684.2 1729.9 1684.6zM1644.8 1698.3l123.9 68.2c.8.4 1.8.1 2.3-.7l6.6-11.9c.4-.8.1-1.8-.7-2.3l-123.9-68.2c-.8-.4-1.8-.1-2.3.7l-6.6 11.9C1643.7 1696.9 1644 1697.9 1644.8 1698.3zM1662.8 1768.9l93.3 51.4c.8.4 1.8.1 2.3-.7l6.6-11.9c.4-.8.1-1.8-.7-2.3L1671 1754c-.8-.4-1.8-.1-2.3.7l-6.6 11.9C1661.7 1767.4 1662 1768.4 1662.8 1768.9zM1632.2 1812.6l111.4 61.3c.8.4 1.8.1 2.3-.7l6.6-11.9c.4-.8.1-1.8-.7-2.3l-111.4-61.3c-.8-.4-1.8-.1-2.3.7l-6.6 11.9C1631.1 1811.1 1631.4 1812.1 1632.2 1812.6zM1607 1859.3l123.9 68.2c.8.4 1.8.1 2.3-.7l6.6-11.9c.4-.8.1-1.8-.7-2.3l-123.9-68.2c-.8-.4-1.8-.1-2.3.7l-6.6 11.9C1605.9 1857.8 1606.2 1858.9 1607 1859.3zM1644.9 1940.8l60.4 33.3c.8.4 1.8.1 2.3-.7l6.6-11.9c.4-.8.1-1.8-.7-2.3l-60.4-33.3c-.8-.4-1.8-.1-2.3.7l-6.6 11.9C1643.8 1939.3 1644.1 1940.3 1644.9 1940.8zM1586.5 1969.2l93.3 51.4c.8.4 1.8.1 2.3-.7l6.6-11.9c.4-.8.1-1.8-.7-2.3l-93.3-51.4c-.8-.4-1.8-.1-2.3.7l-6.6 11.9C1585.3 1967.7 1585.6 1968.7 1586.5 1969.2zM1374 1992.3l-131.3-72.2c-.8-.4-1.1-1.5-.7-2.3l6.6-11.9c.4-.8 1.5-1.1 2.3-.7l131.3 72.2c.8.4 1.1 1.5.7 2.3l-6.6 11.9C1375.8 1992.5 1374.8 1992.8 1374 1992.3zM1488.2 2055.2l93.3 51.4c.8.4 1.8.1 2.3-.7l6.6-11.9c.4-.8.1-1.8-.7-2.3l-93.3-51.4c-.8-.4-1.8-.1-2.3.7l-6.6 11.9C1487.1 2053.8 1487.4 2054.8 1488.2 2055.2z"></path><rect width="390.1" height="10.7" x="1277.6" y="1959.6" fill="#caccce" transform="rotate(28.828 1472.679 1965.052)"></rect><g><path fill="#c9c9c9" d="M1608,1179.6v28.8c13.1-0.2,26.1-3.6,37.9-10.4l366.6-211.5c16-9.2,25.3-51.3,9.4-60.6      c5.5,10.7,2.4,25-9.4,31.8l-366.6,211.5C1634.1,1175.9,1621.1,1179.4,1608,1179.6z"></path><path fill="#eaeaea" d="M1197.9,953.8L1568,1169c24.1,14,53.8,14.1,77.9,0.1l366.6-211.5c11.8-6.8,14.9-21,9.4-31.8      c-2-3.9-5.1-7.3-9.3-9.7l-411.4-239.3l-403.2,232.6c-3.5,2-6.3,4.7-8.4,7.8c0,0,0,0,0,0C1181.6,929,1184.4,946,1197.9,953.8z"></path><path fill="#aeafaf" d="M1197.9,982.5l370.1,215.3c12.3,7.2,26.2,10.7,40,10.5v-28.8c-13.8,0.2-27.6-3.3-40-10.5l-370.1-215.3     c-13.5-7.8-16.3-24.8-8.4-36.5C1172.5,927.2,1180.9,972.7,1197.9,982.5z"></path><polygon fill="#969696" points="1689.6 1050.1 1373.5 869.7 1373.5 724.9 1689.6 874.7"></polygon><polygon fill="#afb2b2" points="1588.7 953.3 1658.8 1003 1667.2 998.4 1667.2 887 1588.7 841.8 1580.3 846.4"></polygon><polygon fill="#fff" points="1580.3 957.8 1658.8 1003 1658.8 891.5 1580.3 846.4"></polygon><polygon fill="#247f78" points="1650.4 981.8 1650.4 988.4 1588.7 953 1588.7 860.9 1595.4 864.7 1595.4 950.1"></polygon><linearGradient id="b" x1="1595.363" x2="1650.361" y1="923.279" y2="923.279" gradientUnits="userSpaceOnUse"><stop offset="0" stop-color="#4c6fbf"></stop><stop offset="1" stop-color="#8ca3d8"></stop></linearGradient><polygon fill="url(#b)" points="1650.4 896.4 1650.4 981.8 1595.4 950.1 1595.4 864.7"></polygon><linearGradient id="c" x1="1588.724" x2="1650.361" y1="969.297" y2="969.297" gradientUnits="userSpaceOnUse"><stop offset="0" stop-color="#4c6fbf"></stop><stop offset="1" stop-color="#525575"></stop></linearGradient><polygon fill="url(#c)" points="1595.4 950.1 1588.7 953 1650.4 988.4 1650.4 981.8"></polygon><polygon fill="#858c8c" points="1667.2 887 1658.8 891.5 1658.8 1003 1667.2 998.4"></polygon><g><polygon fill="#afb2b2" points="1393.9 852.8 1463.9 902.5 1472.3 898 1472.3 786.5 1393.9 741.3 1385.5 745.9"></polygon><polygon fill="#fff" points="1385.5 857.4 1463.9 902.5 1463.9 791.1 1385.5 745.9"></polygon><linearGradient id="d" x1="1393.899" x2="1455.536" y1="824.197" y2="824.197" gradientUnits="userSpaceOnUse"><stop offset="0" stop-color="#4c6fbf"></stop><stop offset="1" stop-color="#525575"></stop></linearGradient><polygon fill="url(#d)" points="1455.5 881.4 1455.5 888 1393.9 852.5 1393.9 760.4 1400.5 764.2 1400.5 849.7"></polygon><linearGradient id="e" x1="1400.539" x2="1455.536" y1="822.796" y2="822.796" gradientUnits="userSpaceOnUse"><stop offset="0" stop-color="#4c6fbf"></stop><stop offset="1" stop-color="#8ca3d8"></stop></linearGradient><polygon fill="url(#e)" points="1455.5 795.9 1455.5 881.4 1400.5 849.7 1400.5 764.2"></polygon><linearGradient id="f" x1="1393.899" x2="1455.536" y1="868.814" y2="868.814" gradientUnits="userSpaceOnUse"><stop offset="0" stop-color="#4c6fbf"></stop><stop offset="1" stop-color="#525575"></stop></linearGradient><polygon fill="url(#f)" points="1400.5 849.7 1393.9 852.5 1455.5 888 1455.5 881.4"></polygon><polygon fill="#858c8c" points="1472.3 786.5 1463.9 791.1 1463.9 902.5 1472.3 898"></polygon></g><polygon fill="#e5e5e5" points="1942.2 904.7 1689.6 1050.1 1689.6 874.7 1942.2 729.3"></polygon><g><ellipse cx="1591.3" cy="1098.2" fill="#edefef" rx="33.5" ry="17.2"></ellipse><path fill="#aeafaf" d="M1557.9,1098.2v6.3c0,9.5,15,17.2,33.5,17.2s33.5-7.7,33.5-17.2v-6.3c0,9.5-15,17.2-33.5,17.2      S1557.9,1107.7,1557.9,1098.2z"></path><ellipse cx="1591.3" cy="1065.5" fill="#edefef" rx="25.1" ry="12.9"></ellipse><path fill="#aeafaf" d="M1566.2,1065.5v29.4c0,7.1,11.2,12.9,25.1,12.9c13.9,0,25.1-5.8,25.1-12.9v-29.4      c0,7.1-11.2,12.9-25.1,12.9C1577.5,1078.4,1566.2,1072.6,1566.2,1065.5z"></path><g><linearGradient id="g" x1="4766.929" x2="4756.468" y1="940.547" y2="921.354" gradientTransform="matrix(-1 0 0 1 6353.045 0)" gradientUnits="userSpaceOnUse"><stop offset="0" stop-color="#cc4b23"></stop><stop offset="1" stop-color="#f25227"></stop></linearGradient><ellipse cx="1591.3" cy="931" fill="url(#g)" stroke="#d1541f" stroke-miterlimit="10" rx="16.6" ry="8.5"></ellipse><path fill="#c0c4c4" d="M1574.7,931v133.2c0,4.7,7.4,8.5,16.6,8.5c9.2,0,16.6-3.8,16.6-8.5V931c0,4.7-7.4,8.5-16.6,8.5      C1582.2,939.5,1574.7,935.7,1574.7,931z"></path></g><g><ellipse cx="1591.3" cy="909.8" fill="#cdd1d1" rx="25.1" ry="12.9"></ellipse><path fill="#aeafaf" d="M1566.2,909.8v29.4c0,7.1,11.2,12.9,25.1,12.9c13.9,0,25.1-5.8,25.1-12.9v-29.4c0,7.1-11.2,12.9-25.1,12.9      C1577.5,922.7,1566.2,916.9,1566.2,909.8z"></path></g></g><g><ellipse cx="1501.8" cy="1045.9" fill="#edefef" rx="33.5" ry="17.2"></ellipse><path fill="#aeafaf" d="M1468.3,1045.9v6.3c0,9.5,15,17.2,33.5,17.2s33.5-7.7,33.5-17.2v-6.3c0,9.5-15,17.2-33.5,17.2      S1468.3,1055.4,1468.3,1045.9z"></path><ellipse cx="1501.8" cy="1013.2" fill="#edefef" rx="25.1" ry="12.9"></ellipse><path fill="#aeafaf" d="M1476.7,1013.2v29.4c0,7.1,11.2,12.9,25.1,12.9c13.9,0,25.1-5.8,25.1-12.9v-29.4      c0,7.1-11.2,12.9-25.1,12.9C1488,1026.1,1476.7,1020.3,1476.7,1013.2z"></path><g><linearGradient id="h" x1="4856.454" x2="4845.993" y1="888.241" y2="869.048" gradientTransform="matrix(-1 0 0 1 6353.045 0)" gradientUnits="userSpaceOnUse"><stop offset="0" stop-color="#cc4b23"></stop><stop offset="1" stop-color="#f25227"></stop></linearGradient><ellipse cx="1501.8" cy="878.6" fill="url(#h)" stroke="#d1541f" stroke-miterlimit="10" rx="16.6" ry="8.5"></ellipse><path fill="#c0c4c4" d="M1485.2,878.6v133.2c0,4.7,7.4,8.5,16.6,8.5c9.2,0,16.6-3.8,16.6-8.5V878.6c0,4.7-7.4,8.5-16.6,8.5      C1492.6,887.2,1485.2,883.4,1485.2,878.6z"></path></g><g><ellipse cx="1501.8" cy="857.5" fill="#cdd1d1" rx="25.1" ry="12.9"></ellipse><path fill="#aeafaf" d="M1476.7,857.5v29.4c0,7.1,11.2,12.9,25.1,12.9c13.9,0,25.1-5.8,25.1-12.9v-29.4c0,7.1-11.2,12.9-25.1,12.9      C1488,870.4,1476.7,864.6,1476.7,857.5z"></path></g></g><g><ellipse cx="1412.3" cy="993.6" fill="#edefef" rx="33.5" ry="17.2"></ellipse><path fill="#aeafaf" d="M1378.8,993.6v6.3c0,9.5,15,17.2,33.5,17.2s33.5-7.7,33.5-17.2v-6.3c0,9.5-15,17.2-33.5,17.2      S1378.8,1003.1,1378.8,993.6z"></path><ellipse cx="1412.3" cy="960.9" fill="#edefef" rx="25.1" ry="12.9"></ellipse><path fill="#aeafaf" d="M1387.2,960.9v29.4c0,7.1,11.2,12.9,25.1,12.9s25.1-5.8,25.1-12.9v-29.4c0,7.1-11.2,12.9-25.1,12.9      C1398.4,973.8,1387.2,968,1387.2,960.9z"></path><g><linearGradient id="i" x1="4945.979" x2="4935.518" y1="835.935" y2="816.742" gradientTransform="matrix(-1 0 0 1 6353.045 0)" gradientUnits="userSpaceOnUse"><stop offset="0" stop-color="#cc4b23"></stop><stop offset="1" stop-color="#f25227"></stop></linearGradient><ellipse cx="1412.3" cy="826.3" fill="url(#i)" stroke="#d1541f" stroke-miterlimit="10" rx="16.6" ry="8.5"></ellipse><path fill="#c0c4c4" d="M1395.7,826.3v133.2c0,4.7,7.4,8.5,16.6,8.5c9.2,0,16.6-3.8,16.6-8.5V826.3c0,4.7-7.4,8.5-16.6,8.5      C1403.1,834.9,1395.7,831.1,1395.7,826.3z"></path></g><g><ellipse cx="1412.3" cy="805.2" fill="#cdd1d1" rx="25.1" ry="12.9"></ellipse><path fill="#aeafaf" d="M1387.2,805.2v29.4c0,7.1,11.2,12.9,25.1,12.9c13.9,0,25.1-5.8,25.1-12.9v-29.4c0,7.1-11.2,12.9-25.1,12.9      C1398.4,818.1,1387.2,812.3,1387.2,805.2z"></path></g></g><g><ellipse cx="1322.8" cy="941.3" fill="#edefef" rx="33.5" ry="17.2"></ellipse><path fill="#aeafaf" d="M1289.3,941.3v6.3c0,9.5,15,17.2,33.5,17.2s33.5-7.7,33.5-17.2v-6.3c0,9.5-15,17.2-33.5,17.2      S1289.3,950.8,1289.3,941.3z"></path><ellipse cx="1322.8" cy="908.6" fill="#edefef" rx="25.1" ry="12.9"></ellipse><path fill="#aeafaf" d="M1297.7,908.6V938c0,7.1,11.2,12.9,25.1,12.9s25.1-5.8,25.1-12.9v-29.4c0,7.1-11.2,12.9-25.1,12.9      S1297.7,915.7,1297.7,908.6z"></path><g><linearGradient id="j" x1="5035.503" x2="5025.042" y1="783.63" y2="764.436" gradientTransform="matrix(-1 0 0 1 6353.045 0)" gradientUnits="userSpaceOnUse"><stop offset="0" stop-color="#cc4b23"></stop><stop offset="1" stop-color="#f25227"></stop></linearGradient><ellipse cx="1322.8" cy="774" fill="url(#j)" stroke="#d1541f" stroke-miterlimit="10" rx="16.6" ry="8.5"></ellipse><path fill="#c0c4c4" d="M1306.2,774v133.2c0,4.7,7.4,8.5,16.6,8.5c9.2,0,16.6-3.8,16.6-8.5V774c0,4.7-7.4,8.5-16.6,8.5      C1313.6,782.6,1306.2,778.7,1306.2,774z"></path></g><g><ellipse cx="1322.8" cy="752.9" fill="#cdd1d1" rx="25.1" ry="12.9"></ellipse><path fill="#aeafaf" d="M1297.7,752.9v29.4c0,7.1,11.2,12.9,25.1,12.9c13.9,0,25.1-5.8,25.1-12.9v-29.4c0,7.1-11.2,12.9-25.1,12.9      C1308.9,765.8,1297.7,760,1297.7,752.9z"></path></g></g><g><linearGradient id="k" x1="1230.32" x2="1775.102" y1="571.318" y2="571.318" gradientUnits="userSpaceOnUse"><stop offset="0" stop-color="#4c6fbf"></stop><stop offset="1" stop-color="#8ca3d8"></stop></linearGradient><polygon fill="url(#k)" points="1408.6 660.4 1230.3 692.4 1596.8 482.3 1775.1 450.2"></polygon><linearGradient id="l" x1="1591.347" x2="1956.371" y1="814.435" y2="814.435" gradientUnits="userSpaceOnUse"><stop offset="0" stop-color="#4c6fbf"></stop><stop offset="1" stop-color="#8ca3d8"></stop></linearGradient><polygon fill="url(#l)" points="1956.4 726.7 1591.3 936.9 1591.3 902.1 1956.4 692"></polygon><linearGradient id="m" x1="1230.32" x2="1591.347" y1="798.606" y2="798.606" gradientUnits="userSpaceOnUse"><stop offset="0" stop-color="#4c6fbf"></stop><stop offset="1" stop-color="#8ca3d8"></stop></linearGradient><polygon fill="url(#m)" points="1230.3 692.4 1408.6 660.4 1591.3 902.1 1591.3 936.9 1230.3 723.6"></polygon><linearGradient id="n" x1="1247.14" x2="1574.044" y1="804.766" y2="804.766" gradientUnits="userSpaceOnUse"><stop offset="0" stop-color="#fff"></stop><stop offset="1" stop-color="#728ece"></stop></linearGradient><polygon fill="url(#n)" points="1247.1 706.5 1247.1 714 1574 907.1 1550.2 875.6 1269.6 709.8 1269.6 702.4"></polygon><linearGradient id="o" x1="1460.557" x2="1383.934" y1="914.676" y2="730.084" gradientUnits="userSpaceOnUse"><stop offset="0" stop-color="#4c6fbf"></stop><stop offset="1" stop-color="#525575"></stop></linearGradient><polygon fill="url(#o)" points="1269.6 702.4 1269.6 709.8 1550.2 875.6 1401.4 678.7"></polygon><linearGradient id="p" x1="4955.769" x2="4381.545" y1="589.758" y2="763.765" gradientTransform="matrix(-1 0 0 1 6353.045 0)" gradientUnits="userSpaceOnUse"><stop offset="0" stop-color="#4c6fbf"></stop><stop offset="1" stop-color="#8ca3d8"></stop></linearGradient><polygon fill="url(#p)" points="1591.3 902.1 1408.6 660.4 1773.6 450.2 1956.4 692"></polygon><linearGradient id="q" x1="4981.332" x2="4407.108" y1="674.116" y2="848.123" gradientTransform="matrix(-1 0 0 1 6353.045 0)" gradientUnits="userSpaceOnUse"><stop offset="0" stop-color="#fff"></stop><stop offset="1" stop-color="#728ece"></stop></linearGradient><polygon fill="url(#q)" points="1412.2 658.3 1592.8 897.2 1954.2 689.2 1956.4 692 1591.3 902.1 1408.6 660.4"></polygon></g><g><polygon fill="#afb2b2" points="1862.9 907.3 1792.9 957 1784.5 952.5 1784.5 841 1862.9 795.9 1871.3 800.4"></polygon><polygon fill="#fff" points="1871.3 911.9 1792.9 957 1792.9 845.6 1871.3 800.4"></polygon><linearGradient id="r" x1="1801.263" x2="1862.901" y1="878.703" y2="878.703" gradientUnits="userSpaceOnUse"><stop offset="0" stop-color="#4c6fbf"></stop><stop offset="1" stop-color="#525575"></stop></linearGradient><polygon fill="url(#r)" points="1801.3 935.9 1801.3 942.5 1862.9 907 1862.9 814.9 1856.3 818.7 1856.3 904.2"></polygon><linearGradient id="s" x1="1801.263" x2="1856.261" y1="877.302" y2="877.302" gradientUnits="userSpaceOnUse"><stop offset="0" stop-color="#4c6fbf"></stop><stop offset="1" stop-color="#8ca3d8"></stop></linearGradient><polygon fill="url(#s)" points="1801.3 850.4 1801.3 935.9 1856.3 904.2 1856.3 818.7"></polygon><linearGradient id="t" x1="1801.263" x2="1862.901" y1="923.32" y2="923.32" gradientUnits="userSpaceOnUse"><stop offset="0" stop-color="#4c6fbf"></stop><stop offset="1" stop-color="#525575"></stop></linearGradient><polygon fill="url(#t)" points="1856.3 904.2 1862.9 907 1801.3 942.5 1801.3 935.9"></polygon><polygon fill="#858c8c" points="1784.5 841 1792.9 845.6 1792.9 957 1784.5 952.5"></polygon></g></g><g><polygon fill="#686b71" points="1497.6 1646.9 1560.8 1610.2 1572.5 1573.7 1509.4 1610.4"></polygon><polygon fill="#e0e0e0" points="1370.5 1369.5 1433.6 1332.7 1396 1324.4 1332.9 1361.2"></polygon><path fill="#6c6f76" d="M1424.9,1450.9c-0.1-0.7-0.2-1.5-0.3-2.2c0-0.3-0.1-0.7-0.2-1c0-0.1,0-0.2,0-0.3c-0.2-1.6-0.3-3.1-0.5-4.6    c0-0.3,0-0.7-0.1-1c-0.1-1.6-0.2-3.2-0.1-4.7c0-17.1,6.1-29.1,15.8-34.7l63.1-36.7c-9.7,5.6-15.7,17.7-15.8,34.7    c0,1.6,0.1,3.1,0.2,4.7c0,0.3,0,0.7,0.1,1c0.1,1.5,0.3,3.1,0.5,4.6c0.1,0.4,0.1,0.9,0.2,1.3c0.1,0.7,0.2,1.5,0.3,2.2    c0.1,0.5,0.2,1,0.3,1.5c0.1,0.7,0.3,1.4,0.4,2.1c0.1,0.6,0.2,1.1,0.4,1.7c0.1,0.5,0.2,0.9,0.3,1.4c0.1,0.6,0.3,1.2,0.5,1.9    c0.1,0.5,0.2,0.9,0.4,1.4c0.1,0.4,0.2,0.7,0.3,1.1c0.4,1.6,0.9,3.1,1.4,4.7c0,0.1,0.1,0.2,0.1,0.4c0.5,1.5,1,3,1.6,4.5    c0.1,0.4,0.3,0.8,0.4,1.1c0.5,1.3,1,2.5,1.6,3.8c0.1,0.2,0.2,0.4,0.2,0.6c0.6,1.4,1.2,2.8,1.9,4.2c0.2,0.4,0.4,0.7,0.5,1.1    c0.5,1.1,1.1,2.2,1.6,3.3c0.2,0.3,0.3,0.7,0.5,1c0.7,1.4,1.5,2.7,2.2,4c0.1,0.3,0.3,0.5,0.4,0.8c0.7,1.2,1.4,2.3,2.1,3.4    c0.2,0.3,0.4,0.7,0.6,1c0.9,1.4,1.8,2.7,2.7,4.1c0.1,0.2,0.3,0.4,0.4,0.6c1,1.4,2,2.7,3,4.1c0.1,0.2,0.3,0.4,0.4,0.5    c1.3,1.7,2.6,3.3,4,4.9c0.2,0.2,0.4,0.4,0.5,0.6c0.8,1,1.7,1.9,2.5,2.8c0,0,0.1,0.1,0.1,0.1c0.9,1,1.8,1.9,2.8,2.8    c0.6,0.6,1.2,1.2,1.8,1.7c0.2,0.2,0.3,0.3,0.5,0.5c0.8,0.7,1.6,1.5,2.4,2.2c0.2,0.2,0.4,0.4,0.7,0.6c0.6,0.5,1.2,1,1.8,1.5    c0.3,0.2,0.6,0.5,0.9,0.7c0.5,0.4,1.1,0.8,1.6,1.3c0.3,0.2,0.6,0.5,1,0.7c0.5,0.4,1.1,0.8,1.6,1.2c0.3,0.2,0.6,0.5,1,0.7    c0.6,0.4,1.2,0.8,1.7,1.2c0.3,0.2,0.5,0.4,0.8,0.5c0.9,0.5,1.7,1.1,2.6,1.6c1.2,0.7,2.3,1.3,3.4,1.8c0.3,0.2,0.7,0.3,1,0.5    c0.9,0.4,1.7,0.8,2.6,1.2c0.3,0.1,0.6,0.3,0.9,0.4c0.8,0.3,1.6,0.6,2.4,0.9c0.2,0.1,0.4,0.2,0.6,0.2c1,0.3,2,0.6,2.9,0.9    c0.6,0.2,1.1,0.3,1.7,0.4c0.3,0.1,0.5,0.1,0.8,0.2c0.8,0.2,1.6,0.3,2.4,0.5c0,0,0.1,0,0.1,0c0.7,0.1,1.5,0.2,2.2,0.3    c0.2,0,0.5,0,0.7,0.1c0.4,0,0.9,0.1,1.3,0.1c1.1,0,2.1,0,3.1,0c0.2,0,0.3,0,0.5,0c0.8-0.1,1.6-0.2,2.4-0.3c0.2,0,0.5-0.1,0.7-0.1    c0.9-0.2,1.8-0.4,2.7-0.6c0,0,0.1,0,0.1,0c0.8-0.2,1.6-0.5,2.4-0.9c0.2-0.1,0.5-0.2,0.7-0.3c0.7-0.3,1.3-0.6,2-1    c0.2-0.1,0.4-0.2,0.6-0.3l-63.1,36.7c-0.1,0.1-0.2,0.1-0.3,0.2c-0.1,0.1-0.2,0.1-0.4,0.2c-0.6,0.4-1.3,0.7-2,1    c-0.1,0.1-0.2,0.1-0.4,0.2c-0.1,0-0.2,0.1-0.3,0.1c-0.8,0.3-1.6,0.6-2.4,0.9c0,0-0.1,0-0.1,0c0,0,0,0,0,0    c-0.9,0.3-1.8,0.5-2.7,0.6c-0.1,0-0.2,0.1-0.3,0.1c-0.1,0-0.3,0-0.4,0.1c-0.8,0.1-1.6,0.2-2.4,0.3c-0.1,0-0.3,0-0.4,0    c0,0-0.1,0-0.1,0c-1,0.1-2.1,0.1-3.1,0c-0.1,0-0.2,0-0.3,0c-0.3,0-0.7,0-1-0.1c-0.2,0-0.5,0-0.7-0.1c-0.7-0.1-1.4-0.2-2.2-0.3    c0,0-0.1,0-0.1,0l0,0c-0.8-0.1-1.6-0.3-2.4-0.5c-0.3-0.1-0.5-0.1-0.8-0.2c-0.5-0.1-1-0.2-1.5-0.4c0,0-0.1,0-0.1,0    c-1-0.3-1.9-0.6-2.9-0.9c-0.2-0.1-0.4-0.1-0.6-0.2c-0.8-0.3-1.6-0.6-2.4-0.9c-0.1,0-0.2-0.1-0.3-0.1c-0.2-0.1-0.4-0.2-0.6-0.3    c-0.9-0.4-1.7-0.8-2.6-1.2c-0.3-0.2-0.6-0.3-1-0.5c-1.1-0.6-2.3-1.2-3.4-1.8c-0.9-0.5-1.7-1-2.6-1.6c-0.3-0.2-0.6-0.4-0.8-0.5    c-0.6-0.4-1.2-0.8-1.7-1.2c-0.3-0.2-0.6-0.4-1-0.7c-0.5-0.4-1.1-0.8-1.6-1.2c-0.3-0.2-0.6-0.5-1-0.7c-0.5-0.4-1.1-0.8-1.6-1.2    c-0.3-0.2-0.6-0.5-0.9-0.7c-0.6-0.5-1.2-1-1.8-1.5c-0.2-0.2-0.4-0.4-0.6-0.6c-0.8-0.7-1.6-1.4-2.4-2.2c-0.2-0.2-0.3-0.3-0.5-0.5    c-0.5-0.5-1-1-1.5-1.5c-0.1-0.1-0.1-0.2-0.2-0.2c-0.9-0.9-1.9-1.9-2.8-2.8c0,0-0.1-0.1-0.1-0.1c-0.9-0.9-1.7-1.9-2.6-2.9    c-0.1-0.1-0.2-0.2-0.2-0.3c-0.1-0.1-0.2-0.2-0.3-0.4c-1.4-1.6-2.7-3.2-4-4.9c0,0-0.1-0.1-0.1-0.1c-0.1-0.1-0.2-0.3-0.3-0.4    c-1-1.3-2-2.7-3-4.1c-0.1-0.1-0.2-0.3-0.3-0.4c0-0.1-0.1-0.1-0.1-0.2c-0.9-1.3-1.8-2.7-2.7-4.1c-0.1-0.1-0.2-0.3-0.3-0.4    c-0.1-0.2-0.2-0.4-0.4-0.6c-0.7-1.1-1.4-2.3-2.1-3.4c-0.1-0.2-0.2-0.4-0.3-0.5c0-0.1-0.1-0.1-0.1-0.2c-0.8-1.3-1.5-2.7-2.2-4    c-0.1-0.1-0.1-0.2-0.2-0.3c-0.1-0.2-0.2-0.5-0.3-0.7c-0.6-1.1-1.1-2.2-1.6-3.3c-0.1-0.2-0.2-0.4-0.3-0.7c-0.1-0.1-0.1-0.3-0.2-0.4    c-0.7-1.4-1.3-2.8-1.9-4.2c0,0,0-0.1-0.1-0.1c-0.1-0.2-0.1-0.3-0.2-0.5c-0.5-1.3-1.1-2.5-1.5-3.8c-0.1-0.2-0.2-0.4-0.3-0.6    c-0.1-0.2-0.1-0.3-0.2-0.5c-0.6-1.5-1.1-3-1.6-4.5c0,0,0-0.1,0-0.1c0-0.1-0.1-0.2-0.1-0.3c-0.5-1.6-1-3.1-1.4-4.7    c-0.1-0.2-0.1-0.4-0.2-0.6c0-0.2-0.1-0.4-0.1-0.5c-0.1-0.5-0.2-0.9-0.4-1.4c-0.2-0.6-0.3-1.2-0.5-1.9c-0.1-0.5-0.2-0.9-0.3-1.4    c-0.1-0.3-0.2-0.7-0.2-1c0-0.2-0.1-0.5-0.1-0.7c-0.1-0.7-0.3-1.4-0.4-2.1C1425.1,1451.9,1425,1451.4,1424.9,1450.9z"></path><defs><path id="u" d="M1581.7,1648l63.1-36.7c2-1.2,3.9-2.6,5.7-4.2l-63.1,36.7      C1585.6,1645.5,1583.8,1646.9,1581.7,1648z" enable-background="new"></path></defs><clipPath id="v"><use overflow="visible" xlink:href="#u"></use></clipPath><g clip-path="url(#v)"><path fill="#6c6f76" d="M1581.7,1648l63.1-36.7c2-1.2,3.9-2.6,5.7-4.2l-63.1,36.7C1585.6,1645.5,1583.8,1646.9,1581.7,1648"></path></g><defs><path id="w" d="M1437.1,1251.9l-63.1,36.7c2.2-1.3,4.5-2.3,6.9-3l63.1-36.7      C1441.5,1249.6,1439.2,1250.6,1437.1,1251.9z" enable-background="new"></path></defs><clipPath id="x"><use overflow="visible" xlink:href="#w"></use></clipPath><g clip-path="url(#x)"><path fill="#898d95" d="M1380.9,1285.6l63.1-36.7c-1.1,0.3-2.2,0.7-3.3,1.2l-63.1,36.7C1378.7,1286.4,1379.8,1286,1380.9,1285.6"></path><path fill="#858891" d="M1377.6,1286.8l63.1-36.7c-1.1,0.5-2.3,1-3.3,1.6l-63.1,36.7C1375.4,1287.8,1376.5,1287.3,1377.6,1286.8"></path><path fill="#81848c" d="M1374.3,1288.4l63.1-36.7c-0.1,0.1-0.2,0.1-0.4,0.2l-63.1,36.7C1374,1288.6,1374.2,1288.5,1374.3,1288.4"></path></g><polygon fill="#686b71" points="1587.4 1643.8 1650.5 1607.1 1657.5 1600.6 1594.4 1637.4"></polygon><polygon fill="#8e919a" points="1390 1282.9 1453.2 1246.1 1444 1248.9 1380.9 1285.6"></polygon><polygon fill="#e0e0e0" points="1594.4 1637.4 1657.5 1600.6 1639.3 1550 1576.2 1586.8"></polygon><polygon fill="#e0e0e0" points="1424.8 1324.1 1487.9 1287.3 1453.2 1246.1 1390 1282.9"></polygon><defs><path id="y" d="M1576.2,1586.8l63.1-36.7c3.7-5.7,6.7-12.2,9-19.6l-63.1,36.7      C1582.9,1574.6,1579.9,1581.1,1576.2,1586.8z" enable-background="new"></path></defs><clipPath id="z"><use overflow="visible" xlink:href="#y"></use></clipPath><g clip-path="url(#z)"><path fill="#6c6f76" d="M1576.2,1586.8l63.1-36.7c3.7-5.7,6.7-12.2,9-19.6l-63.1,36.7C1582.9,1574.6,1579.9,1581.1,1576.2,1586.8"></path></g><path fill="#9699a3" d="M1440.2,1325c-1.6-0.3-3.2-0.5-4.7-0.6c-0.1,0-0.2,0-0.3,0c-1.7-0.2-3.3-0.3-4.9-0.3c-0.3,0-0.6,0-0.9,0    c-1.6,0-3.1,0-4.6,0l63.1-36.7c1.5-0.1,3.1-0.1,4.6,0c0.3,0,0.6,0,0.9,0c0.2,0,0.5,0,0.7,0c1.4,0.1,2.8,0.2,4.2,0.3    c0.1,0,0.2,0,0.3,0c1.3,0.1,2.5,0.3,3.8,0.5c0.3,0,0.6,0.1,0.9,0.2c0.3,0.1,0.7,0.1,1,0.2c1.6,0.3,3.3,0.6,5,1l-63.1,36.7    c-1.7-0.4-3.3-0.7-5-1C1440.9,1325.2,1440.6,1325.1,1440.2,1325z"></path><path fill="#7d8088" d="M1583.2,1485c-0.4-1.6-0.9-3.3-1.4-4.9c-0.2-0.7-0.4-1.4-0.6-2.1c-0.6-2-1.3-4.1-1.9-6.1    c-0.1-0.2-0.1-0.4-0.2-0.6c-0.8-2.5-1.7-4.9-2.6-7.4l63.1-36.7c0.9,2.4,1.7,4.8,2.5,7.2c0,0,0,0.1,0,0.1c0.1,0.2,0.1,0.4,0.2,0.6    c0.7,2.1,1.3,4.1,1.9,6.2c0.2,0.7,0.4,1.4,0.6,2.1c0.2,0.8,0.5,1.6,0.7,2.4c0.2,0.8,0.4,1.7,0.7,2.5c0.2,0.7,0.4,1.3,0.5,2    c0.6,2.2,1.1,4.5,1.6,6.7l-63.1,36.7c-0.5-2.2-1-4.5-1.6-6.7C1583.6,1486.3,1583.4,1485.6,1583.2,1485z"></path><path fill="#a6aab5" d="M1523.6,1376.8c-0.7-0.7-1.3-1.5-2-2.2c-1.6-1.7-3.2-3.3-4.8-5c-0.3-0.3-0.7-0.7-1-1    c-1.9-1.8-3.8-3.7-5.7-5.4l63.1-36.7c1.9,1.8,3.8,3.6,5.7,5.4c0,0,0.1,0.1,0.1,0.1c0.3,0.3,0.6,0.6,0.9,0.9c1.6,1.6,3.2,3.3,4.8,5    c0.7,0.7,1.3,1.5,2,2.2c1.2,1.4,2.5,2.7,3.7,4.1c0.2,0.3,0.5,0.5,0.7,0.8c1.2,1.4,2.4,2.7,3.5,4.1l-63.1,36.7    c-1.4-1.7-2.8-3.3-4.3-5C1526.1,1379.5,1524.9,1378.1,1523.6,1376.8z"></path><polygon fill="#e0e0e0" points="1622.9 1528.8 1686 1492.1 1648.5 1457 1585.4 1493.7"></polygon><path fill="#767880" d="M1624.3,1563.3c0.8-6.3,0.8-13.2,0.1-20.4l-1.5-14l63.1-36.7l1.5,14c0.8,7.2,0.8,14.1-0.1,20.4l-1.6,12.2    l-63.1,36.7L1624.3,1563.3z"></path><path fill="#e0e0e0" d="M1521.2,1253l11.4,4.8c3,1.3,5.9,2.7,8.9,4.5c3,1.7,5.9,3.7,8.9,5.8l11.4,8.3l-63.1,36.7l-11.4-8.3    c-2.9-2.2-5.9-4.1-8.9-5.8c-3-1.7-5.9-3.2-8.9-4.5l-11.4-4.8L1521.2,1253z"></path><g><polygon fill="#7f828a" points="1510.1 1363.1 1573.2 1326.4 1561.7 1276.5 1498.6 1313.2"></polygon></g><g><polygon fill="#686b71" points="1576.6 1463.9 1639.7 1427.1 1658.1 1397.7 1595 1434.4"></polygon></g><g><polygon fill="#9ea1ab" points="1566.4 1384.8 1629.5 1348.1 1594.7 1349.1 1531.6 1385.8"></polygon></g><path fill="#e0e0e0" d="M1583.7,1411.6c-0.6-1-1.1-2.1-1.7-3.1c-0.4-0.8-0.9-1.5-1.4-2.3c-0.6-1.1-1.3-2.2-2-3.2    c-1-1.6-2.1-3.2-3.1-4.8l-9.1-13.3l63.1-36.7l9.1,13.3c1,1.4,1.9,2.9,2.9,4.3c0.1,0.1,0.2,0.3,0.3,0.4c0.7,1.1,1.3,2.1,2,3.2    c0.4,0.7,0.8,1.3,1.2,2c0.1,0.1,0.1,0.2,0.2,0.3c0.6,1,1.2,2.1,1.7,3.1c0.4,0.7,0.8,1.4,1.2,2.2c0,0.1,0.1,0.2,0.1,0.3    c0.6,1.1,1.1,2.2,1.7,3.3c0.4,0.7,0.8,1.5,1.1,2.2c0.1,0.1,0.1,0.3,0.2,0.4l7,14.5l-63.1,36.7l-7-14.5c-0.4-0.9-0.9-1.7-1.3-2.6    c-0.5-1.1-1.1-2.2-1.7-3.3C1584.6,1413.2,1584.2,1412.4,1583.7,1411.6z"></path><g><linearGradient id="A" x1="1330.734" x2="1624.936" y1="1468.332" y2="1468.332" gradientUnits="userSpaceOnUse"><stop offset="0" stop-color="#e0e2e2"></stop><stop offset="1" stop-color="#fbfbfb"></stop></linearGradient><path fill="url(#A)" d="M1332.9,1361.2l37.6,8.3c2.3-7.4,5.3-13.9,9-19.6l-18.2-50.6l7-6.5c3.6-3.4,7.9-5.8,12.6-7.2l9.1-2.8     l34.7,41.2c6.8-0.3,14,0.4,21.5,2.2l11.8-36.5l11.4,4.8c3,1.3,5.9,2.7,8.9,4.5c3,1.7,5.9,3.7,8.9,5.8l11.4,8.3l11.5,49.9     c7.5,6.9,14.7,14.5,21.5,22.7l34.8-1l9.1,13.3c4.7,6.9,8.9,14.2,12.5,21.7l7,14.5l-18.4,29.4c3.6,9.9,6.6,19.9,8.8,29.8     l37.5,35.1l1.5,14c0.8,7.2,0.8,14.1-0.1,20.4l-1.6,12.2l-37.6-8.3c-2.3,7.4-5.3,13.9-9,19.6l18.2,50.6l-7,6.5     c-3.6,3.3-7.9,5.8-12.6,7.2l-9.2,2.8l-34.7-41.2c-6.8,0.3-14-0.4-21.5-2.2l-11.8,36.5l-11.4-4.8c-2.9-1.2-5.9-2.7-8.9-4.5     c-3-1.7-5.9-3.7-8.9-5.8l-11.4-8.3l-11.5-49.9c-7.5-6.9-14.7-14.5-21.4-22.6l-34.9,1l-9.1-13.3c-4.7-6.9-8.9-14.2-12.5-21.7     l-7-14.6l18.4-29.4c-3.7-9.9-6.6-19.9-8.8-29.9l-37.5-35.1l-1.5-14c-0.8-7.2-0.8-14.1,0.1-20.4L1332.9,1361.2z M1477.7,1530.5     c29.9,17.3,54.1,3.4,54.2-31c0.1-34.4-24-76.2-53.9-93.5c-29.9-17.3-54.1-3.4-54.2,31C1423.7,1471.4,1447.8,1513.3,1477.7,1530.5     "></path></g></g><g><linearGradient id="B" x1="382.804" x2="924.615" y1="2063.665" y2="2063.665" gradientTransform="rotate(-4.686 -4341.976 -5010.87)" gradientUnits="userSpaceOnUse"><stop offset="0" stop-color="#ffd0b0"></stop><stop offset="1" stop-color="#e59b68"></stop></linearGradient><path fill="url(#B)" d="M1471.7,1451c0,0.5-0.1,1-0.2,1.5c-1.5,9.3-9.9,20.5-34.6,31.2c-16.1,6.9-42.7,16.8-56.1,22.4     c-34.5,14.5-53.7,33.8-53.7,33.8s31.9-4.3,39,23.7c7.1,28-5,35.4-5,35.4s17.8,7.7,20.4,33.9c1.7,17.1-11.7,28.6-11.7,28.6     s34.9,14.4,16.6,50.1c-14.4,28.2-117.7,114.1-218.2,118c-40,1.6-96.2,44.7-96.2,44.7l-121.8-156.4c0,0,64.4-78.6,88.5-133.5     c24-55,46.3-96.4,69.9-114.6c23.5-18.2,135.8-70.8,135.8-70.8s11.1,6.7,13.1,18.6c0,0,0,0,0,0c2.1,12.3-5.7,30.3-46,52.3     c-43.6,23.7-35.7,59.4-35.7,59.4l2.6-1.2l0,0l141.9-67l142.9-30C1463.3,1430.9,1472.8,1439.3,1471.7,1451z"></path><linearGradient id="C" x1="1338.532" x2="1387.893" y1="1521.086" y2="1521.086" gradientTransform="matrix(.9999 -.0125 .0126 1 59.857 -57.783)" gradientUnits="userSpaceOnUse"><stop offset="0" stop-color="#ffd0b0"></stop><stop offset=".99" stop-color="#e0e0e0"></stop></linearGradient><path fill="url(#C)" d="M1417.4,1444.9c0,0,6.2,4.5,8,11c1.9,6.5,27.5,1.2,35.7-4c8.2-5.2,5.5-15.9,2.7-18     C1461.2,1431.7,1416.2,1440.9,1417.4,1444.9z"></path><linearGradient id="D" x1="50.356" x2="107.049" y1="2257.454" y2="2257.454" gradientTransform="matrix(.9861 -.1662 .1661 .986 775.404 -792.544)" gradientUnits="userSpaceOnUse"><stop offset="0" stop-color="#ffd0b0"></stop><stop offset=".99" stop-color="#e0e0e0"></stop></linearGradient><path fill="url(#D)" d="M1199.7,1423.1c0,0,9.6,16.6,16.8,16.9c7.1,0.2,41.5-17.6,39.4-24.7c-2.1-7.1-3.7-14.9-10.7-15.6     S1199.7,1423.1,1199.7,1423.1z"></path><path fill="#cc8f66" d="M1471.5 1452.4c-1.5 9.3-9.9 20.5-34.6 31.2-16.1 6.9-42.7 16.8-56.1 22.4-34.5 14.5-53.7 33.8-53.7 33.8l-23.3 4.4c0 0 46.9-35.6 52.2-38.7 5.3-3.1 9-10.6 8-19-1-7.9-5.9-14-6.4-14.8.6.3 10.4 6.5 13.2 12.9 2.8 6.6 1.5 9.7 4.6 12.4 3.2 2.7 32.1-8.8 57-19.7C1452 1468.8 1466.3 1457 1471.5 1452.4zM1211.5 1469.9c-43.6 23.7-35.7 59.4-35.7 59.4l2.6-1.2-53.3 39.8c1.3-1.4 20.8-23.8 26.9-34.7 6.2-11.2 16.8-37.5 13.6-46.4-3.1-8.9-22.3-20.4-22.3-20.4s3.6-.3 13 3.7c9.5 4 16.1 12.6 21.1 9.9 4.9-2.7 28.4-16.3 46.7-25.4 17.8-8.8 32.7-35.6 33.4-37C1259.6 1429.9 1251.8 1447.9 1211.5 1469.9z" opacity=".44"></path><g><linearGradient id="E" x1="770.836" x2="916.006" y1="1856.202" y2="1856.202" gradientUnits="userSpaceOnUse"><stop offset="0" stop-color="#4c6fbf"></stop><stop offset="1" stop-color="#525575"></stop></linearGradient><polygon fill="url(#E)" points="770.8 1709.2 770.8 1935.2 885.4 2003.2 916 1737.3"></polygon><linearGradient id="F" x1="916.006" x2="1083.062" y1="1781.525" y2="1781.525" gradientUnits="userSpaceOnUse"><stop offset="0" stop-color="#e0e2e2"></stop><stop offset="1" stop-color="#fbfbfb"></stop></linearGradient><path fill="url(#F)" d="M916,1674.2c0,0,59.8-30.7,73.7-28.1c9,1.7,45.3,26.6,69.9,44c14.7,10.4,23.5,27.4,23.5,45.4v144.3     l-83.5,37.2L916,1674.2z"></path><linearGradient id="G" x1="770.836" x2="1006.464" y1="1828.955" y2="1828.955" gradientUnits="userSpaceOnUse"><stop offset="0" stop-color="#4c6fbf"></stop><stop offset="1" stop-color="#8ca3d8"></stop></linearGradient><path fill="url(#G)" d="M888.7,1654.7l87.1,58.6c19.2,12.9,30.7,34.5,30.7,57.7v172.3l-121.1,59.8v-209.4     c0-11.7-6.3-22.6-16.5-28.4l-98.1-56.2L888.7,1654.7z"></path><path fill="#aeafaf" d="M940.1,1937.8c0,0.2,0,0.5,0,0.7c0,0.6,0.1,1.1,0.2,1.6c0,0.1,0,0.2,0,0.3c0.1,0.6,0.3,1.2,0.5,1.8      c0.1,0.2,0.1,0.3,0.2,0.5c0.1,0.4,0.3,0.8,0.5,1.2c0.1,0.2,0.2,0.4,0.3,0.5c0.2,0.3,0.4,0.6,0.6,0.9c0.1,0.2,0.2,0.3,0.4,0.5      c0.2,0.3,0.5,0.6,0.8,0.8c0.1,0.1,0.2,0.2,0.4,0.4c0.4,0.3,0.8,0.7,1.3,0.9l7.2,4.2c-0.5-0.3-0.9-0.6-1.3-0.9      c-0.1-0.1-0.2-0.2-0.4-0.4c-0.3-0.3-0.5-0.5-0.8-0.8c-0.1-0.2-0.2-0.3-0.4-0.5c-0.2-0.3-0.4-0.6-0.6-0.9      c-0.1-0.2-0.2-0.4-0.3-0.5c-0.2-0.4-0.3-0.8-0.5-1.2c-0.1-0.2-0.1-0.3-0.2-0.5c-0.2-0.6-0.3-1.2-0.5-1.8c0-0.1,0-0.2,0-0.3      c-0.1-0.5-0.2-1.1-0.2-1.6c0-0.2,0-0.5,0-0.7c0-0.5,0-0.9,0-1.4c0-0.3,0-0.5,0-0.8c0-0.5,0.1-1,0.1-1.5c0-0.3,0.1-0.5,0.1-0.8      c0.1-0.5,0.2-1,0.3-1.6c0-0.2,0.1-0.5,0.1-0.7c0.1-0.3,0.1-0.5,0.2-0.8c0.1-0.4,0.2-0.8,0.3-1.3c0.1-0.2,0.1-0.4,0.2-0.6      c0.1-0.5,0.3-0.9,0.5-1.4c0.1-0.2,0.1-0.4,0.2-0.6c0.2-0.6,0.4-1.1,0.7-1.7c0-0.1,0.1-0.2,0.1-0.2c0.3-0.6,0.6-1.3,0.9-1.9      c0.1-0.2,0.2-0.3,0.2-0.5c0.3-0.6,0.7-1.3,1-1.9c0.4-0.7,0.8-1.3,1.2-1.9c0.1-0.2,0.2-0.3,0.3-0.5c0.3-0.4,0.6-0.9,0.9-1.3      c0.1-0.2,0.3-0.4,0.4-0.6c0.3-0.4,0.6-0.7,0.8-1.1c0.2-0.2,0.4-0.5,0.6-0.7c0.2-0.2,0.4-0.4,0.6-0.6c0.4-0.4,0.8-0.9,1.2-1.3      c0.2-0.2,0.3-0.3,0.5-0.5c0.8-0.8,1.7-1.5,2.5-2.2c0.1-0.1,0.2-0.2,0.3-0.3c0.9-0.7,1.8-1.3,2.7-1.8c0.7-0.4,1.4-0.8,2.2-1.1      c0.2-0.1,0.4-0.2,0.6-0.3c0.4-0.2,0.8-0.3,1.3-0.4c0.2-0.1,0.4-0.1,0.6-0.2c0.2-0.1,0.5-0.1,0.7-0.1c0.3-0.1,0.6-0.1,0.9-0.2      c0.2,0,0.3,0,0.5-0.1c0.3,0,0.7,0,1,0c0.1,0,0.3,0,0.4,0c0.4,0,0.9,0.1,1.3,0.1c0,0,0.1,0,0.1,0c0.4,0.1,0.8,0.2,1.1,0.3      c0.1,0,0.2,0.1,0.3,0.1c0.4,0.2,0.8,0.3,1.2,0.5l-7.2-4.2c0,0,0,0,0,0c-0.3-0.2-0.6-0.3-0.9-0.4c-0.1,0-0.2-0.1-0.3-0.1      c-0.1,0-0.2-0.1-0.3-0.1c-0.1,0-0.2-0.1-0.3-0.1c-0.3-0.1-0.5-0.1-0.8-0.2c0,0-0.1,0-0.1,0c0,0,0,0,0,0c-0.3-0.1-0.7-0.1-1-0.1      c-0.1,0-0.2,0-0.2,0c-0.1,0-0.3,0-0.4,0c-0.2,0-0.3,0-0.5,0c-0.2,0-0.3,0-0.5,0c-0.2,0-0.3,0-0.5,0.1c-0.1,0-0.2,0-0.3,0      c-0.2,0-0.4,0.1-0.6,0.1c-0.2,0-0.5,0.1-0.7,0.2c-0.1,0-0.1,0-0.2,0c-0.1,0-0.3,0.1-0.4,0.1c-0.4,0.1-0.8,0.3-1.3,0.4      c-0.1,0-0.2,0.1-0.3,0.1c-0.1,0-0.2,0.1-0.3,0.1c-0.7,0.3-1.4,0.7-2.2,1.1c-0.9,0.5-1.8,1.1-2.7,1.8c-0.1,0.1-0.2,0.2-0.3,0.3      c-0.8,0.7-1.7,1.4-2.5,2.2c-0.1,0.1-0.2,0.1-0.2,0.2c-0.1,0.1-0.2,0.2-0.3,0.3c-0.4,0.4-0.8,0.8-1.2,1.3      c-0.1,0.2-0.3,0.3-0.4,0.4c-0.1,0.1-0.1,0.1-0.2,0.2c-0.2,0.2-0.4,0.5-0.6,0.7c-0.2,0.2-0.4,0.5-0.6,0.7      c-0.1,0.1-0.2,0.2-0.2,0.3c-0.2,0.2-0.3,0.4-0.4,0.6c-0.1,0.2-0.3,0.4-0.4,0.6c-0.2,0.2-0.3,0.5-0.5,0.7      c-0.1,0.2-0.2,0.3-0.3,0.5c-0.1,0.1-0.1,0.2-0.2,0.3c-0.3,0.5-0.6,1-0.9,1.5c0,0.1-0.1,0.1-0.1,0.2c-0.2,0.4-0.5,0.9-0.7,1.3      c-0.1,0.2-0.2,0.4-0.3,0.6c-0.1,0.2-0.2,0.3-0.2,0.5c-0.1,0.1-0.1,0.2-0.2,0.4c-0.2,0.5-0.5,1-0.7,1.5c0,0,0,0,0,0.1      c0,0.1-0.1,0.2-0.1,0.2c-0.2,0.4-0.3,0.8-0.5,1.2c-0.1,0.2-0.1,0.3-0.2,0.5c-0.1,0.2-0.1,0.4-0.2,0.6c-0.1,0.2-0.1,0.4-0.2,0.5      c-0.1,0.3-0.2,0.6-0.3,0.9c-0.1,0.2-0.1,0.4-0.2,0.6c0,0.1-0.1,0.2-0.1,0.2c-0.1,0.3-0.2,0.7-0.2,1c-0.1,0.3-0.1,0.5-0.2,0.8      c0,0,0,0.1,0,0.1c0,0.2-0.1,0.4-0.1,0.6c-0.1,0.5-0.2,1.1-0.3,1.6c0,0.1,0,0.2,0,0.3c0,0.2,0,0.3,0,0.5c-0.1,0.5-0.1,1-0.1,1.5      c0,0.3,0,0.5,0,0.8C940.1,1936.9,940.1,1937.3,940.1,1937.8z"></path><path fill="#e5e5e5" d="M952.2,1952.2c3.4,1.9,7.8,1.3,12.2-1.2c4.4-2.5,8.8-7,12.1-12.8c6.7-11.6,6.7-24.1-0.1-27.9      c-3.4-1.9-7.8-1.3-12.2,1.2c-4.4,2.5-8.8,7-12.1,12.8C945.5,1935.9,945.5,1948.4,952.2,1952.2z"></path></g></g><g><linearGradient id="H" x1="-2466.384" x2="-2117.956" y1="882.193" y2="882.193" gradientTransform="translate(4469.257)" gradientUnits="userSpaceOnUse"><stop offset="0" stop-color="#4c6fbf"></stop><stop offset="1" stop-color="#8ca3d8"></stop></linearGradient><path fill="url(#H)" d="M2076.4,623.3l247.1,144.9c17.3,10.1,27.9,28.6,27.9,48.6l0,280.5c0,31.1-50.1,56.2-67.3,46.1l-219.7-169.5    c-17.5-10.3-28.3-29.1-28.3-49.4L2002.9,652C2002.9,631.2,2051.1,608.9,2076.4,623.3z"></path><linearGradient id="I" x1="5991.498" x2="6306.849" y1="891.97" y2="891.97" gradientTransform="matrix(-1 0 0 1 8305.092 0)" gradientUnits="userSpaceOnUse"><stop offset="0" stop-color="#4c6fbf"></stop><stop offset="1" stop-color="#8ca3d8"></stop></linearGradient><path fill="url(#I)" d="M2038.6,643.9l247.1,144.9c17.3,10.1,27.9,28.6,27.9,48.6l0,280.5c0,19.9-21.6,32.3-38.8,22.2l-248.3-145.6    c-17.5-10.3-28.3-29.1-28.3-49.4l0-278.1C1998.2,646.3,2020.8,633.4,2038.6,643.9z"></path><path fill="#fff" d="M2252.8,887.7c0,0-30.9,26.8-51.8,53.7c-20.8,26.9-32.8,69.5-32.8,69.5s-33.9-70.4-53.8-108    c-24.4-45.9-55.9-66.3-55.9-66.3l27.4-65c0,0,25.9,26.8,41.9,62.5c21.3,47.5,34.9,88,34.9,88s6.9-21.3,28.4-55    c15.9-24.9,39.7-38.2,39.7-38.2L2252.8,887.7z"></path><linearGradient id="J" x1="5991.498" x2="6295.544" y1="891.353" y2="891.353" gradientTransform="matrix(-1 0 0 1 8305.092 0)" gradientUnits="userSpaceOnUse"><stop offset="0" stop-color="#fff"></stop><stop offset="1" stop-color="#8ca3d8"></stop></linearGradient><path fill="url(#J)" d="M2306.2,1121.6l0-280.5c0-20-10.6-38.5-27.9-48.6l-247.1-144.9c-7.1-4.2-14.9-4.6-21.7-2.4    c8.1-5.7,19.3-7.1,29.1-1.3l247.1,144.9c17.3,10.1,27.9,28.6,27.9,48.6l0,280.5c0,12.1-8,21.4-18.1,24.6    C2301.9,1137.9,2306.2,1130.5,2306.2,1121.6z"></path></g><g><linearGradient id="K" x1="2400.879" x2="2241.814" y1="1682.559" y2="1398.599" gradientUnits="userSpaceOnUse"><stop offset="0" stop-color="#b25618"></stop><stop offset="1" stop-color="#f25227"></stop></linearGradient><path fill="url(#K)" d="M2521.6,1402.9v345.8c0,22.1,3.2,27.7-22.1,31.2l-475-271.7c-17-9.6-30.7-35.2-30.7-57.3l-7.7-345.5       c0-22.1,21.4-32.5,38.4-22.9l466.4,263.2C2507.8,1355.1,2521.6,1380.8,2521.6,1402.9z"></path><linearGradient id="L" x1="1985.762" x2="2513.606" y1="729.325" y2="729.325" gradientTransform="matrix(1 .5642 0 1 0 -566.142)" gradientUnits="userSpaceOnUse"><stop offset="0" stop-color="#ffac06"></stop><stop offset="1" stop-color="#f66c1e"></stop></linearGradient><path fill="url(#L)" d="M2513.6,1408.4v345.8c0,22.1-13.7,32.2-30.7,22.7l-466.4-263.2c-17-9.6-30.7-35.2-30.7-57.3v-345.8     c0-22.1,13.7-32.2,30.7-22.6l466.4,263.2C2499.9,1360.7,2513.6,1386.4,2513.6,1408.4z"></path><linearGradient id="M" x1="2207.524" x2="2513.606" y1="729.326" y2="729.326" gradientTransform="matrix(1 .5642 0 1 0 -566.142)" gradientUnits="userSpaceOnUse"><stop offset="0" stop-color="#ffac06"></stop><stop offset="1" stop-color="#f66c1e"></stop></linearGradient><path fill="url(#M)" d="M2513.6,1408.4v345.8c0,22.1-13.7,32.2-30.7,22.7l-206.1-116.3c-42.5-72.7-69.3-159.3-69.3-238.8     c0-95.3,38.5-157.3,96.4-171.6l179,101C2499.9,1360.7,2513.6,1386.4,2513.6,1408.4z"></path><polygon fill="#e54615" points="2513.6 1554.1 1985.8 1256.3 1985.8 1172.6 2513.6 1470.4"></polygon><path fill="#fffdff" d="M2447.3,1664.4l-63.1-35.6c-7.4-4.2-13.4-13.6-13.4-21v-66.6c0-7.4,6-10,13.4-5.8l63.1,35.6      c7.4,4.2,13.4,13.6,13.4,21v66.6C2460.7,1666,2454.7,1668.6,2447.3,1664.4z"></path><path fill="none" stroke="#c1c1c1" stroke-miterlimit="10" stroke-width="7" d="M2412.2 1551.3v21.9c0 5.1-3.2 7.5-7.2 5.3l-34.3-19.4M2412.2 1644.7v-21.9c0-5.1-3.2-11.1-7.2-13.4l-34.3-19.4M2460.7 1597.2l-22.9-12.9c-3.6-2.1-6.6.1-6.6 4.9v39.2c0 4.7 2.9 10.1 6.5 12.1l23 13"></path><line x1="2370.7" x2="2460.7" y1="1574.6" y2="1625.3" fill="none" stroke="#c1c1c1" stroke-miterlimit="10" stroke-width="7"></line><g><path fill="#fffdff" d="M2120.2 1404.9l-81.9-46.2c-4.3-2.4-7.8-7.9-7.8-12.2l0 0c0-4.3 3.5-5.8 7.8-3.4l81.9 46.2c4.3 2.4 7.8 7.9 7.8 12.2l0 0C2128 1405.8 2124.5 1407.3 2120.2 1404.9zM2472.1 1402.1l-81.9-46.2c-4.3-2.4-7.8-7.9-7.8-12.2v0c0-4.3 3.5-5.8 7.8-3.4l81.9 46.2c4.3 2.4 7.8 7.9 7.8 12.2l0 0C2479.9 1403 2476.4 1404.5 2472.1 1402.1zM2214.9 1491.7l-176.6-99.6c-4.3-2.4-7.8-7.9-7.8-12.2l0 0c0-4.3 3.5-5.8 7.8-3.4l176.6 99.6c4.3 2.4 7.8 7.9 7.8 12.2v0C2222.7 1492.6 2219.2 1494.2 2214.9 1491.7zM2214.9 1525.1l-176.6-99.6c-4.3-2.4-7.8-7.9-7.8-12.2l0 0c0-4.3 3.5-5.8 7.8-3.4l176.6 99.6c4.3 2.4 7.8 7.9 7.8 12.2l0 0C2222.7 1526 2219.2 1527.5 2214.9 1525.1zM2186 1542.2l-147.7-83.3c-4.3-2.4-7.8-7.9-7.8-12.2l0 0c0-4.3 3.5-5.8 7.8-3.4l147.7 83.3c4.3 2.4 7.8 7.9 7.8 12.2l0 0C2193.8 1543.1 2190.3 1544.6 2186 1542.2z"></path></g><path fill="#fffdff" d="M2084.5,1183.3c0,17.4-10.8,25.3-24.2,17.8c-13.3-7.5-24.2-27.7-24.2-45.1c0-17.4,10.8-25.3,24.2-17.8     C2073.6,1145.8,2084.5,1166,2084.5,1183.3z"></path><g><linearGradient id="N" x1="2424.818" x2="2309.832" y1="1741.827" y2="1403.537" gradientUnits="userSpaceOnUse"><stop offset="0" stop-color="#ffac06"></stop><stop offset="1" stop-color="#fea409"></stop></linearGradient><path fill="url(#N)" d="M2482.9,1351.2L2016.5,1088c-7.7-4.3-14.6-4.6-20-1.6c0,0,0,0,0,0c4.8-1.3,10.5-0.5,16.6,3l466.4,263.2       c17,9.6,30.7,35.2,30.7,57.3v345.8c0,12.2-4.2,20.7-10.8,24.3c8.5-2.3,14.2-11.5,14.2-25.6l0-345.8       C2513.6,1386.4,2499.9,1360.7,2482.9,1351.2z"></path></g></g><g><linearGradient id="O" x1="734.902" x2="798.033" y1="1451.513" y2="883.336" gradientUnits="userSpaceOnUse"><stop offset="0" stop-color="#acaebc"></stop><stop offset="1" stop-color="#e4e5e9"></stop></linearGradient><polygon fill="url(#O)" points="582.2 974.7 953.6 766.3 979.3 784 953.6 1334.5 607.9 1560.6 582.2 1542.9"></polygon><linearGradient id="P" x1="910.39" x2="692.589" y1="1433.006" y2="946.9" gradientUnits="userSpaceOnUse"><stop offset="0" stop-color="#f4f5f8"></stop><stop offset="1" stop-color="#fff"></stop></linearGradient><polygon fill="url(#P)" points="607.9 992.4 979.3 784 979.3 1352.3 607.9 1560.6"></polygon><polygon fill="#e5e5e5" points="672.3 1058.5 933.3 912.1 933.3 932.6 672.3 1079"></polygon><polygon fill="#e5e5e5" points="672.3 1142 933.3 995.5 933.3 1016 672.3 1162.5"></polygon><polygon fill="#e5e5e5" points="672.3 1192 933.3 1045.6 933.3 1066.1 672.3 1212.5"></polygon><polygon fill="#e5e5e5" points="672.3 1242 933.3 1095.6 933.3 1116.1 672.3 1262.5"></polygon><polygon fill="#e5e5e5" points="672.3 1292.1 933.3 1145.7 933.3 1166.2 672.3 1312.6"></polygon><polygon fill="#e5e5e5" points="672.3 1342.1 933.3 1195.7 933.3 1216.2 672.3 1362.6"></polygon><polygon fill="#e5e5e5" points="672.3 1392.2 933.3 1245.7 933.3 1266.2 672.3 1412.6"></polygon></g><g><path fill="#2d2f4f" d="M864.9 1209.8c0 0 28.7 53.5 43.9 67.2 15.2 13.6 31.7 27.3 18.1 41.9s-42.8 0-65.2-16.5c-22.4-16.5-51.9-21.4-53.8-40.9-1.9-19.5.6-42.7.6-42.7L864.9 1209.8zM817.5 769.3c0 0 155.2 47.4 165.9 71.1 10.6 23.7.8 122.6 0 167.5-.8 44.9 4.9 99.6 4.9 99.6s7.3 5-19.6 9.9c-27 4.9-40-9.9-40-9.9s-21.2-71-18-133.9c3.3-62.9-.8-83.3-.8-83.3s-84.6-.9-150.1-30.8C694.3 829.4 817.5 769.3 817.5 769.3z"></path><path fill="#434768" d="M587.1,834.7c0,0-29.4,48.7,14.7,88.5c44.1,39.8,199.4,70.9,199.4,70.9s0,57.7,0,122.6    c0,64.9,7.4,107,7.4,107s-11,11.8,19.4,15.3c30.4,3.5,46-25.1,46-25.1s9.5-216.4,12.1-249.1c2.6-32.7-148.6-137.3-148.6-137.3    L587.1,834.7z"></path><linearGradient id="Q" x1="1582.204" x2="1780.445" y1="692.234" y2="692.234" gradientTransform="translate(-784.486)" gradientUnits="userSpaceOnUse"><stop offset="0" stop-color="#ffac06"></stop><stop offset="1" stop-color="#f66c1e"></stop></linearGradient><path fill="url(#Q)" d="M831.1,528.4c0,0,42.5,203.9,54.9,210.2c12.4,6.3,109.9,79.5,109.9,79.5s-24.1-6.7-35.7,12.5    c-11.5,19.2-11.5,25.5-11.5,25.5s-109.4-75.5-117.6-90.2c-8.2-14.7-33.4-146.8-33.4-146.8L831.1,528.4z"></path><linearGradient id="R" x1="1351.587" x2="1621.705" y1="692.224" y2="692.224" gradientTransform="translate(-784.486)" gradientUnits="userSpaceOnUse"><stop offset="0" stop-color="#d1d2d7"></stop><stop offset="1" stop-color="#f5f5f6"></stop></linearGradient><path fill="url(#R)" d="M662.2,565.2c-19,8.9-33,25.9-38,46.3c-15.4,63.4-48.9,199.6-56.2,219.1c-9.5,25.5,55.3,59.5,129.3,40.4    c74-19.1,81-52.9,81-52.9s62.8-253.7,58.7-276.9c-4.1-23.1-40.5-38.8-56.2-31.4C769.9,515,702.4,546.4,662.2,565.2z"></path><linearGradient id="S" x1="1405.737" x2="1665.311" y1="706.722" y2="706.722" gradientTransform="translate(-784.486)" gradientUnits="userSpaceOnUse"><stop offset="0" stop-color="#ffac06"></stop><stop offset="1" stop-color="#f66c1e"></stop></linearGradient><path fill="url(#S)" d="M652.8,574.3c-18-6.4-45.5,44.6-23.2,100s78.9,159.7,95.9,165.3c17,5.6,155.4-105.8,155.4-105.8    s-11.6,0-24.8-19c-13.2-19-10.7-22.5-10.7-22.5s-95,84.5-100,81.2S717.3,597.4,652.8,574.3z"></path><path fill="#ffbdbd" d="M952.5,845.1c0,0,3.7,14.9,11.4,22c7.8,7.2,7.8,7.2,7.8,7.2s7.2-6,4.2-11.3c-3-5.4,8.6-10.5,11.7,0.4    c3.2,10.9,6.7,25.2,15.1,2.5c8.4-22.7-13.5-48.9-13.5-48.9S953.6,809.9,952.5,845.1z"></path><linearGradient id="T" x1="1723.304" x2="1719.299" y1="538.767" y2="689.632" gradientTransform="translate(-784.486)" gradientUnits="userSpaceOnUse"><stop offset="0" stop-color="#a8adac"></stop><stop offset="1" stop-color="#e4e6eb"></stop></linearGradient><path fill="url(#T)" d="M972.8,678.5l3.5-148.1c0.2-7-7.3-11.6-13.5-8.3L910.7,550c-6.2,3.3-10.1,9.7-10.3,16.7l-3.5,148.6    c-0.1,5.8,6,9.6,11.1,6.8l56.7-30.3C969.6,689.2,972.7,684.1,972.8,678.5z"></path><linearGradient id="U" x1="1737.392" x2="1716.039" y1="530.514" y2="715.323" gradientTransform="translate(-784.486)" gradientUnits="userSpaceOnUse"><stop offset="0" stop-color="#fff"></stop><stop offset="1" stop-color="#e4e6eb"></stop></linearGradient><path fill="url(#U)" d="M978.2,681l3.5-148.1c0.2-7-7.3-11.6-13.5-8.3l-52.1,27.9c-6.2,3.3-10.1,9.7-10.3,16.7l-3.5,148.6    c-0.1,5.8,6,9.6,11.1,6.8l56.7-30.3C974.9,691.7,978.1,686.6,978.2,681z"></path><path fill="#ffbdbd" d="M847.8,701.4c0,0,16.6-24.5,19.8-39.7c3.2-15.2,36.5-30.5,36.5-30.5v16.2c0,0,22.2-13.4,27.7-9.7    c5.5,3.7,12,24.5,4.6,38.3c-7.4,13.9-30,22.7-38.3,30.8c-8.3,8-21.8,26-21.8,26S853.8,720.7,847.8,701.4z"></path><path fill="#2d2f4f" d="M987.2,1111.8c0,0,15.3,17.7,44.7,32.5c29.4,14.7,22.9,28.9,8.7,38.7c-14.2,9.8-17.4,7.1-53.4-8.7    c-35.9-15.8-58.3-21.8-59.4-37.6s0.8-29.1,0.8-29.1S956.2,1121.2,987.2,1111.8z"></path><path fill="#ffbdbd" d="M836.9,418c0,0,2.3,41.9-0.6,56.2c-2.9,14.3-19.5,55-28.5,59.7c-9,4.7-20.8,1.5-20.8,1.5l1.8,3.7     c0,0-0.1,18.3-32.5,19.5c-32.4,1.1-51.3-11.5-51.3-11.5s11.2-27.2,10.5-52.8c-0.6-25.6,5.6-89,33.3-98.2     C776.6,386.9,836.9,418,836.9,418z"></path><path fill="#2d2f4f" d="M811.9,429.3c-32.7,2.9-48.8-7.1-48.8-7.1s8,14.3-1.5,22.1c-9.5,7.8-6.6,41.3-11.3,41.3     c-4.8,0-2.7-30.1-17-30c-14.3,0.1-10.1,8.3-8.8,20.1c1.3,11.7,4.5,19.4-6.8,22.3c-11.3,2.9-35.1-28.9-34.5-60.1     c0.6-31.2,20.8-40.9,20.8-40.9s-7.8-40.3,49.2-37.4c57,2.9,77.8,16.5,93.9,6.5C863,356,879.6,423.3,811.9,429.3z"></path><path fill="#eaa2a2" d="M787.9,535.1c0,0-20.2-1.3-28.7-12.3c-8.5-11-11.1-14-11.1-14s3.1,13.1,12.2,27.4     c9.1,14.3,2.5,22.1,2.5,22.1s23.6-0.2,25.3-15.2C789.2,533.8,787.9,535.1,787.9,535.1z"></path><g opacity=".15"><ellipse cx="896.8" cy="1209.8" fill="#2b2e3d" opacity="0" rx="259.2" ry="120.6"></ellipse><ellipse cx="896.8" cy="1209.8" fill="#2b2e3d" opacity=".037" rx="255.1" ry="118.7"></ellipse><ellipse cx="896.8" cy="1209.8" fill="#2b2e3d" opacity=".074" rx="250.9" ry="116.7"></ellipse><ellipse cx="896.8" cy="1209.8" fill="#2b2e3d" opacity=".111" rx="246.8" ry="114.8"></ellipse><ellipse cx="896.8" cy="1209.8" fill="#2b2e3d" opacity=".148" rx="242.6" ry="112.9"></ellipse><ellipse cx="896.8" cy="1209.8" fill="#2b2e3d" opacity=".185" rx="238.5" ry="110.9"></ellipse><ellipse cx="896.8" cy="1209.8" fill="#2b2e3d" opacity=".222" rx="234.3" ry="109"></ellipse><ellipse cx="896.8" cy="1209.8" fill="#2b2e3d" opacity=".259" rx="230.2" ry="107.1"></ellipse><ellipse cx="896.8" cy="1209.8" fill="#2b2e3d" opacity=".296" rx="226" ry="105.1"></ellipse><ellipse cx="896.8" cy="1209.8" fill="#2b2e3d" opacity=".333" rx="221.9" ry="103.2"></ellipse><ellipse cx="896.8" cy="1209.8" fill="#2b2e3d" opacity=".37" rx="217.7" ry="101.3"></ellipse><ellipse cx="896.8" cy="1209.8" fill="#2b2e3d" opacity=".407" rx="213.6" ry="99.3"></ellipse><ellipse cx="896.8" cy="1209.8" fill="#2b2e3d" opacity=".444" rx="209.4" ry="97.4"></ellipse><ellipse cx="896.8" cy="1209.8" fill="#2b2e3d" opacity=".481" rx="205.3" ry="95.5"></ellipse><ellipse cx="896.8" cy="1209.8" fill="#2b2e3d" opacity=".518" rx="201.1" ry="93.6"></ellipse><ellipse cx="896.8" cy="1209.8" fill="#2b2e3d" opacity=".556" rx="197" ry="91.6"></ellipse><ellipse cx="896.8" cy="1209.8" fill="#2b2e3d" opacity=".593" rx="192.8" ry="89.7"></ellipse><ellipse cx="896.8" cy="1209.8" fill="#2b2e3d" opacity=".63" rx="188.7" ry="87.8"></ellipse><ellipse cx="896.8" cy="1209.8" fill="#2b2e3d" opacity=".667" rx="184.5" ry="85.8"></ellipse><ellipse cx="896.8" cy="1209.8" fill="#2b2e3d" opacity=".704" rx="180.4" ry="83.9"></ellipse><ellipse cx="896.8" cy="1209.8" fill="#2b2e3d" opacity=".741" rx="176.2" ry="82"></ellipse><ellipse cx="896.8" cy="1209.8" fill="#2b2e3d" opacity=".778" rx="172.1" ry="80"></ellipse><ellipse cx="896.8" cy="1209.8" fill="#2b2e3d" opacity=".815" rx="167.9" ry="78.1"></ellipse><ellipse cx="896.8" cy="1209.8" fill="#2b2e3d" opacity=".852" rx="163.8" ry="76.2"></ellipse><ellipse cx="896.8" cy="1209.8" fill="#2b2e3d" opacity=".889" rx="159.6" ry="74.3"></ellipse><ellipse cx="896.8" cy="1209.8" fill="#2b2e3d" opacity=".926" rx="155.5" ry="72.3"></ellipse><ellipse cx="896.8" cy="1209.8" fill="#2b2e3d" opacity=".963" rx="151.3" ry="70.4"></ellipse><ellipse cx="896.8" cy="1209.8" fill="#2b2e3d" rx="147.2" ry="68.5"></ellipse></g></g></svg>