<svg width="54" height="42" viewBox="0 0 54 42" fill="none" xmlns="http://www.w3.org/2000/svg">
<path d="M53.2578 25.2861C49.1584 16.3545 38.5039 10.3643 26.7308 10.3643H26.6771C14.9326 10.3821 4.29606 16.3794 0.20743 25.2861L0 25.7328L0.20743 26.1795C4.30686 35.1111 14.9613 41.1015 26.7345 41.1015H26.7881C38.5291 41.0835 49.1692 35.0862 53.2578 26.1795L53.4651 25.7328L53.2578 25.2861ZM26.7844 38.9571H26.7308C15.9869 38.9571 6.27251 33.6674 2.36599 25.7328C6.26525 17.8198 15.9583 12.5265 26.6807 12.5085H26.7308C37.4781 12.5085 47.189 17.7982 51.0953 25.7328C47.1998 33.646 37.5068 38.9393 26.7844 38.9571Z" fill="#00B2F4"/>
<path d="M26.7295 18.1562C22.5442 18.1562 19.1523 21.5481 19.1523 25.7332C19.1523 29.9183 22.5442 33.3138 26.7295 33.3138C30.9147 33.3138 34.3101 29.9184 34.3101 25.7332C34.3101 21.5479 30.9147 18.1562 26.7295 18.1562ZM27.4084 30.183C27.2691 30.4655 27.001 30.6048 26.7295 30.6048C26.4615 30.6048 26.1934 30.4655 26.0541 30.183L24.9066 27.8956C24.8351 27.7491 24.7173 27.6277 24.5707 27.5562L22.2798 26.4123C21.7222 26.1335 21.7222 25.3367 22.2798 25.0578L24.5707 23.9105C24.7173 23.839 24.8351 23.7176 24.9066 23.5711L26.0541 21.2836C26.1935 21.0049 26.4615 20.8656 26.7295 20.8656C27.001 20.8656 27.2691 21.0049 27.4084 21.2836L28.5521 23.5711C28.6271 23.7176 28.7452 23.839 28.8917 23.9105L31.1827 25.0578C31.7402 25.3367 31.7402 26.1335 31.1827 26.4123L28.8917 27.5562C28.7452 27.6277 28.6273 27.7491 28.5521 27.8956L27.4084 30.183Z" fill="#00B2F4"/>
<path d="M26.7308 14.4678C20.519 14.4678 15.4688 19.5217 15.4688 25.7334C15.4688 31.9452 20.519 36.9989 26.7308 36.9989C32.9426 36.9989 37.9964 31.9452 37.9964 25.7334C37.9964 19.5215 32.9426 14.4678 26.7308 14.4678ZM26.7308 34.8543C21.702 34.8543 17.6133 30.762 17.6133 25.7334C17.6133 20.7047 21.7022 16.6124 26.7308 16.6124C31.7596 16.6124 35.8518 20.7047 35.8518 25.7334C35.8518 30.762 31.7596 34.8543 26.7308 34.8543Z" fill="#00B2F4"/>
<path d="M31.8243 23.778L29.7333 22.7307L28.6898 20.6435C28.3146 19.8964 27.5675 19.4355 26.7312 19.4355C25.8985 19.4355 25.1479 19.8966 24.7762 20.6435L23.7327 22.7307L21.6417 23.778C20.8946 24.1497 20.4336 24.9003 20.4336 25.733C20.4336 26.5657 20.8946 27.3164 21.6417 27.688L23.7327 28.7353L24.7762 30.8225C25.1479 31.5696 25.8985 32.0342 26.7312 32.0342C27.5675 32.0342 28.3146 31.5696 28.6898 30.8225L29.7333 28.7353L31.8243 27.688C32.5676 27.3164 33.0324 26.5657 33.0324 25.733C33.0324 24.9003 32.5676 24.1497 31.8243 23.778ZM31.1845 26.4119L28.8935 27.5558C28.747 27.6273 28.6291 27.7488 28.5539 27.8953L27.4102 30.1827C27.2709 30.4652 27.0027 30.6045 26.7312 30.6045C26.4633 30.6045 26.1951 30.4652 26.0559 30.1827L24.9084 27.8953C24.8369 27.7488 24.7191 27.6273 24.5725 27.5558L22.2816 26.4119C21.724 26.1332 21.724 25.3364 22.2816 25.0574L24.5725 23.9102C24.7191 23.8387 24.8369 23.7173 24.9084 23.5707L26.0559 21.2833C26.1953 21.0046 26.4633 20.8653 26.7312 20.8653C27.0027 20.8653 27.2709 21.0046 27.4102 21.2833L28.5539 23.5707C28.6289 23.7173 28.747 23.8387 28.8935 23.9102L31.1845 25.0574C31.742 25.3364 31.742 26.1332 31.1845 26.4119Z" fill="#00B2F4"/>
<path d="M7.046 13.5675C6.70188 13.5675 6.36391 13.4023 6.15665 13.096L3.50817 9.17887C3.17672 8.68802 3.3054 8.0214 3.79588 7.68975C4.28598 7.35867 4.95299 7.48658 5.28481 7.97744L7.9333 11.8946C8.26494 12.3854 8.13607 13.0521 7.64559 13.3837C7.46162 13.5077 7.25269 13.5675 7.046 13.5675Z" fill="#00B2F4"/>
<path d="M13.171 10.344C12.7634 10.344 12.3738 10.1102 12.1939 9.71521L10.0924 5.0901C9.84749 4.55083 10.0859 3.91511 10.6249 3.67024C11.1651 3.42574 11.7999 3.66428 12.0448 4.2028L14.1464 8.82791C14.3912 9.36718 14.1529 10.0027 13.6138 10.2478C13.4699 10.3131 13.3194 10.344 13.171 10.344Z" fill="#00B2F4"/>
<path d="M20.1313 8.33924C19.633 8.33924 19.1866 7.99009 19.0822 7.48285L18.0027 2.24306C17.8833 1.66301 18.2567 1.09618 18.8365 0.976448C19.4184 0.856715 19.9836 1.23007 20.1031 1.81031L21.1824 7.0501C21.3018 7.63015 20.9286 8.19697 20.3486 8.31689C20.2758 8.33179 20.2028 8.33924 20.1313 8.33924Z" fill="#00B2F4"/>
<path d="M26.7285 7.74526C26.1363 7.74526 25.6562 7.2652 25.6562 6.67286V1.07239C25.6562 0.480058 26.1363 0 26.7285 0C27.3206 0 27.8007 0.480058 27.8007 1.07239V6.67286C27.8007 7.2652 27.3206 7.74526 26.7285 7.74526Z" fill="#00B2F4"/>
<path d="M46.4151 13.567C46.2084 13.567 45.9998 13.5074 45.8155 13.3832C45.325 13.0516 45.1961 12.3849 45.5278 11.8941L48.1763 7.97695C48.5081 7.4861 49.1745 7.35707 49.665 7.68927C50.1557 8.02091 50.2844 8.68754 49.9527 9.17839L47.3042 13.0955C47.0972 13.4018 46.7592 13.567 46.4151 13.567Z" fill="#00B2F4"/>
<path d="M40.2904 10.3441C40.1422 10.3441 39.9913 10.3132 39.8476 10.2478C39.3085 10.0027 39.0702 9.36721 39.315 8.82794L41.4166 4.20283C41.6618 3.66412 42.2968 3.42577 42.8364 3.67027C43.3755 3.91514 43.6139 4.55086 43.369 5.09013L41.2674 9.71524C41.0877 10.1102 40.6982 10.3441 40.2904 10.3441Z" fill="#00B2F4"/>
<path d="M33.3312 8.33878C33.2595 8.33878 33.1869 8.33134 33.1139 8.31644C32.534 8.19652 32.1607 7.6297 32.28 7.04965L33.3595 1.80985C33.479 1.23018 34.0448 0.857752 34.6261 0.975996C35.206 1.09573 35.5793 1.66256 35.46 2.2426L34.3805 7.4824C34.2759 7.98927 33.8293 8.33878 33.3312 8.33878Z" fill="#00B2F4"/>
</svg>
