<svg xmlns="http://www.w3.org/2000/svg" xmlns:xlink="http://www.w3.org/1999/xlink" viewBox="0 0 512 512" id="blockchain"><defs><linearGradient id="a" x1="176.36" x2="176.36" y1="415.31" y2="215.24" gradientUnits="userSpaceOnUse"><stop offset="0" stop-color="#a9afc4"></stop><stop offset="1" stop-color="#d4d8e5"></stop></linearGradient><linearGradient id="b" x1="411.44" x2="411.44" y1="415.31" y2="215.24" xlink:href="#a"></linearGradient><linearGradient id="c" x1="291.76" x2="291.76" y1="218.87" y2="18.8" xlink:href="#a"></linearGradient></defs><g><polygon fill="#f5f5f5" points="60.94 276.86 137.88 321.28 214.83 276.86 137.88 232.44 60.94 276.86"></polygon><polygon fill="#dee1ec" points="137.88 410.13 60.94 365.7 60.94 276.86 137.88 321.28 137.88 410.13"></polygon><polygon fill="url(#a)" points="137.88 410.13 214.83 365.7 214.83 276.86 137.88 321.28 137.88 410.13"></polygon><path fill="#5e6175" d="M137.88,413.59,57.94,367.44V275.13L137.88,229l80,46.15v92.31ZM63.94,364l73.94,42.69,74-42.69V278.59l-74-42.69L63.94,278.59Z"></path><polygon fill="#f5f5f5" points="296.03 276.86 372.97 321.28 449.91 276.86 372.97 232.44 296.03 276.86"></polygon><polygon fill="#dee1ec" points="372.97 410.13 296.03 365.7 296.03 276.86 372.97 321.28 372.97 410.13"></polygon><polygon fill="url(#b)" points="372.97 410.13 449.91 365.7 449.91 276.86 372.97 321.28 372.97 410.13"></polygon><path fill="#5e6175" d="M373,413.59,293,367.44V275.13L373,229l79.94,46.15v92.31ZM299,364,373,406.66,446.91,364V278.59L373,235.9,299,278.59Z"></path><polygon fill="#f5f5f5" points="176.35 80.42 253.29 124.84 330.23 80.42 253.29 36 176.35 80.42"></polygon><polygon fill="#dee1ec" points="253.29 213.69 176.35 169.26 176.35 80.42 253.29 124.84 253.29 213.69"></polygon><polygon fill="url(#c)" points="253.29 213.69 330.23 169.26 330.23 80.42 253.29 124.84 253.29 213.69"></polygon><path fill="#5e6175" d="M253.29,217.15,173.35,171V78.69l79.94-46.15,79.94,46.15V171Zm-73.94-49.62,73.94,42.69,73.94-42.69V82.15L253.29,39.46,179.35,82.15Z"></path><path fill="#5e6175" d="M327.36 262.24l-3-5.2 45.42-26.22a117.57 117.57 0 00-74.77-85l2-5.65A123.6 123.6 0 01376.16 232l1.28 6.52L373 235.91zM183.49 262.24L137.87 235.9l-4.42 2.53 1.28-6.45a123.59 123.59 0 0179.11-91.81l2 5.65a117.58 117.58 0 00-74.77 85L186.49 257zM171.07 345.6l4.11-4.36a117 117 0 00160.52 0l4.11 4.36A123 123 0 01171.07 345.6z"></path><circle cx="76.85" cy="151.07" r="15.9" fill="#e08326"></circle><path fill="#a9afc4" d="M63.94 243.91h-6v-6h6zm0-16h-6v-6h6zm0-16h-6v-6h6zm0-16h-6v-6h6zM107.7 122l-3.13-5.12 5.12-3.13 3.13 5.12zm13.66-8.34l-3.13-5.12 5.12-3.12 3.13 5.12zM135 105.28l-3.12-5.12L137 97l3.13 5.12zM148.67 97l-3.12-5.13 5.12-3.12 3.12 5.12z"></path><circle cx="435.15" cy="151.07" r="15.9" fill="#e08326"></circle><path fill="#a9afc4" d="M454.06 243.91h-6v-6h6zm0-16h-6v-6h6zm0-16h-6v-6h6zm0-16h-6v-6h6zM404.3 122l-5.12-3.13 3.13-5.12 5.12 3.13zm-13.66-8.34l-5.12-3.12 3.13-5.12 5.12 3.12zM377 105.28l-5.13-3.13L375 97l5.12 3.13zM363.33 97l-5.12-3.13 3.12-5.12 5.12 3.12z"></path><circle cx="257.57" cy="460.09" r="15.9" fill="#e08326"></circle><path fill="#5e6175" d="M76.85 170a18.91 18.91 0 1118.9-18.91A18.93 18.93 0 0176.85 170zm0-31.81a12.91 12.91 0 1012.9 12.9A12.92 12.92 0 0076.85 138.17zM435.15 170a18.91 18.91 0 1118.91-18.91A18.93 18.93 0 01435.15 170zm0-31.81a12.91 12.91 0 1012.91 12.9A12.92 12.92 0 00435.15 138.17zM257.54 479a18.9 18.9 0 1116.4-9.45A18.92 18.92 0 01257.54 479zm0-31.81a12.91 12.91 0 1011.16 19.36A12.89 12.89 0 00257.59 447.18z"></path><path fill="#a9afc4" d="M214.48 456l-5.19-3 3-5.2 5.19 3zm-13.85-8l-5.2-3 3-5.2 5.2 3zm-13.86-8l-5.2-3 3-5.2 5.2 3zm-13.86-8l-5.19-3 3-5.2 5.19 3zM301.09 452.2l-2.87-5.26 5.27-2.88 2.87 5.27zm14.05-7.66l-2.88-5.27 5.27-2.87 2.88 5.27zm14-7.66l-2.87-5.27 5.27-2.87 2.87 5.27zm14.05-7.66L340.36 424l5.26-2.87 2.88 5.27z"></path><path fill="#e1830e" d="M347.06,52.11A16,16,0,0,1,363,68.05,15.94,15.94,0,0,1,379,52.11a16,16,0,0,1-15.95-16A16,16,0,0,1,347.06,52.11Z"></path><path fill="#5e6175" d="M83.12 429.13a11.7 11.7 0 01-11.39-9.07h0a11.69 11.69 0 1111.39 9.07zm-5.55-10.41a5.69 5.69 0 104.27-6.82 5.7 5.7 0 00-4.27 6.82zM131.36 460.55h0a9 9 0 1116.46 2.77A9 9 0 01131.36 460.55zm5.85-1.34a3 3 0 102.28-3.63 3 3 0 00-2.28 3.63z"></path></g></svg>