<svg width="55" height="55" viewBox="0 0 55 55" fill="none" xmlns="http://www.w3.org/2000/svg">
<path d="M19.5475 17.8757L15.7107 14.0389L16.1075 7.85105C16.1284 7.51391 16.0061 7.18573 15.7674 6.94704L9.46321 0.64584C9.23945 0.422075 8.9411 0.302734 8.63678 0.302734C8.49655 0.302734 8.35633 0.326603 8.22207 0.377323C7.79244 0.538433 7.49409 0.941209 7.46723 1.40067L7.10324 7.10219L1.39874 7.46618C0.939282 7.49601 0.539489 7.79138 0.375396 8.22101C0.214285 8.65064 0.318709 9.13695 0.643913 9.46514L6.94512 15.7663C7.1838 16.005 7.51497 16.1274 7.84913 16.1065L14.0638 15.7097L17.8887 19.5345C14.5143 23.2997 12.4557 28.2733 12.4557 33.7152C12.4557 45.4435 21.997 54.9878 33.7282 54.9878C45.4565 54.9878 55.0008 45.4465 55.0008 33.7152C55.0008 21.984 45.4594 12.4427 33.7282 12.4427C28.2833 12.4457 23.3127 14.5013 19.5475 17.8757ZM34.0146 14.7937C34.3398 14.7997 34.6651 14.8116 34.9873 14.8325C36.0584 14.9041 37.1026 15.0622 38.12 15.3039C38.6152 15.4232 39.1045 15.5605 39.5849 15.7156C45.3431 17.5952 49.8959 22.163 51.7517 27.9332C51.9039 28.4105 52.0411 28.8939 52.1545 29.3861C52.3872 30.3797 52.5423 31.406 52.611 32.4532C52.6348 32.8172 52.6497 33.1842 52.6527 33.5511C52.6527 33.6048 52.6557 33.6585 52.6557 33.7122C52.6557 34.7386 52.5722 35.744 52.414 36.7256C52.3335 37.2239 52.235 37.7132 52.1157 38.1965C51.6771 39.9985 50.976 41.7021 50.06 43.2625C49.8124 43.6862 49.5469 44.1009 49.2664 44.5007C48.9621 44.9363 48.6399 45.3629 48.3027 45.7717C47.9805 46.1625 47.6404 46.5384 47.2883 46.8994C46.9184 47.2813 46.5335 47.6453 46.1307 47.9944C45.7399 48.3345 45.3341 48.6597 44.9135 48.967C44.46 49.3012 43.9945 49.6144 43.5112 49.9068C43.192 50.1007 42.8697 50.2827 42.5386 50.4558C40.9006 51.321 39.1195 51.9535 37.2428 52.3086C36.8192 52.3891 36.3895 52.4548 35.9569 52.5055C35.223 52.592 34.4801 52.6367 33.7223 52.6367C33.4836 52.6367 33.2479 52.6308 33.0122 52.6218C32.5199 52.6039 32.0306 52.5651 31.5473 52.5114C29.6945 52.2996 27.9223 51.8163 26.2694 51.1062C25.807 50.9063 25.3565 50.6915 24.9149 50.4588C21.5584 48.6866 18.7957 45.9328 17.0085 42.5823C16.7758 42.1437 16.558 41.6962 16.3611 41.2397C15.6391 39.5808 15.1468 37.7997 14.929 35.938C14.8723 35.4487 14.8336 34.9504 14.8127 34.4492C14.8037 34.2045 14.7978 33.9569 14.7978 33.7093C14.7978 32.9723 14.8425 32.2473 14.9231 31.5343C14.9738 31.0838 15.0424 30.6362 15.1259 30.1947C15.475 28.3449 16.0926 26.5906 16.9369 24.9735C17.1309 24.6035 17.3338 24.2425 17.5486 23.8875C17.835 23.4191 18.1423 22.9626 18.4675 22.521C18.7718 22.1063 19.094 21.7036 19.4312 21.3157C19.47 21.2739 19.5058 21.2292 19.5445 21.1874L22.1253 23.7682C22.0776 23.8248 22.0268 23.8845 21.9791 23.9412C21.7016 24.2754 21.4391 24.6214 21.1885 24.9765C20.1323 26.4891 19.3417 28.1987 18.8882 30.0395C18.7748 30.502 18.6793 30.9734 18.6077 31.4507C18.4973 32.1877 18.4406 32.9425 18.4406 33.7063C18.4406 34.0315 18.4526 34.3567 18.4735 34.6789C18.4973 35.0698 18.5391 35.4576 18.5928 35.8425C18.742 36.8957 18.9956 37.916 19.3476 38.8916C19.4729 39.2407 19.6132 39.5868 19.7653 39.924C20.004 40.461 20.2755 40.9801 20.5739 41.4843C20.8006 41.8662 21.0423 42.2362 21.2989 42.5942C21.7345 43.1999 22.2118 43.7727 22.728 44.3067C22.8712 44.4559 23.0174 44.5991 23.1636 44.7423C23.7036 45.2615 24.2854 45.7388 24.897 46.1744C25.264 46.434 25.6399 46.6786 26.0307 46.9054C26.529 47.1978 27.0421 47.4603 27.5732 47.693C27.8984 47.8363 28.2296 47.9705 28.5667 48.0899C29.5394 48.4389 30.5538 48.6925 31.604 48.8387C32.0067 48.8954 32.4155 48.9342 32.8272 48.9581C33.1255 48.976 33.4239 48.9849 33.7252 48.9849C34.498 48.9849 35.2558 48.9282 35.9957 48.8149C36.485 48.7403 36.9683 48.6448 37.4397 48.5255C39.2865 48.063 41.0021 47.2634 42.5147 46.1953C42.8399 45.9656 43.1532 45.7269 43.4575 45.4733C43.908 45.1004 44.3376 44.7006 44.7434 44.2799C45.0597 43.9487 45.361 43.6056 45.6474 43.2476C47.7478 40.6281 49.0069 37.3074 49.0069 33.6973C49.0069 32.0862 48.7562 30.5318 48.2908 29.0729C48.1595 28.6552 48.0074 28.2464 47.8403 27.8466C46.2948 24.1321 43.3262 21.1546 39.6177 19.5972C39.2328 19.4361 38.839 19.2899 38.4392 19.1586C36.9534 18.6753 35.3662 18.4127 33.7193 18.4127C30.1211 18.4127 26.8064 19.6628 24.1929 21.7543C24.0527 21.8677 23.9124 21.981 23.7782 22.0974L23.0144 21.3336L21.9015 20.2327L21.2064 19.5375C21.3555 19.4062 21.5047 19.278 21.6539 19.1526C22.0656 18.8095 22.4923 18.4873 22.9308 18.18C23.3426 17.8936 23.7662 17.6221 24.1988 17.3685C25.7712 16.4496 27.4867 15.7484 29.3066 15.3128C29.778 15.1995 30.2554 15.104 30.7387 15.0264C31.7114 14.8713 32.7108 14.7907 33.7252 14.7907C33.8237 14.7907 33.9192 14.7907 34.0146 14.7937ZM33.7282 20.7757C40.8618 20.7757 46.6678 26.5816 46.6678 33.7152C46.6678 40.8488 40.8618 46.6548 33.7282 46.6548C26.5946 46.6548 20.7887 40.8488 20.7887 33.7152C20.7887 30.5676 21.9164 27.6825 23.7931 25.4359L26.6871 28.33C25.5414 29.8247 24.8582 31.6894 24.8582 33.7152C24.8582 38.6052 28.8382 42.5853 33.7282 42.5853C38.6182 42.5853 42.5982 38.6052 42.5982 33.7152C42.5982 28.8252 38.6182 24.8452 33.7282 24.8452C31.7054 24.8452 29.8377 25.5284 28.343 26.6741L25.4489 23.7801C27.6955 21.9064 30.5836 20.7757 33.7282 20.7757ZM33.7282 27.1903C35.4408 27.1903 36.9982 27.8526 38.1647 28.9356C38.296 29.0579 38.4243 29.1862 38.5436 29.3175C39.6058 30.4781 40.2532 32.0236 40.2532 33.7152C40.2532 34.8669 39.9519 35.9469 39.4268 36.8897C39.1761 37.3372 38.8778 37.749 38.5347 38.1249C38.1707 38.5217 37.759 38.8737 37.3055 39.1691C36.8788 39.4496 36.4134 39.6853 35.9241 39.8583C35.2379 40.1059 34.498 40.2402 33.7282 40.2402C33.4179 40.2402 33.1136 40.2163 32.8182 40.1746C32.3707 40.1119 31.9351 40.0045 31.5204 39.8523C29.7064 39.196 28.2624 37.7609 27.6001 35.9499C27.4539 35.5471 27.3435 35.1294 27.2778 34.6938C27.2301 34.3746 27.2033 34.0464 27.2033 33.7122C27.2033 32.9485 27.3345 32.2175 27.5762 31.5373C27.7522 31.042 27.9849 30.5766 28.2684 30.144C28.2982 30.0962 28.331 30.0515 28.3609 30.0067L30.8044 32.4502C30.7775 32.5099 30.7536 32.5696 30.7328 32.6322C30.6194 32.9455 30.5567 33.2796 30.5448 33.6257C30.5448 33.6556 30.5418 33.6824 30.5418 33.7122C30.5418 35.4725 31.9679 36.8987 33.7282 36.8987C33.7968 36.8987 33.8625 36.8957 33.9281 36.8927C34.2235 36.8748 34.5069 36.8151 34.7754 36.7226C35.3095 36.5376 35.7779 36.2124 36.1389 35.7918C36.4671 35.4129 36.7058 34.9534 36.8251 34.4522C36.8818 34.2165 36.9116 33.9688 36.9116 33.7152C36.9116 31.955 35.4855 30.5288 33.7252 30.5288C33.4806 30.5288 33.2449 30.5557 33.0181 30.6094C32.8242 30.6541 32.6392 30.7138 32.4602 30.7914L31.8277 30.1589L30.7089 29.04L30.0167 28.3479C30.1868 28.2285 30.3628 28.1181 30.5448 28.0167C31.4906 27.4946 32.5766 27.1903 33.7282 27.1903ZM9.59449 4.82576L9.63924 4.13955L10.582 5.08234L11.7605 6.26083L12.7869 7.28717L13.7326 8.23294L13.4015 13.4064L10.9281 13.5645L9.60344 13.648L8.22803 13.7375L4.13464 9.64117L5.64728 9.5457L6.11271 9.51586L8.27875 9.37862C8.86651 9.33983 9.33492 8.87142 9.37371 8.28366L9.59449 4.82576Z" fill="#00B2F4"/>
</svg>
