<svg xmlns="http://www.w3.org/2000/svg" width="1500" height="1500" fill="none" viewBox="0 0 1500 1500" id="integration"><g filter="url(#filter0_d_102_1467)"><path fill="url(#paint0_linear_102_1467)" d="M749.465 579.713L386.029 369.884V718.123L749.465 927.953V579.713Z"></path></g><g filter="url(#filter1_d_102_1467)"><path fill="url(#paint1_radial_102_1467)" fill-rule="evenodd" d="M744.052 582.838L391.441 379.259V714.998L744.052 918.578V582.838ZM749.465 579.713V927.953L386.029 718.123V369.884L749.465 579.713Z" clip-rule="evenodd" shape-rendering="crispEdges"></path></g><g filter="url(#filter2_d_102_1467)"><path fill="url(#paint2_linear_102_1467)" d="M1112.9 294.4L749.467 504.23V927.629L1112.9 717.799V294.4Z"></path></g><g filter="url(#filter3_d_102_1467)"><path fill="url(#paint3_radial_102_1467)" fill-rule="evenodd" d="M1107.49 303.775L754.88 507.355V918.254L1107.49 714.674V303.775ZM1112.9 294.4V717.799L749.467 927.629V504.23L1112.9 294.4Z" clip-rule="evenodd" shape-rendering="crispEdges"></path></g><path fill="url(#paint4_linear_102_1467)" fill-rule="evenodd" d="M1262.31 831.517L1436.69 831.668V952.788H1436.61C1436.61 953.566 1436.69 954.336 1436.69 955.122C1436.69 969.304 1429.07 982.415 1416.84 989.506C1273.03 1072.52 909.9 1282.17 789.201 1351.86C764.585 1366.05 734.331 1366.05 709.794 1351.86C589.094 1282.17 225.964 1072.52 82.1568 989.506C69.8486 982.415 62.3049 969.304 62.3049 955.122C62.3049 954.122 62.3051 953.129 62.4639 952.145L62.3049 830.508L238.194 830.651L386.049 745.288L494.203 807.71C482.53 814.444 474.191 822.393 469.189 830.85L833.034 831.151C837.64 821.416 846.534 812.221 859.795 804.574C900.373 781.117 966.359 781.117 1007.02 804.574C1007.49 804.883 1008.05 805.201 1008.6 805.526L1112.95 745.288L1262.31 831.517ZM753.547 952.788H745.447L749.497 955.122L753.547 952.788Z" clip-rule="evenodd"></path><path fill="#0A3CB1" fill-rule="evenodd" d="M829.623 718.95V820.401L902.28 771.343 829.623 718.95zM494.204 684.257V805.584L410.667 778.966 456.327 685.114 494.204 684.257z" clip-rule="evenodd"></path><path fill="#0A3CB1" d="M668.356 975.324C709.002 951.857 709.003 913.809 668.357 890.342C627.711 866.875 561.809 866.875 521.163 890.342C480.517 913.809 480.518 951.857 521.164 975.324C561.81 998.791 627.71 998.791 668.356 975.324Z"></path><path fill="url(#paint5_linear_102_1467)" fill-rule="evenodd" d="M861.41 767.071C860.874 766.761 860.331 766.447 859.787 766.134C819.166 742.681 819.193 704.581 859.766 681.156C900.409 657.691 966.33 657.715 1006.95 681.168C1007.5 681.482 1008.04 681.795 1008.57 682.105L1112.9 621.874L1416.78 797.32C1429.07 804.416 1436.64 817.522 1436.61 831.72C1436.65 845.879 1429.1 858.985 1416.79 866.092C1272.99 949.112 909.892 1158.75 789.202 1228.43C764.583 1242.64 734.319 1242.64 709.748 1228.45L82.1295 866.095C69.8474 859.004 62.2751 845.898 62.3027 831.7C62.3302 817.502 69.888 804.396 82.1289 797.329C185.282 737.773 386.018 621.878 386.018 621.878L494.143 684.304C453.57 707.729 453.535 745.825 494.157 769.278C534.772 792.727 600.762 792.711 641.336 769.286L749.454 831.708L861.41 767.071Z" clip-rule="evenodd"></path><path fill="#fff" fill-rule="evenodd" d="M1054.27 659.323L1054.28 659.326L1054.27 659.323C1050.69 653.721 1050.17 655.947 1051.22 657.633C1051.52 658.166 1051.96 658.566 1052.46 658.851L1340.68 825.258C1342.98 826.587 1344.38 829.051 1344.38 831.717C1344.44 834.344 1342.98 836.818 1340.68 838.151L771.227 1166.92C757.749 1174.7 741.164 1174.71 727.717 1166.95L158.238 838.158C155.935 836.829 154.532 834.361 154.538 831.699C154.544 829.036 155.935 826.598 158.244 825.265L446.462 658.862C448.209 657.853 448.777 655.659 447.785 653.933C446.799 652.211 444.622 651.602 442.875 652.611L154.657 819.014C150.164 821.608 147.343 826.464 147.318 831.71C147.356 836.919 150.133 841.764 154.663 844.38L724.142 1173.17C739.823 1182.22 759.154 1182.21 774.816 1173.17L1344.26 844.401C1348.82 841.771 1351.64 836.916 1351.6 831.706C1351.63 826.461 1348.85 821.616 1344.31 818.997L1056.18 652.64C1052.21 650.353 1054.23 659.225 1054.27 659.323Z" clip-rule="evenodd" opacity=".6"></path><path fill="#0A3CB1" fill-rule="evenodd" d="M747.512 835.1L855.638 897.526C856.862 898.233 858.375 898.233 859.613 897.518C899.155 874.688 963.295 874.717 1002.82 897.534C1021.59 908.373 1031.27 922.38 1031.28 936.598C1031.29 950.816 1021.63 964.776 1002.86 975.615C1001.62 976.33 1000.86 977.64 1000.86 979.066C1000.84 980.487 1001.61 981.801 1002.83 982.508L1110.96 1044.93C1112.85 1046.03 1115.29 1045.37 1116.4 1043.47C1117.5 1041.57 1116.79 1039.17 1114.89 1038.07L1012.49 978.954C1030.52 966.813 1039.26 951.607 1039.24 936.587C1039.28 920.015 1028.67 903.247 1006.83 890.637C965.772 866.934 899.52 866.561 857.612 889.533L751.454 828.242C749.556 827.147 747.183 827.762 746.083 829.668C744.975 831.57 745.614 834.004 747.512 835.1Z" clip-rule="evenodd" opacity=".7"></path><path fill="#0A3CB1" fill-rule="evenodd" d="M1108.98 1041.49V1159.9C1108.98 1162.09 1110.72 1163.87 1112.95 1163.87 1115.09 1163.87 1116.92 1162.09 1116.92 1159.9V1041.49C1116.92 1039.3 1115.09 1037.52 1112.95 1037.52 1110.72 1037.52 1108.98 1039.3 1108.98 1041.49zM382.101 1041.49V1159.9C382.101 1162.09 383.848 1163.87 386.071 1163.87 388.215 1163.87 390.042 1162.09 390.042 1159.9V1041.49C390.042 1039.3 388.215 1037.52 386.071 1037.52 383.848 1037.52 382.101 1039.3 382.101 1041.49z" clip-rule="evenodd" opacity=".7"></path><path fill="#0A3CB1" fill-rule="evenodd" d="M747.533 828.209L639.415 890.631C638.184 891.341 637.427 892.652 637.434 894.077C637.448 895.499 638.205 896.809 639.443 897.524C658.217 908.363 667.865 922.327 667.858 936.545C667.851 950.762 658.174 964.765 639.394 975.609C599.872 998.426 535.739 998.45 496.197 975.621C494.959 974.906 493.446 974.906 492.215 975.617L384.097 1038.04C382.199 1039.13 381.553 1041.57 382.66 1043.47C383.767 1045.38 386.133 1046 388.031 1044.9L494.196 983.606C536.097 1006.58 602.349 1006.21 643.404 982.506C665.252 969.892 675.862 953.124 675.82 936.552C675.834 921.536 667.102 906.33 649.147 894.225C649.078 894.185 751.475 835.066 751.475 835.066C753.373 833.97 754.08 831.576 752.973 829.674C751.873 827.768 749.431 827.113 747.533 828.209Z" clip-rule="evenodd" opacity=".7"></path><path fill="url(#paint6_linear_102_1467)" fill-rule="evenodd" d="M386.051 297.289V408.46L481.419 463.521L494.205 359.712L386.051 297.289Z" clip-rule="evenodd"></path><path fill="url(#paint7_linear_102_1467)" fill-rule="evenodd" d="M463.791 453.326L463.95 398.035L749.498 198.627L1112.95 408.461L1008.61 468.699C1008.05 468.374 1007.49 468.056 1007.02 467.747C966.36 444.29 900.374 444.29 859.797 467.747C819.14 491.196 819.14 529.279 859.797 552.728C860.352 553.046 860.908 553.356 861.464 553.657L749.498 618.295L641.663 556.064L641.267 555.944C600.61 579.322 534.782 579.298 494.204 555.865C472.923 543.589 462.758 527.302 463.791 511.206V453.326Z" clip-rule="evenodd"></path><path fill="url(#paint8_radial_102_1467)" fill-rule="evenodd" d="M1007.02 467.747C1007.41 467.999 1007.85 468.257 1008.3 468.521C1008.4 468.58 1008.5 468.64 1008.61 468.699L1112.95 408.461L749.498 198.627L463.95 398.035L463.791 453.326V511.206C462.758 527.302 472.923 543.589 494.204 555.865C534.782 579.298 600.61 579.322 641.267 555.944L641.663 556.064L749.498 618.295L861.464 553.657C860.908 553.356 860.352 553.046 859.797 552.728C858.247 551.835 856.756 550.92 855.325 549.985C819.199 526.397 820.69 490.302 859.797 467.747C900.374 444.29 966.36 444.29 1007.02 467.747ZM856.669 462.336C878.134 449.927 905.922 443.904 933.377 443.904C960.19 443.904 987.338 449.649 1008.62 461.474L1100.45 408.461L749.817 206.028L470.19 401.3L470.041 453.326V511.406L470.028 511.606C469.203 524.467 477.231 538.859 497.327 550.451C516.442 561.49 541.902 567.196 567.709 567.209C593.515 567.221 618.995 561.541 638.152 550.526L640.489 549.182L644.16 550.289L749.498 611.079L849.311 553.457C832.448 541.608 823.054 526.419 823.054 510.237C823.054 491.836 835.203 474.718 856.669 462.336Z" clip-rule="evenodd"></path><path fill="url(#paint9_linear_102_1467)" fill-rule="evenodd" d="M861.409 442.527L749.453 507.165L641.335 444.742C600.761 468.168 534.771 468.183 494.156 444.734C453.534 421.281 453.568 383.186 494.142 359.761L386.017 297.334L709.781 110.409C734.332 96.2347 764.597 96.2385 789.168 110.425L1112.9 297.33L1008.57 357.561C1008.04 357.252 1007.49 356.938 1006.95 356.624C966.329 333.171 900.408 333.147 859.765 356.612C819.192 380.037 819.165 418.137 859.786 441.59C860.33 441.904 860.873 442.217 861.409 442.527Z" clip-rule="evenodd"></path><path fill="url(#paint10_radial_102_1467)" fill-rule="evenodd" d="M494.142 359.761C453.568 383.186 453.534 421.281 494.156 444.734C534.771 468.183 600.761 468.168 641.335 444.742L749.453 507.165L861.409 442.527L859.786 441.59C819.165 418.137 819.192 380.037 859.765 356.612C900.408 333.147 966.329 333.171 1006.95 356.624L1008.57 357.561L1112.9 297.33L789.168 110.425C764.597 96.2385 734.332 96.2347 709.781 110.409L386.017 297.334L494.142 359.761ZM396.842 297.334L715.194 113.534C726.346 107.095 738.193 104.199 749.464 104.201C760.737 104.203 772.59 107.104 783.755 113.55L1102.07 297.33L1008.48 351.363C964.655 328.342 896.716 329.029 854.353 353.487C812.059 377.905 810.801 417.166 850.673 442.475L749.453 500.915L641.335 438.492L635.922 441.617C598.337 463.317 537.194 463.332 499.569 441.609C461.937 419.883 461.97 384.585 499.555 362.886L504.967 359.761L396.842 297.334Z" clip-rule="evenodd"></path><path fill="#fff" fill-rule="evenodd" d="M720.081 141.701L420.176 314.851C419.912 315.004 419.621 315.218 419.429 315.412L422.068 322.115C422.068 322.115 422.919 322.226 424.107 321.54L723.946 148.428C739.779 139.287 759.202 139.302 774.996 148.42L1074.93 321.589C1076.79 322.66 1079.2 321.997 1080.25 320.161C1081.35 318.287 1080.69 315.926 1078.85 314.859L778.907 141.69C760.712 131.185 738.289 131.189 720.081 141.701Z" clip-rule="evenodd" opacity=".6"></path><path fill="#1662EF" fill-rule="evenodd" d="M861.465 442.487V553.475L749.5 618.295V507.124L861.465 442.487zM1112.95 297.289V408.277L1008.61 468.698V357.528L1112.95 297.289z" clip-rule="evenodd"></path><path fill="url(#paint11_linear_102_1467)" fill-rule="evenodd" d="M641.665 444.893V556.429L749.501 618.295V507.125L641.665 444.893Z" clip-rule="evenodd"></path><defs><linearGradient id="paint0_linear_102_1467" x1="612.5" x2="713.971" y1="841.643" y2="557.652" gradientUnits="userSpaceOnUse"><stop stop-color="#EB6E27"></stop><stop offset=".626" stop-color="#FFD029"></stop><stop offset="1" stop-color="#FFEA9F"></stop></linearGradient><linearGradient id="paint2_linear_102_1467" x1="975.938" x2="807.071" y1="788.082" y2="611.381" gradientUnits="userSpaceOnUse"><stop stop-color="#E88A1C"></stop><stop offset=".626" stop-color="#FFE177"></stop><stop offset="1" stop-color="#FFEBA4"></stop></linearGradient><linearGradient id="paint4_linear_102_1467" x1="1372.58" x2="73.508" y1="1190.47" y2="1190.47" gradientUnits="userSpaceOnUse"><stop stop-color="#5297FF"></stop><stop offset=".045" stop-color="#5386F9"></stop><stop offset=".487" stop-color="#0926C6"></stop><stop offset=".943" stop-color="#466DF6"></stop><stop offset=".987" stop-color="#5297FF"></stop></linearGradient><linearGradient id="paint5_linear_102_1467" x1="325.021" x2="458.326" y1="895.888" y2="1339.02" gradientUnits="userSpaceOnUse"><stop stop-color="#3EBAFF"></stop><stop offset="1" stop-color="#1433FF"></stop></linearGradient><linearGradient id="paint6_linear_102_1467" x1="475" x2="392.157" y1="450" y2="297.471" gradientUnits="userSpaceOnUse"><stop stop-color="#031642"></stop><stop offset="1" stop-color="#1850D0"></stop></linearGradient><linearGradient id="paint7_linear_102_1467" x1="448.358" x2="1061.6" y1="277.218" y2="183.228" gradientUnits="userSpaceOnUse"><stop stop-color="#295FEC"></stop><stop offset=".085" stop-color="#0A34A0"></stop><stop offset=".565" stop-color="#2072FB"></stop><stop offset=".819" stop-color="#001AC1"></stop><stop offset=".895" stop-color="#0A35D2"></stop><stop offset="1" stop-color="#2579FE"></stop></linearGradient><linearGradient id="paint9_linear_102_1467" x1="1212.5" x2="1256.06" y1="406.25" y2="113.823" gradientUnits="userSpaceOnUse"><stop stop-color="#3EBAFF"></stop><stop offset="1" stop-color="#3B66EE"></stop></linearGradient><linearGradient id="paint11_linear_102_1467" x1="637.5" x2="750" y1="518.75" y2="562.5" gradientUnits="userSpaceOnUse"><stop stop-color="#031642"></stop><stop offset="1" stop-color="#1850D0"></stop></linearGradient><radialGradient id="paint1_radial_102_1467" cx="0" cy="0" r="1" gradientTransform="rotate(100.491 84.717 503.96) scale(280.096 372.98)" gradientUnits="userSpaceOnUse"><stop stop-color="#fff"></stop><stop offset="1" stop-color="#fff" stop-opacity="0"></stop></radialGradient><radialGradient id="paint3_radial_102_1467" cx="0" cy="0" r="1" gradientTransform="rotate(97.264 299.328 626.974) scale(403.336 314.918)" gradientUnits="userSpaceOnUse"><stop stop-color="#fff"></stop><stop offset="1" stop-color="#fff" stop-opacity="0"></stop></radialGradient><radialGradient id="paint8_radial_102_1467" cx="0" cy="0" r="1" gradientTransform="matrix(-91.1033 367.38883 -576.6965 -143.0064 838.228 224.532)" gradientUnits="userSpaceOnUse"><stop stop-color="#fff"></stop><stop offset="1" stop-color="#fff" stop-opacity="0"></stop></radialGradient><radialGradient id="paint10_radial_102_1467" cx="0" cy="0" r="1" gradientTransform="matrix(-317.1446 -408.38918 726.25399 -563.99029 828.72 674.471)" gradientUnits="userSpaceOnUse"><stop stop-color="#fff"></stop><stop offset="1" stop-color="#fff" stop-opacity="0"></stop></radialGradient><filter id="filter0_d_102_1467" width="391.436" height="586.07" x="372.029" y="356.884" color-interpolation-filters="sRGB" filterUnits="userSpaceOnUse"><feFlood flood-opacity="0" result="BackgroundImageFix"></feFlood><feColorMatrix in="SourceAlpha" result="hardAlpha" values="0 0 0 0 0 0 0 0 0 0 0 0 0 0 0 0 0 0 127 0"></feColorMatrix><feOffset dy="1"></feOffset><feGaussianBlur stdDeviation="7"></feGaussianBlur><feComposite in2="hardAlpha" operator="out"></feComposite><feColorMatrix values="0 0 0 0 1 0 0 0 0 0.733583 0 0 0 0 0.420833 0 0 0 0.83 0"></feColorMatrix><feBlend in2="BackgroundImageFix" result="effect1_dropShadow_102_1467"></feBlend><feBlend in="SourceGraphic" in2="effect1_dropShadow_102_1467" result="shape"></feBlend></filter><filter id="filter1_d_102_1467" width="391.436" height="586.07" x="372.029" y="356.884" color-interpolation-filters="sRGB" filterUnits="userSpaceOnUse"><feFlood flood-opacity="0" result="BackgroundImageFix"></feFlood><feColorMatrix in="SourceAlpha" result="hardAlpha" values="0 0 0 0 0 0 0 0 0 0 0 0 0 0 0 0 0 0 127 0"></feColorMatrix><feOffset dy="1"></feOffset><feGaussianBlur stdDeviation="7"></feGaussianBlur><feComposite in2="hardAlpha" operator="out"></feComposite><feColorMatrix values="0 0 0 0 1 0 0 0 0 0.733583 0 0 0 0 0.420833 0 0 0 0.83 0"></feColorMatrix><feBlend in2="BackgroundImageFix" result="effect1_dropShadow_102_1467"></feBlend><feBlend in="SourceGraphic" in2="effect1_dropShadow_102_1467" result="shape"></feBlend></filter><filter id="filter2_d_102_1467" width="391.436" height="661.229" x="735.467" y="281.4" color-interpolation-filters="sRGB" filterUnits="userSpaceOnUse"><feFlood flood-opacity="0" result="BackgroundImageFix"></feFlood><feColorMatrix in="SourceAlpha" result="hardAlpha" values="0 0 0 0 0 0 0 0 0 0 0 0 0 0 0 0 0 0 127 0"></feColorMatrix><feOffset dy="1"></feOffset><feGaussianBlur stdDeviation="7"></feGaussianBlur><feComposite in2="hardAlpha" operator="out"></feComposite><feColorMatrix values="0 0 0 0 1 0 0 0 0 0.733583 0 0 0 0 0.420833 0 0 0 0.83 0"></feColorMatrix><feBlend in2="BackgroundImageFix" result="effect1_dropShadow_102_1467"></feBlend><feBlend in="SourceGraphic" in2="effect1_dropShadow_102_1467" result="shape"></feBlend></filter><filter id="filter3_d_102_1467" width="391.436" height="661.229" x="735.467" y="281.4" color-interpolation-filters="sRGB" filterUnits="userSpaceOnUse"><feFlood flood-opacity="0" result="BackgroundImageFix"></feFlood><feColorMatrix in="SourceAlpha" result="hardAlpha" values="0 0 0 0 0 0 0 0 0 0 0 0 0 0 0 0 0 0 127 0"></feColorMatrix><feOffset dy="1"></feOffset><feGaussianBlur stdDeviation="7"></feGaussianBlur><feComposite in2="hardAlpha" operator="out"></feComposite><feColorMatrix values="0 0 0 0 1 0 0 0 0 0.733583 0 0 0 0 0.420833 0 0 0 0.83 0"></feColorMatrix><feBlend in2="BackgroundImageFix" result="effect1_dropShadow_102_1467"></feBlend><feBlend in="SourceGraphic" in2="effect1_dropShadow_102_1467" result="shape"></feBlend></filter></defs></svg>