<svg width="50" height="46" viewBox="0 0 50 46" fill="none" xmlns="http://www.w3.org/2000/svg">
<path d="M8.11688 21.5216L4.23797 24.9976L4.23959 24.9994C4.00591 25.2087 3.64665 25.1891 3.43728 24.9554C3.4132 24.9285 3.39226 24.9002 3.37432 24.8704L0.10721 20.2999L0.105937 20.3008C-0.0764695 20.0455 -0.0174421 19.6906 0.237764 19.5082C0.368898 19.4146 0.526188 19.3846 0.672947 19.412L2.29261 19.6587C2.62606 17.3076 3.31853 15.0431 4.34318 12.93C5.44896 10.6496 6.93899 8.54844 8.77914 6.70829C13.2513 2.2361 19.1256 0 24.9997 0C30.8738 0 36.7482 2.2361 41.2203 6.70829C42.558 8.04589 43.7252 9.54831 44.6951 11.1704C45.6643 12.7913 46.4326 14.5266 46.973 16.3309L46.9738 16.3307C47.0638 16.6313 46.8931 16.948 46.5924 17.038C46.5828 17.0409 46.5731 17.0434 46.5635 17.0458L43.6179 17.9282L43.6181 17.9289C43.3176 18.019 43.0008 17.8483 42.9107 17.5477C42.9081 17.5385 42.9055 17.5294 42.9032 17.5201C42.4619 16.0566 41.8391 14.6522 41.056 13.3432C40.2694 12.0285 39.3171 10.8044 38.2206 9.7078C34.576 6.06315 29.7879 4.24083 24.9997 4.24083C20.2116 4.24083 15.4237 6.06327 11.7789 9.7078C10.2627 11.224 9.03979 12.9518 8.13852 14.8232C7.31109 16.5411 6.75288 18.3826 6.48564 20.295L7.86167 20.5044L7.86283 20.5041C8.17301 20.5514 8.3862 20.8412 8.33898 21.1514C8.3156 21.3054 8.2325 21.4354 8.11688 21.5216ZM41.8827 24.3362L45.7617 20.8602L45.7601 20.8584C45.9938 20.649 46.3531 20.6687 46.5624 20.9024C46.5864 20.9291 46.6073 20.9575 46.6253 20.9871L49.8924 25.5578L49.8937 25.5569C50.0761 25.8121 50.017 26.1671 49.7618 26.3495C49.6307 26.4432 49.4734 26.4731 49.3267 26.4456L47.7071 26.1989C47.3737 28.5499 46.6811 30.8146 45.6564 32.9277C44.5505 35.2081 43.0607 37.3091 41.2205 39.1493C36.7484 43.6215 30.8741 45.8575 25 45.8575C19.1259 45.8575 13.2514 43.6215 8.77937 39.1493C7.44176 37.8117 6.27453 36.3092 5.30474 34.6871C4.33554 33.0662 3.56725 31.3309 3.02675 29.5266L3.02594 29.5269C2.93589 29.2263 3.10661 28.9096 3.40719 28.8196C3.41668 28.8167 3.42628 28.8141 3.43577 28.8118L6.38182 27.9293L6.38159 27.9286C6.68216 27.8386 6.99883 28.0093 7.08899 28.3099C7.09165 28.319 7.0942 28.3283 7.09651 28.3374C7.53783 29.8009 8.16063 31.2053 8.94372 32.5144C9.73018 33.829 10.6825 35.053 11.779 36.1495L11.7792 36.1497C15.4239 39.7943 20.2119 41.6166 24.9999 41.6166C29.7879 41.6166 34.5757 39.7943 38.2204 36.1497L38.2206 36.1495C39.7368 34.6333 40.9598 32.9054 41.8611 31.0342C42.6885 29.3162 43.2468 27.4747 43.514 25.5624L42.1379 25.3529L42.1368 25.3532C41.8266 25.306 41.6134 25.0161 41.6606 24.706C41.684 24.5523 41.7671 24.4224 41.8827 24.3362Z" fill="#00B2F4"/>
<path d="M38.8202 21.032V24.8204C38.8232 25.1002 38.619 25.3463 38.3344 25.3879L38.3342 25.3871L35.822 25.7553C35.6916 26.257 35.5285 26.7423 35.3352 27.2087C35.1374 27.6858 34.9084 28.1453 34.6507 28.5843L36.1395 30.5843C36.335 30.8075 36.3263 31.1472 36.1135 31.3599H36.1133L33.4386 34.0348C33.2431 34.2383 32.9222 34.2694 32.69 34.0966L32.691 34.0951L30.6553 32.5797C30.2163 32.8373 29.7569 33.0664 29.2798 33.264C28.8135 33.4573 28.3282 33.6204 27.8264 33.7509L27.4622 36.2352C27.4349 36.5235 27.1921 36.7491 26.8966 36.7491H23.1083C22.8285 36.7521 22.5824 36.5479 22.5408 36.2632L22.5414 36.263L22.1734 33.7509C21.6715 33.6204 21.1862 33.4573 20.7199 33.2639C20.2429 33.0661 19.7835 32.8372 19.3445 32.5796L17.3446 34.0682C17.1215 34.2638 16.7816 34.2552 16.5687 34.0424H16.5688L13.8944 31.368C13.6905 31.1726 13.6592 30.8512 13.8322 30.6188L13.8336 30.6199L15.349 28.5842C15.0914 28.1452 14.8623 27.6857 14.6645 27.2087C14.4712 26.7423 14.3082 26.2572 14.1777 25.7553L11.6936 25.3913C11.4053 25.364 11.1797 25.1212 11.1797 24.8257V21.0373C11.1767 20.7574 11.3809 20.5114 11.6656 20.4697L11.6658 20.4704L14.1777 20.1023C14.3082 19.6006 14.4712 19.1153 14.6645 18.6491C14.8623 18.1719 15.0914 17.7124 15.349 17.2734L13.8604 15.2735C13.6648 15.0504 13.6733 14.7106 13.8862 14.4976L16.5612 11.8228C16.7565 11.6192 17.0776 11.5882 17.3098 11.7611L17.3087 11.7625L19.3445 13.2778C19.7835 13.0202 20.243 12.7912 20.7202 12.5934C21.1864 12.4001 21.6717 12.237 22.1734 12.1066L22.5374 9.62232C22.5647 9.33401 22.8075 9.10843 23.103 9.10843H26.8913C27.1712 9.10542 27.4172 9.30959 27.4589 9.59419L27.4583 9.59454L27.8265 12.1067C28.3282 12.2371 28.8135 12.4002 29.2797 12.5935C29.7569 12.7913 30.2163 13.0203 30.6554 13.278L32.6555 11.7891C32.8786 11.5936 33.2183 11.6023 33.4312 11.8151L36.1054 14.4895C36.3093 14.6849 36.3407 15.0063 36.1676 15.2387L36.1661 15.2377L34.6507 17.2734C34.9084 17.7125 35.1375 18.1719 35.3353 18.6491C35.5286 19.1153 35.6917 19.6006 35.8221 20.1023L38.3064 20.4663C38.5947 20.4937 38.8202 20.7365 38.8202 21.032Z" fill="#00B2F4"/>
<path d="M33.0883 22.929C33.0883 25.1627 32.1829 27.185 30.719 28.6488C29.2551 30.1127 27.2328 31.0181 24.9992 31.0181C22.7656 31.0181 20.7432 30.1127 19.2795 28.6488C17.8157 27.1849 16.9102 25.1626 16.9102 22.929C16.9102 20.6954 17.8156 18.673 19.2795 17.2092C20.7433 15.7453 22.7657 14.8398 24.9992 14.8398C27.2329 14.8398 29.2552 15.7453 30.719 17.2092C32.1829 18.673 33.0883 20.6954 33.0883 22.929Z" fill="black"/>
<path d="M22.405 26.6615L20.4565 24.713C20.1287 24.3852 19.9648 23.9557 19.9648 23.5261C19.9648 23.0965 20.1288 22.667 20.4565 22.3392C20.7843 22.0114 21.2138 21.8475 21.6433 21.8475C22.0728 21.8475 22.5024 22.0115 22.8301 22.3392L23.4574 22.9666L27.1716 19.2524L27.1719 19.2522L27.1717 19.2521C27.1844 19.2396 27.1973 19.2278 27.2107 19.2166C27.5334 18.9127 27.9462 18.7607 28.3584 18.7607C28.7864 18.7607 29.215 18.9246 29.5428 19.2522L29.545 19.2521L29.5453 19.2523C29.5581 19.265 29.5701 19.2783 29.5814 19.292C29.8853 19.6147 30.037 20.0274 30.037 20.4393C30.037 20.8672 29.8732 21.2958 29.5456 21.6236L29.5457 21.6258L29.5405 21.6309L24.5101 26.6614C24.2193 26.952 23.8383 27.0975 23.4575 27.0975C23.0766 27.0976 22.6957 26.9521 22.405 26.6615Z" fill="#00B2F4"/>
</svg>
