<svg xmlns="http://www.w3.org/2000/svg" data-name="Layer 1" viewBox="0 0 250 250" id="buy-and-sell"><defs><clipPath id="a"><path fill="none" d="M51.5,205.49c40.53,38.87,119.92,20.67,160.52,0S222.7,135.19,233.44,93C242.55,57.2,207,25.55,172.67,27c-.61,0-1.22.06-1.82.11A49.85,49.85,0,0,0,154.76,31C116.6,47.52,113.55,57.9,78,56.62-13.83,53.31,11,166.62,51.5,205.49Z"></path></clipPath></defs><path fill="#e6ebef" d="M172.67,27c-.61,0-1.22.06-1.82.11A49.85,49.85,0,0,0,154.76,31C116.6,47.52,113.55,57.9,78,56.62c-91.8-3.31-67,110-26.47,148.87s119.92,20.67,160.52,0S222.7,135.19,233.44,93C242.55,57.2,207,25.55,172.67,27Z"></path><path fill="#e6ebef" d="M51.5,205.49c40.53,38.87,119.92,20.67,160.52,0S222.7,135.19,233.44,93C242.55,57.2,207,25.55,172.67,27c-.61,0-1.22.06-1.82.11A49.85,49.85,0,0,0,154.76,31C116.6,47.52,113.55,57.9,78,56.62-13.83,53.31,11,166.62,51.5,205.49Z"></path><path fill="#e6ebef" d="M80,41.34a3.46,3.46,0,0,0,2.64,3.82A46.14,46.14,0,0,0,127,31.46C146.88,10.48,82.49,21.85,80,41.34Z"></path><rect width="189.8" height="1.44" x="28.93" y="228.33" fill="#061833"></rect><g clip-path="url(#a)"><polygon fill="#c7d0db" points="67.66 78.45 53.81 78.45 53.81 41.4 50.26 41.4 50.26 78.45 37.4 78.45 37.4 86.2 21.57 86.2 21.57 241.57 75.08 241.57 75.08 86.2 67.66 86.2 67.66 78.45"></polygon><rect width="7.42" height="139.76" x="21.57" y="86.21" fill="#aab6c2"></rect><rect width="53.51" height="118.36" x="48.33" y="123.21" fill="#c7d0db"></rect><rect width="7.42" height="118.36" x="48.33" y="123.21" fill="#aab6c2"></rect><rect width="7.68" height="3.19" x="86.69" y="128.26" fill="#aab6c2"></rect><rect width="7.68" height="3.19" x="73.76" y="128.26" fill="#aab6c2"></rect><rect width="7.68" height="3.19" x="86.69" y="139.86" fill="#aab6c2"></rect><rect width="7.68" height="3.19" x="73.76" y="139.86" fill="#aab6c2"></rect><rect width="7.68" height="3.19" x="60.83" y="139.86" fill="#aab6c2"></rect><rect width="7.68" height="3.19" x="86.69" y="151.46" fill="#aab6c2"></rect><rect width="7.68" height="3.19" x="60.83" y="151.46" fill="#aab6c2"></rect><rect width="7.68" height="3.19" x="73.76" y="157.27" fill="#aab6c2"></rect><rect width="7.68" height="3.19" x="86.69" y="163.07" fill="#aab6c2"></rect><rect width="7.68" height="3.19" x="73.76" y="168.87" fill="#aab6c2"></rect><rect width="7.68" height="3.19" x="86.69" y="174.67" fill="#aab6c2"></rect><rect width="7.68" height="3.19" x="60.83" y="174.67" fill="#aab6c2"></rect><rect width="7.68" height="3.19" x="86.69" y="185.39" fill="#aab6c2"></rect><rect width="7.68" height="3.19" x="73.76" y="185.39" fill="#aab6c2"></rect><rect width="7.68" height="3.19" x="86.69" y="197" fill="#aab6c2"></rect><rect width="7.68" height="3.19" x="73.76" y="197" fill="#aab6c2"></rect><rect width="7.68" height="3.19" x="60.83" y="197" fill="#aab6c2"></rect><rect width="7.68" height="3.19" x="86.69" y="208.6" fill="#aab6c2"></rect><rect width="7.68" height="3.19" x="60.83" y="208.6" fill="#aab6c2"></rect><rect width="7.68" height="3.19" x="73.76" y="214.4" fill="#aab6c2"></rect><rect width="7.68" height="3.19" x="60.83" y="214.4" fill="#aab6c2"></rect><rect width="7.68" height="3.19" x="86.69" y="220.2" fill="#aab6c2"></rect><rect width="7.68" height="3.19" x="73.76" y="226" fill="#aab6c2"></rect><rect width="7.68" height="3.19" x="86.69" y="231.8" fill="#aab6c2"></rect><rect width="7.68" height="3.19" x="60.83" y="231.8" fill="#aab6c2"></rect><rect width="53.51" height="118.36" x="176.35" y="123.21" fill="#c7d0db"></rect><rect width="7.42" height="118.36" x="176.35" y="123.21" fill="#aab6c2"></rect><rect width="71.79" height="174.66" x="100.34" y="66.92" fill="#c7d0db"></rect><rect width="7.42" height="174.66" x="100.34" y="66.92" fill="#aab6c2"></rect><rect width="11.21" height="4.65" x="153.36" y="75.28" fill="#aab6c2"></rect><rect width="11.21" height="4.65" x="134.48" y="75.28" fill="#aab6c2"></rect><rect width="11.21" height="4.65" x="153.36" y="92.23" fill="#aab6c2"></rect><rect width="11.21" height="4.65" x="134.48" y="92.23" fill="#aab6c2"></rect><rect width="11.21" height="4.65" x="115.61" y="92.23" fill="#aab6c2"></rect><rect width="11.21" height="4.65" x="153.36" y="109.17" fill="#aab6c2"></rect><rect width="11.21" height="4.65" x="115.61" y="109.17" fill="#aab6c2"></rect><rect width="11.21" height="4.65" x="134.48" y="117.64" fill="#aab6c2"></rect><rect width="11.21" height="4.65" x="153.36" y="126.11" fill="#aab6c2"></rect><rect width="11.21" height="4.65" x="134.48" y="134.59" fill="#aab6c2"></rect><rect width="11.21" height="4.65" x="153.36" y="143.06" fill="#aab6c2"></rect><rect width="11.21" height="4.65" x="115.61" y="143.06" fill="#aab6c2"></rect><rect width="11.21" height="4.65" x="153.36" y="158.72" fill="#aab6c2"></rect><rect width="11.21" height="4.65" x="134.48" y="158.72" fill="#aab6c2"></rect><rect width="11.21" height="4.65" x="153.36" y="175.66" fill="#aab6c2"></rect><rect width="11.21" height="4.65" x="134.48" y="175.66" fill="#aab6c2"></rect><rect width="11.21" height="4.65" x="115.61" y="175.66" fill="#aab6c2"></rect><rect width="11.21" height="4.65" x="153.36" y="192.6" fill="#aab6c2"></rect><rect width="11.21" height="4.65" x="115.61" y="192.6" fill="#aab6c2"></rect><rect width="11.21" height="4.65" x="134.48" y="201.08" fill="#aab6c2"></rect><rect width="11.21" height="4.65" x="115.61" y="201.08" fill="#aab6c2"></rect><rect width="11.21" height="4.65" x="153.36" y="209.55" fill="#aab6c2"></rect><rect width="11.21" height="4.65" x="134.48" y="218.02" fill="#aab6c2"></rect><rect width="11.21" height="4.65" x="153.36" y="226.49" fill="#aab6c2"></rect><rect width="11.21" height="4.65" x="115.61" y="226.49" fill="#aab6c2"></rect><rect width="70.36" height="161.64" x="213.22" y="79.94" fill="#c7d0db"></rect><rect width="7.27" height="161.64" x="213.22" y="79.94" fill="#aab6c2"></rect><rect width="10.99" height="4.31" x="246.68" y="87.68" fill="#aab6c2"></rect><rect width="10.99" height="4.31" x="246.68" y="103.36" fill="#aab6c2"></rect><rect width="10.99" height="4.31" x="228.17" y="103.36" fill="#aab6c2"></rect><rect width="10.99" height="4.31" x="228.17" y="119.04" fill="#aab6c2"></rect><rect width="10.99" height="4.31" x="246.68" y="126.88" fill="#aab6c2"></rect><rect width="10.99" height="4.31" x="246.68" y="142.56" fill="#aab6c2"></rect><rect width="10.99" height="4.31" x="228.17" y="150.4" fill="#aab6c2"></rect><rect width="10.99" height="4.31" x="246.68" y="164.89" fill="#aab6c2"></rect><rect width="10.99" height="4.31" x="246.68" y="180.57" fill="#aab6c2"></rect><rect width="10.99" height="4.31" x="228.17" y="180.57" fill="#aab6c2"></rect><rect width="10.99" height="4.31" x="228.17" y="196.25" fill="#aab6c2"></rect><rect width="10.99" height="4.31" x="246.68" y="204.09" fill="#aab6c2"></rect><rect width="10.99" height="4.31" x="228.17" y="204.09" fill="#aab6c2"></rect><rect width="10.99" height="4.31" x="246.68" y="219.77" fill="#aab6c2"></rect><rect width="10.99" height="4.31" x="228.17" y="227.61" fill="#aab6c2"></rect><rect width="45.32" height="110.25" x="-14.18" y="131.33" fill="#c7d0db"></rect><rect width="7.08" height="2.94" x="19.29" y="136.61" fill="#aab6c2"></rect><rect width="7.08" height="2.94" x="7.37" y="136.61" fill="#aab6c2"></rect><rect width="7.08" height="2.94" x="19.29" y="147.3" fill="#aab6c2"></rect><rect width="7.08" height="2.94" x="7.37" y="147.3" fill="#aab6c2"></rect><rect width="7.08" height="2.94" x="-4.55" y="147.3" fill="#aab6c2"></rect><rect width="7.08" height="2.94" x="19.29" y="158" fill="#aab6c2"></rect><rect width="7.08" height="2.94" x="-4.55" y="158" fill="#aab6c2"></rect><rect width="7.08" height="2.94" x="7.37" y="163.35" fill="#aab6c2"></rect><rect width="7.08" height="2.94" x="19.29" y="168.69" fill="#aab6c2"></rect><rect width="7.08" height="2.94" x="7.37" y="174.04" fill="#aab6c2"></rect><rect width="7.08" height="2.94" x="19.29" y="179.39" fill="#aab6c2"></rect><rect width="7.08" height="2.94" x="-4.55" y="179.39" fill="#aab6c2"></rect><rect width="7.08" height="2.94" x="19.29" y="189.27" fill="#aab6c2"></rect><rect width="7.08" height="2.94" x="7.37" y="189.27" fill="#aab6c2"></rect><rect width="7.08" height="2.94" x="19.29" y="199.97" fill="#aab6c2"></rect><rect width="7.08" height="2.94" x="7.37" y="199.97" fill="#aab6c2"></rect><rect width="7.08" height="2.94" x="-4.55" y="199.97" fill="#aab6c2"></rect><rect width="7.08" height="2.94" x="19.29" y="210.66" fill="#aab6c2"></rect><rect width="7.08" height="2.94" x="-4.55" y="210.66" fill="#aab6c2"></rect><rect width="7.08" height="2.94" x="7.37" y="216.01" fill="#aab6c2"></rect><rect width="7.08" height="2.94" x="-4.55" y="216.01" fill="#aab6c2"></rect><rect width="7.08" height="2.94" x="19.29" y="221.36" fill="#aab6c2"></rect><rect width="7.08" height="2.94" x="7.37" y="226.71" fill="#aab6c2"></rect><rect width="7.08" height="2.94" x="19.29" y="232.05" fill="#aab6c2"></rect><rect width="7.08" height="2.94" x="-4.55" y="232.05" fill="#aab6c2"></rect><rect width="192.05" height="218.97" x="-42.58" y="13.33" fill="#fff" opacity=".35"></rect><polygon fill="#fff" points="8.64 228.35 23.54 228.35 103.45 15.84 88.54 15.84 8.64 228.35" opacity=".5"></polygon><polygon fill="#fff" points="-10.23 228.35 -2.78 228.35 77.13 15.84 69.67 15.84 -10.23 228.35" opacity=".5"></polygon><polygon fill="#fff" points="86.21 228.35 147.26 53.94 147.26 38.65 78.76 228.35 86.21 228.35" opacity=".5"></polygon><rect width="192.05" height="218.97" x="150.49" y="9" fill="#fff" opacity=".35"></rect><polygon fill="#fff" points="167.34 228.35 182.25 228.35 262.15 15.84 247.25 15.84 167.34 228.35" opacity=".5"></polygon><polygon fill="#fff" points="148.48 228.35 155.93 228.35 235.83 15.84 228.38 15.84 148.48 228.35" opacity=".5"></polygon><path fill="#fff" d="M343.65,10.83H-44.68v5h4.19v1.77H83.36V50.32h-128v2.51h128v64.3h-128v2.51h128v64.3h-128v2.51h128v41.9H-40.45v1.45h-4.23v5.8H343.65v-.47h0V186.45h6.9v-2.51h-6.9v-64.3h6.9v-2.51h-6.9V52.83h6.9V50.32h-6.9Zm-196.27,219h0v-1.45H87.56v-41.9h59.82Zm0-45.86H87.56v-64.3h59.82Zm0-66.81H87.56V52.83h59.82Zm0-66.81H87.56V17.61h59.82Zm64,178H151.62v1.45h0V186.45h59.81Zm0-44.41H151.6v-64.3h59.81Zm0-66.81H151.6V52.83h59.81Zm0-66.81H151.6V17.61h59.81Zm64,178H215.61v-41.9h59.82Zm0-44.41H215.61v-64.3h59.82Zm0-66.81H215.61V52.83h59.82Zm0-66.81H215.61V17.61h59.82Zm64,179.48h0v-1.45h-59.8v-41.9h59.82Zm0-45.86H279.63v-64.3h59.82Zm0-66.81H279.63V52.83h59.82Zm0-66.81H279.63V17.61h59.82Z"></path></g><rect width="94.95" height="169.62" x="41.41" y="49.02" fill="#fff" transform="rotate(-.11 88.423 130.303)"></rect><path fill="#061833" d="M41,48.87,41.32,219l95.45-.19-.32-170.13Zm.82,169.62L41.5,49.37,136,49.18l.32,169.12Z"></path><path fill="#061833" d="M51.93,212.9a12.17,12.17,0,0,1-12.18-12.13L39.5,62.19A12.14,12.14,0,0,1,51.62,50l19.92-.11,27.95-.06V42.68l-55.19-.32A12.16,12.16,0,0,0,32.16,54.54l.31,161.9a12.14,12.14,0,0,0,12.18,12.12L99.83,228l0-15Z"></path><path fill="#aab6c2" d="M134.13,42.27H49.27q-.42,0-.84,0A12.16,12.16,0,0,0,37.12,54.44l0,161.89a12.14,12.14,0,0,0,11.33,12.13,7.58,7.58,0,0,0,.83,0h84.86a7.88,7.88,0,0,0,7.87-7.87l0-170.46A7.88,7.88,0,0,0,134.13,42.27Zm-7.28,170.56H52.34A7.88,7.88,0,0,1,44.46,205l0-147.13A7.88,7.88,0,0,1,52.31,50h74.51a7.87,7.87,0,0,1,7.87,7.87l0,147.14A7.87,7.87,0,0,1,126.85,212.83Z"></path><path fill="#061833" d="M99.85,216.93l-20.23,0a3.68,3.68,0,1,0,0,7.35l20.23,0a3.68,3.68,0,0,0,0-7.35Z"></path><polygon fill="#061833" points="51.55 160.62 92.12 160.62 92.17 158.45 51.51 158.45 51.55 160.62"></polygon><polygon fill="#061833" points="51.67 167.13 124.73 167.13 124.81 164.97 51.63 164.97 51.67 167.13"></polygon><polygon fill="#061833" points="51.8 173.6 119.39 173.6 119.48 171.45 51.76 171.45 51.8 173.6"></polygon><polygon fill="#061833" points="96.36 160.62 108.89 160.62 108.96 158.45 96.42 158.45 96.36 160.62"></polygon><path fill="#f26a42" d="M127.93,187.52H97.64a1.93,1.93,0,0,0-1.93,1.92V198a1.93,1.93,0,0,0,1.93,1.92h29.43A1.92,1.92,0,0,0,129,198v-9.42A1.05,1.05,0,0,0,127.93,187.52Z"></path><path fill="#061833" d="M127.93,187.17H97.64a2.27,2.27,0,0,0-2.27,2.27V198a2.26,2.26,0,0,0,2.27,2.26h29.43a2.26,2.26,0,0,0,2.26-2.26v-9.42A1.4,1.4,0,0,0,127.93,187.17Zm.72,10.83a1.58,1.58,0,0,1-1.58,1.58H97.64A1.59,1.59,0,0,1,96.05,198v-8.56a1.59,1.59,0,0,1,1.59-1.58h30.29a.72.72,0,0,1,.72.72Z"></path><path fill="#061833" d="M108.43 193.85a1.33 1.33 0 00.56-.49 1.3 1.3 0 000-1.35 1.37 1.37 0 00-.42-.47 1.4 1.4 0 00-.58-.22 5.73 5.73 0 00-1-.06h-2.21v5.52h1.88c.71 0 1.16 0 1.34 0a1.56 1.56 0 00.75-.26 1.5 1.5 0 00.48-.57 1.73 1.73 0 00.17-.73 1.31 1.31 0 00-.27-.83A1.45 1.45 0 00108.43 193.85zM106 192.18h.63c.53 0 .85 0 1 0a.69.69 0 01.42.19.64.64 0 01.14.42.58.58 0 01-.17.43.75.75 0 01-.45.2c-.1 0-.37 0-.8 0H106zm2.19 3.42a.65.65 0 01-.4.21 3.94 3.94 0 01-.76 0h-1v-1.48h.9a3.85 3.85 0 011 .08.72.72 0 01.35.26.7.7 0 01.12.42A.67.67 0 01108.16 195.6zM113.69 194.31a6.57 6.57 0 010 .94.76.76 0 01-.29.48 1.11 1.11 0 01-.71.19 1.25 1.25 0 01-.74-.2.91.91 0 01-.34-.55 5.93 5.93 0 010-.92v-3h-1.11v3a6.93 6.93 0 00.1 1.39 1.63 1.63 0 001 1.09 3.08 3.08 0 001.2.18 2.85 2.85 0 001.06-.16 1.88 1.88 0 00.65-.45 1.57 1.57 0 00.33-.7 7.42 7.42 0 00.09-1.4v-2.9h-1.11z"></path><polygon fill="#061833" points="118.01 193.44 116.71 191.26 115.41 191.26 117.43 194.46 117.43 196.78 118.54 196.78 118.54 194.47 120.56 191.26 119.28 191.26 118.01 193.44"></polygon><path fill="#f26a42" d="M84.07,187.52H53.77a1.92,1.92,0,0,0-1.92,1.92V198a1.92,1.92,0,0,0,1.92,1.92H83.21A1.92,1.92,0,0,0,85.13,198v-9.42A1.05,1.05,0,0,0,84.07,187.52Z"></path><path fill="#061833" d="M84.07,187.17H53.77a2.27,2.27,0,0,0-2.26,2.27V198a2.26,2.26,0,0,0,2.26,2.26H83.21A2.26,2.26,0,0,0,85.47,198v-9.42A1.4,1.4,0,0,0,84.07,187.17ZM84.79,198a1.58,1.58,0,0,1-1.58,1.58H53.77A1.58,1.58,0,0,1,52.19,198v-8.56a1.58,1.58,0,0,1,1.58-1.58h30.3a.72.72,0,0,1,.72.72Z"></path><path fill="#061833" d="M63,193.84a4.47,4.47,0,0,0-.86-.25H62a4.09,4.09,0,0,1-.56-.14.69.69,0,0,1-.34-.2.49.49,0,0,1-.13-.37h0a.47.47,0,0,1,.26-.43,1.36,1.36,0,0,1,.73-.16,2,2,0,0,1,.66.12,2.59,2.59,0,0,1,.66.34l.44-.88a2.73,2.73,0,0,0-.56-.3,3,3,0,0,0-.6-.2,3.07,3.07,0,0,0-.6-.07,2.72,2.72,0,0,0-1.09.2,1.5,1.5,0,0,0-.69.57,1.69,1.69,0,0,0-.24.91h0a1.53,1.53,0,0,0,.25.92,1.39,1.39,0,0,0,.62.46,4.94,4.94,0,0,0,.91.21h.12a3.85,3.85,0,0,1,.52.11.78.78,0,0,1,.32.19.5.5,0,0,1,.12.35h0a.53.53,0,0,1-.27.48,1.47,1.47,0,0,1-.79.18,2.5,2.5,0,0,1-.85-.15,2.16,2.16,0,0,1-.73-.4l-.48.85a2.55,2.55,0,0,0,.59.37,3.28,3.28,0,0,0,.71.23,3.22,3.22,0,0,0,.76.08,2.94,2.94,0,0,0,1.13-.19,1.59,1.59,0,0,0,.72-.57,1.63,1.63,0,0,0,.24-.9h0a1.53,1.53,0,0,0-.23-.88A1.32,1.32,0,0,0,63,193.84Z"></path><rect width=".66" height=".99" x="65.02" y="195.8" fill="#061833"></rect><rect width="2.64" height=".99" x="65.68" y="195.8" fill="#061833"></rect><rect width="2.22" height=".99" x="65.68" y="193.58" fill="#061833"></rect><rect width=".66" height=".99" x="65.02" y="193.58" fill="#061833"></rect><rect width="2.64" height=".99" x="65.68" y="191.32" fill="#061833"></rect><polygon fill="#061833" points="65.02 191.32 64.65 191.32 64.65 196.8 65.02 196.8 65.02 195.8 65.68 195.8 65.68 194.57 65.02 194.57 65.02 193.58 65.68 193.58 65.68 192.31 65.02 192.31 65.02 191.32"></polygon><rect width=".66" height=".99" x="65.02" y="191.32" fill="#061833"></rect><rect width="2.64" height=".99" x="70.29" y="195.8" fill="#061833"></rect><polygon fill="#061833" points="70.29 195.8 70.29 191.32 69.26 191.32 69.26 196.8 69.72 196.8 69.72 195.8 70.29 195.8"></polygon><rect width=".57" height=".99" x="69.72" y="195.8" fill="#061833"></rect><polygon fill="#061833" points="74.71 195.8 74.71 191.32 73.68 191.32 73.68 196.8 74.14 196.8 74.14 195.8 74.71 195.8"></polygon><rect width=".57" height=".99" x="74.14" y="195.8" fill="#061833"></rect><rect width="2.64" height=".99" x="74.71" y="195.8" fill="#061833"></rect><path fill="#061833" d="M87,90.36l-.11-.86-5.42.7c-11.77,1.51-19.79,14.5-17.92,29s12.92,25,24.69,23.5l5.24-.54-.11-.93c8.86-4.07,14.37-15.25,12.79-27.53S96.51,92.13,87,90.36Z"></path><path fill="#fdbd42" d="M86.87,89.5C75.11,91,67.08,104,69,118.5s12.75,25.18,24.51,23.66,20-14.66,18.11-29.16S98.64,88,86.87,89.5Z"></path><path fill="#fdbd42" d="M87.48,94.2C77.82,95.45,71.22,106.11,72.76,118s10.47,20.68,20.13,19.43,16.41-12,14.87-23.94S97.15,93,87.48,94.2Z"></path><path fill="#061833" d="M100.82,98.76A16.28,16.28,0,0,0,87.45,94C77.68,95.24,71,106,72.54,118.05a25.06,25.06,0,0,0,7.08,14.78A16.68,16.68,0,0,0,90,137.75a13.89,13.89,0,0,0,3-.08c4.75-.61,8.94-3.47,11.8-8.07a25.61,25.61,0,0,0-3.9-30.84Zm3.52,30.6c-2.79,4.49-6.86,7.28-11.47,7.88s-9.19-1.09-12.94-4.73A24.45,24.45,0,0,1,73,118c-1.52-11.77,5-22.34,14.53-23.57a15.81,15.81,0,0,1,13,4.66,25.16,25.16,0,0,1,3.82,30.28Z"></path><path fill="#061833" d="M98.7 116.82a4.26 4.26 0 00-2.32-1.73 4.17 4.17 0 001.53-1.88 5.71 5.71 0 00.46-2.65 5.46 5.46 0 00-.61-2.36 5 5 0 00-1.3-1.64 3.79 3.79 0 00-1.7-.76 7.34 7.34 0 00-.76-.07l-.22-4.11-1.74.09.21 4-.31 0-2 .1-.2-4-1.75.09.21 4-2.17.12-.41 0-2 .1.08 1.52 2-.11.9 17.34-2 .11.08 1.51 2-.1.41 0 2.17-.11.2 3.72 1.74-.09L91 126.23l1.06-.06 1.25-.08.19 3.74 1.74-.09L95.05 126c.38 0 .68-.08.87-.12A3.87 3.87 0 0098 124.75a5.21 5.21 0 001.27-2.17 7.45 7.45 0 00.36-2.73A6 6 0 0098.7 116.82zM89.23 114L89 109.3l1.84-.09c1.51-.08 2.42-.11 2.74-.08a1.76 1.76 0 011.25.66 2.63 2.63 0 01.48 1.51 2.45 2.45 0 01-.39 1.62 1.92 1.92 0 01-1.25.79 19 19 0 01-2.32.19zM96 121.58a1.94 1.94 0 01-1.12.88 11.14 11.14 0 01-2.19.24l-3 .15-.28-5.45 2.58-.13a8.77 8.77 0 012.85.14 2.11 2.11 0 011 .88 3.17 3.17 0 01.43 1.54A2.92 2.92 0 0196 121.58zM136.6 126.17l-.07-.55-3.52.45c-7.62 1-12.81 9.39-11.6 18.78s8.37 16.21 16 15.23l3.4-.35-.08-.61c5.74-2.63 9.31-9.87 8.29-17.82S142.77 127.33 136.6 126.17z"></path><path fill="#fdbd42" d="M136.53,125.62c-7.62,1-12.82,9.39-11.61,18.78s8.25,16.31,15.88,15.33,12.93-9.5,11.72-18.89S144.15,124.63,136.53,125.62Z"></path><path fill="#fdbd42" d="M136.92,128.66c-6.26.81-10.53,7.72-9.54,15.43s6.79,13.4,13.05,12.59,10.62-7.8,9.63-15.51S143.18,127.86,136.92,128.66Z"></path><path fill="#061833" d="M145.56,131.62a10.53,10.53,0,0,0-8.66-3.1c-6.33.82-10.66,7.81-9.66,15.59a16.23,16.23,0,0,0,4.59,9.57,10.77,10.77,0,0,0,6.7,3.19,9.37,9.37,0,0,0,1.91-.05,10.61,10.61,0,0,0,7.64-5.23,16.56,16.56,0,0,0-2.52-20Zm2.28,19.82a10.37,10.37,0,0,1-7.43,5.1,10.14,10.14,0,0,1-8.38-3.06,15.86,15.86,0,0,1-4.5-9.41c-1-7.62,3.24-14.47,9.41-15.27a10.29,10.29,0,0,1,8.43,3,16.29,16.29,0,0,1,2.47,19.62Z"></path><path fill="#061833" d="M142.68 142.2a2.83 2.83 0 001-1.22 3.81 3.81 0 00.3-1.72 3.61 3.61 0 00-.4-1.53 3.13 3.13 0 00-.84-1.06 2.43 2.43 0 00-1.1-.49l-.5-.05-.14-2.66-1.13.06.14 2.6h-.2l-1.3.07-.14-2.6-1.12 0 .13 2.61-1.41.07-.26 0-1.27.06.05 1 1.27-.06.58 11.23-1.26.07 0 1 1.26-.07h.27l1.41-.07.12 2.41 1.13-.06-.12-2.41.69 0 .8-.05.13 2.42 1.13-.06-.13-2.45.56-.08a2.58 2.58 0 001.36-.7 3.44 3.44 0 00.82-1.4 4.86 4.86 0 00.24-1.77 3.85 3.85 0 00-.61-2A2.75 2.75 0 00142.68 142.2zm-4.63-.7l-.16-3.05 1.19-.07c1 0 1.57-.06 1.78 0a1.08 1.08 0 01.81.42 1.78 1.78 0 01.31 1 1.65 1.65 0 01-.25 1 1.25 1.25 0 01-.81.51c-.2 0-.7.08-1.51.13zm4.36 4.9a1.26 1.26 0 01-.72.57 8.05 8.05 0 01-1.42.15l-1.92.1-.18-3.53 1.67-.08a5.61 5.61 0 011.85.09 1.31 1.31 0 01.68.57 2.26 2.26 0 01.28 1A2 2 0 01142.41 146.4zM107.89 58.48l0-.35-2.2.29c-4.79.62-8.06 5.9-7.3 11.8s5.26 10.19 10 9.57l2.14-.22 0-.38c3.61-1.66 5.85-6.21 5.21-11.2S111.76 59.21 107.89 58.48z"></path><path fill="#fdbd42" d="M107.84,58.13c-4.78.62-8,5.91-7.29,11.81s5.19,10.25,10,9.63,8.13-6,7.36-11.87S112.63,57.52,107.84,58.13Z"></path><path fill="#fdbd42" d="M108.09,60.05c-3.93.5-6.61,4.85-6,9.69s4.26,8.42,8.19,7.91,6.68-4.9,6.06-9.74S112,59.54,108.09,60.05Z"></path><path fill="#061833" d="M113.52,61.9A6.62,6.62,0,0,0,108.08,60c-4,.51-6.7,4.91-6.07,9.79a10.21,10.21,0,0,0,2.88,6,6.78,6.78,0,0,0,4.21,2,6.14,6.14,0,0,0,1.21,0,6.7,6.7,0,0,0,4.8-3.28,10.41,10.41,0,0,0-1.59-12.56ZM115,74.36a6.5,6.5,0,0,1-4.67,3.2A6.34,6.34,0,0,1,105,75.64a10,10,0,0,1-2.83-5.91c-.62-4.79,2-9.09,5.91-9.59A6.44,6.44,0,0,1,113.4,62,10.23,10.23,0,0,1,115,74.36Z"></path><path fill="#061833" d="M111.71,68.55a1.76,1.76,0,0,0,.63-.76,2.47,2.47,0,0,0,.19-1.08,2.43,2.43,0,0,0-.25-1,2,2,0,0,0-.53-.67,1.43,1.43,0,0,0-.7-.31l-.31,0-.08-1.67-.71,0,.08,1.63h-.12l-.82,0L109,63.15l-.7,0,.08,1.64-.88,0h-.17l-.8,0,0,.62.79,0,.37,7.06-.8,0,0,.62.8,0h.17l.88,0,.08,1.51.71,0-.08-1.52.44,0,.5,0,.08,1.52.71,0L111.17,73l.36,0a1.55,1.55,0,0,0,.85-.44,2.22,2.22,0,0,0,.51-.88,3,3,0,0,0,.15-1.11,2.32,2.32,0,0,0-.38-1.23A1.74,1.74,0,0,0,111.71,68.55Zm-2.91-.44-.1-1.91.75,0a8,8,0,0,1,1.12,0,.69.69,0,0,1,.5.26,1.07,1.07,0,0,1,.2.62,1,1,0,0,1-.16.66.81.81,0,0,1-.51.32,8.12,8.12,0,0,1-.94.08Zm2.74,3.08a.76.76,0,0,1-.45.36,5.15,5.15,0,0,1-.89.1l-1.21.06-.12-2.22,1.06,0a3.49,3.49,0,0,1,1.16.06.92.92,0,0,1,.43.35,1.33,1.33,0,0,1,.17.63A1.19,1.19,0,0,1,111.54,71.19Z"></path><path fill="#fff" d="M161.27,213.73c-.63,1.82-1.61,9.41-3.66,10.13s-3.63,2.46-5.84,2.58a15,15,0,0,0-2.27.19h0a.94.94,0,0,0,.33,1.83c4.82,0,8.24-.15,14.15,0,.77,0,2.2-.25,2.19-1.68,0-3.13-5.24-3.58,1.54-10.55C168.43,215.45,164.23,213.63,161.27,213.73Z"></path><path fill="#061833" d="M161.26,213.61h-.08l0,.08a22.07,22.07,0,0,0-.57,2.37c-.62,2.85-1.56,7.17-3,7.68a12.79,12.79,0,0,0-2.3,1.18,7.51,7.51,0,0,1-3.51,1.39h-.23a12.63,12.63,0,0,0-2.07.19h0a1,1,0,0,0-.7,1.16,1.07,1.07,0,0,0,1.06.92h0l3.22,0c3.29,0,6.41-.08,10.93,0a2.76,2.76,0,0,0,1.85-.61,1.61,1.61,0,0,0,.47-1.2,4.2,4.2,0,0,0-1-2.41c-1.08-1.6-2.2-3.25,2.48-8.06a.41.41,0,0,0,.08-.48C167.43,214.88,163.82,213.52,161.26,213.61Zm6.33,2.53c-4.82,5-3.64,6.69-2.51,8.37a4,4,0,0,1,.94,2.27,1.37,1.37,0,0,1-.4,1,2.35,2.35,0,0,1-1.67.53c-4.52-.11-7.63-.07-10.93,0l-3.22,0h0a.82.82,0,0,1-.81-.71.76.76,0,0,1,.52-.88h0a13.85,13.85,0,0,1,2-.18h.23a7.84,7.84,0,0,0,3.63-1.43,12.23,12.23,0,0,1,2.25-1.15c1.59-.56,2.5-4.78,3.17-7.87.2-1,.38-1.78.54-2.25h.15c2.57,0,5.77,1.31,6.11,2.08A.17.17,0,0,1,167.59,216.14Z"></path><path fill="#061833" d="M165.62 224.58a.32.32 0 00-.39-.12c-1 .38-4.94 1.78-6.88 1.27a3 3 0 01-2-1.16.45.45 0 00-.62-.18 10.32 10.32 0 01-3.33 1.36 7.46 7.46 0 00-3.33.78 1.49 1.49 0 00-.56 1.33.8.8 0 00.79.8h16.29a.65.65 0 00.61-.41 3.47 3.47 0 00.26-1.75A5.23 5.23 0 00165.62 224.58zM175.3 111.47l-3.76 9.62c3.69.56 7.35.06 10.85.41l1.29-3.17C179.58 117.45 178.9 109.7 175.3 111.47z"></path><path fill="#fff" d="M175.3,111.47,169,127.63l-16.12-5.91a5.15,5.15,0,0,0-.54-2.25c-.61-.84-1.26-1.64-1.89-2.46a1.28,1.28,0,0,0-.39-.38.42.42,0,0,0-.5.07.61.61,0,0,0,0,.56,13.3,13.3,0,0,1,.36,2.26c-.38-.23-.78-.46-1.21-.67a21.76,21.76,0,0,0-3-1.74c-6.83-.19-1,4.7-.39,5.72a9.14,9.14,0,0,0,2.08,2.89,5.24,5.24,0,0,0,3.56.79v0l18.13,10a4.62,4.62,0,0,0,5.38-.64,21.61,21.61,0,0,0,5.27-7.69l4-9.94C179.58,117.45,178.9,109.7,175.3,111.47Z"></path><path fill="#061833" d="M179.64,114.22c-1.22-2-2.37-3.86-4.39-2.87l0,0-6.29,16.1L153,121.63c0-.19,0-.38-.07-.56a3.27,3.27,0,0,0-.48-1.67c-.4-.55-.82-1.09-1.23-1.62l-.66-.85a1.41,1.41,0,0,0-.43-.41.56.56,0,0,0-.66.09.76.76,0,0,0,0,.68,14.35,14.35,0,0,1,.34,2c-.34-.2-.68-.38-1-.55s-.55-.33-1-.59a8,8,0,0,0-2.14-1.17c-1.9,0-3,.28-3.31,1-.53,1.15,1.06,2.91,2.11,4.08a8.27,8.27,0,0,1,.7.83l.38.66a6.75,6.75,0,0,0,1.74,2.27,5.44,5.44,0,0,0,3.55.83l18.14,10.06a4.84,4.84,0,0,0,2.33.6,4.69,4.69,0,0,0,3.2-1.26,22,22,0,0,0,5.3-7.73l4-9.94,0-.14-.14,0C181.85,117.81,180.68,115.9,179.64,114.22Zm-.11,14a21.83,21.83,0,0,1-5.24,7.63,4.47,4.47,0,0,1-5.24.63l-18.05-10,0-.14-.2,0a5.07,5.07,0,0,1-3.45-.76,6.58,6.58,0,0,1-1.67-2.2l-.38-.66a8.94,8.94,0,0,0-.73-.87c-1-1-2.53-2.81-2.07-3.81.28-.61,1.32-.89,3.08-.85a10.19,10.19,0,0,1,2,1.13c.42.27.79.5,1,.6.4.2.79.42,1.2.67l.21.13,0-.25a13.92,13.92,0,0,0-.37-2.28c0-.16-.08-.35,0-.45a.31.31,0,0,1,.35,0,1.22,1.22,0,0,1,.34.34l.66.86c.41.52.83,1.06,1.23,1.6a3.07,3.07,0,0,1,.43,1.55c0,.22.05.44.08.65l0,.08,16.18,5.93.12,0,6.34-16.23c1.79-.85,2.83.84,4,2.79,1,1.68,2.2,3.59,4.08,4.07Z"></path><path fill="#fff" d="M201.44,216.64c.19-1.19-2.75-1.67-4.95-1.57-.47,2.06.71,8.58-1.49,9.63-4.5,2.13-1.8,3.81-.36,3.8a50.44,50.44,0,0,1,6,.11c2.32.21,2.31-1.4,1.42-2.75C200.61,223.66,200.25,224,201.44,216.64Z"></path><path fill="#061833" d="M201.83 225.28c-1.14-1.66-1.35-2-.27-8.62a.8.8 0 00-.22-.69c-.7-.78-3-1.12-4.86-1h-.09l0 .1a14.85 14.85 0 00-.11 3.1c0 2.57.1 5.77-1.31 6.44-2.35 1.12-2.67 2.07-2.53 2.68.2.88 1.42 1.36 2.21 1.36h1.13a39.62 39.62 0 014.88.12l.41 0a1.63 1.63 0 001.54-.65 2.28 2.28 0 00-.41-2.31zm.54 2.69c-.25.42-.84.59-1.7.51-1.23-.11-2.3-.14-3.3-.14l-1.61 0h-1.14c-.71 0-1.79-.44-2-1.16s.68-1.59 2.4-2.4c1.56-.74 1.5-4 1.45-6.67a16.46 16.46 0 01.08-2.95c1.76-.07 3.94.24 4.57.95a.6.6 0 01.16.48h0c-1.1 6.76-.89 7.07.3 8.8.11.16.23.32.35.51A2.05 2.05 0 01202.37 228zM178.47 141.27c-1.06.84-3.06 9.26-4.14 10.06-4.32 17-13.16 60.33-15.51 68.24 1.88.57 5.13 1.57 6.92 1.18 4.24-8.57 27.37-44.52 26.68-80.5C189.66 139.46 180.81 139.41 178.47 141.27z"></path><path fill="#061833" d="M189,142c-.84,1.06-7.39,9.48-8.26,10.5,2.8,18.31,6.56,20.53,8.47,34.69a9.15,9.15,0,0,0,.37,1.63,124.62,124.62,0,0,1,5.21,31.34c3.83-.33,4-.22,7.79-.55,4.15-15.88,1.72-67.45-2.12-81.77C197.59,137.66,190.87,139.64,189,142Z"></path><path fill="#32bec0" d="M192.9,102.65l-.29-.12c-.34-.16-.68-.29-1-.43-2.31-.91-4.2-1.49-4.2-1.49s-1.82.72-4.05,1.83l-.11,0c-.49.24-1,.53-1.58.85l-.07,0-.12.07c-3.55,2.08-4.52,8.89-5.18,10.84a34.36,34.36,0,0,0-.82,5.2s0,0,0,0l-.09.89c-.13,1.16-.25,2.42-.37,3.74v0c0,.34-.05.67-.09,1,0,0,0,.14,0,.28-.08.84-.15,1.69-.22,2.56v0c-.69,8.35-2.24,24.55-2.24,24.55s11.22.88,14.89.3c10.39-1.64,15.88.31,15.88.31l-2.78-45.57C200.33,105.54,196.39,104.07,192.9,102.65Z"></path><path fill="#32bec0" d="M181.66,103.37c-4.52,2-11.61,16.92-11.61,16.92l10.83,1.4,1-18.35A.57.57,0,0,0,181.66,103.37Z"></path><path fill="#061833" d="M169.21,127.31a.17.17,0,0,0-.16.17.18.18,0,0,0,.18.16,4.46,4.46,0,0,1,3.08,1.1.16.16,0,0,0,.11,0,.16.16,0,0,0,.12-.06.16.16,0,0,0,0-.23A4.71,4.71,0,0,0,169.21,127.31Z"></path><path fill="#bc695b" d="M149.1,120.37a4.65,4.65,0,0,0-2.43-1,4.93,4.93,0,0,0-2.56.5.63.63,0,0,0-.37.36.49.49,0,0,0,.28.5,3.78,3.78,0,0,0,.6.17,4.76,4.76,0,0,1,1.78,1.26,4.5,4.5,0,0,0,1.57.94,2.31,2.31,0,0,0,1.79-.08c.41-.29.4-1,.27-1.46A2.71,2.71,0,0,0,149.1,120.37Z"></path><path fill="#061833" d="M165.59 218.92l-6.19-.45a1.39 1.39 0 00-.2 2.77l6.19.44a1.38 1.38 0 10.2-2.76zM202 218.66l-6.2-.28a1.38 1.38 0 00-1.45 1.32 1.4 1.4 0 001.32 1.45l6.2.28a1.39 1.39 0 10.13-2.77zM201.28 224.72a3.15 3.15 0 01-2 .05c-.73-.19-1.42-.51-2.16-.63a2.56 2.56 0 00-1.81.27 2.08 2.08 0 01-.72.3 4 4 0 00-2.05 1.3 4 4 0 00-.83 2.36.46.46 0 00.46.48h10.36a.52.52 0 00.52-.5 4.76 4.76 0 00-1.39-3.57A.36.36 0 00201.28 224.72z"></path><path fill="#fff" d="M195.68,112.58l3.53,12.77-11.46-4.7c0-.36,0-.72,0-1.08a.76.76,0,0,0,0-.15c0-.54,0-1.07-.06-1.55,0-.19,0-.34,0-.41,0-.37.15-2.85-.23-3a1,1,0,0,0-.94.44,2.1,2.1,0,0,0-.22,1v.19l-.12-.24c0-.19-.05-.34-.06-.41-.07-.37-.41-2.83-.81-2.89a.94.94,0,0,0-.84.62,2,2,0,0,0,0,1l0,.07-.07,0c-.37-.76-1.08-2.15-1.39-2.1a.93.93,0,0,0-.63.83,2,2,0,0,0,.27,1c.11.23.22.45.32.67a3.57,3.57,0,0,0-1.1.44,1.5,1.5,0,0,0-.73,1.21.76.76,0,0,0,.37.58c-.06,0-.14,0-.26.12a6.34,6.34,0,0,0-.58,2.43,6.5,6.5,0,0,0,2.74,4.79,9.44,9.44,0,0,0,.9.62c1.36,1.19,16,13.83,22.09,11.42,4.92-1.95-.94-20.63-.94-20.63C203.08,112.12,200.93,108.27,195.68,112.58Zm-12.58,6.55a.57.57,0,0,1-.13,0c-1.29-.17-1.22-2-1.48-2.27a.32.32,0,0,0,.25.07c.24-.07.52-.91,1-.09.08.15.22.48.39.83A6,6,0,0,0,183.1,119.13Z"></path><path fill="#061833" d="M205.18,115c-1.35-2-2.75-4.12-4.82-4.43-1.39-.2-3,.42-4.76,1.91l-.07.05,3.49,12.6-11.14-4.58c0-.26,0-.52,0-.78v-.44c0-.51,0-1-.06-1.46,0-.2,0-.35,0-.41v-.16c.09-2.33-.06-2.86-.33-3a1.05,1.05,0,0,0-1.08.5,1.53,1.53,0,0,0-.18.49l0-.09c-.38-2.43-.65-2.8-.9-2.83h0a1.07,1.07,0,0,0-.93.7,1.6,1.6,0,0,0-.07.61c-.79-1.54-1.1-1.72-1.3-1.69a1,1,0,0,0-.72.94,2.16,2.16,0,0,0,.28,1l.25.51a3.26,3.26,0,0,0-.75.32l-.23.11a1.62,1.62,0,0,0-.79,1.32.57.57,0,0,0,0,.13l-.36-.23.47.49a.69.69,0,0,0,.11.13l-.09.1a6.15,6.15,0,0,0-.61,2.51,6.56,6.56,0,0,0,2.78,4.89,7.17,7.17,0,0,0,.9.61c1.49,1.3,13.67,11.76,20.43,11.76a4.91,4.91,0,0,0,1.79-.31c5-2-.63-20-.87-20.79Zm1.15,21.11c-6,2.36-20.34-10-22-11.42a6.22,6.22,0,0,1-.88-.61,6.3,6.3,0,0,1-2.69-4.69,6,6,0,0,1,.55-2.35l.08-.1a1.82,1.82,0,0,1,.15.48c.15.63.4,1.69,1.4,1.83h.3l0-.14a4.8,4.8,0,0,1,0-1.25l0-.2v0c-.08-.14-.14-.29-.2-.42a3.73,3.73,0,0,0-.21-.41c-.15-.27-.3-.41-.47-.42h0c-.2,0-.35.17-.47.3s-.12.14-.16.15,0,0-.14-.06l0,0a.67.67,0,0,1-.28-.47,1.35,1.35,0,0,1,.65-1.08l.23-.12a2.51,2.51,0,0,1,.82-.32h.2l-.4-.85a1.88,1.88,0,0,1-.26-.9.82.82,0,0,1,.52-.72s.33.12,1.26,2l.05.1.27-.08,0-.19a1.87,1.87,0,0,1,0-.94.82.82,0,0,1,.68-.53h0c.07,0,.31.29.68,2.62l0,.19c0,.07,0,.21.06.38l.34.7,0-.66a2,2,0,0,1,.19-.92.82.82,0,0,1,.79-.39c.06,0,.25.35.16,2.7v.17c0,.07,0,.21,0,.41,0,.46,0,1,.06,1.48v.44c0,.29,0,.57,0,.86v.08l11.53,4.73.24.1-3.58-12.93c1.72-1.4,3.2-2,4.51-1.8,1.95.29,3.26,2.24,4.65,4.31l.34.51C205.52,116.31,211,134.25,206.33,136.12ZM183,119c-.81-.12-1-1-1.17-1.63,0-.12,0-.22-.07-.31h.06a.67.67,0,0,0,.27-.22c.09-.11.19-.22.28-.22h0s.15,0,.29.29c.05.09.11.23.19.4s.12.25.18.39v.13A5.88,5.88,0,0,0,183,119Z"></path><path fill="#061833" d="M195.68,112.58l2.53,9.17c2.78-.77,5.73-.78,8.52-1.11-1.61-5.08-3.57-9.64-3.57-9.64C200.81,107.53,199.49,113.8,195.68,112.58Z"></path><path fill="#32bec0" d="M198.13,105c-3.72-1.92-3.74,6.69-3.74,6.69l2.43,9.45,11.08-.92S203.72,107.86,198.13,105Z"></path><path fill="#fff" d="M181,88a2,2,0,0,0-1.54,2.3c.09,1.21,1.68,2.79,2.62,2.73s.85-1.77.77-3S182,87.93,181,88Z"></path><path fill="#061833" d="M182.37,88.47a1.64,1.64,0,0,0-1.34-.59,1.61,1.61,0,0,0-1.24.78,2.62,2.62,0,0,0-.41,1.65c.09,1.22,1.64,2.84,2.68,2.84h.07c.47,0,.77-.42.88-1.16a9,9,0,0,0,0-1.94A2.61,2.61,0,0,0,182.37,88.47Zm.39,3.48c-.09.62-.3.93-.65,1h-.05a3.4,3.4,0,0,1-2.43-2.61,2.45,2.45,0,0,1,.36-1.5,1.41,1.41,0,0,1,1.06-.66h.09a1.41,1.41,0,0,1,1.05.52,2.39,2.39,0,0,1,.57,1.43A9.07,9.07,0,0,1,182.76,92Z"></path><path fill="#061833" d="M180.44,88.61a.18.18,0,1,0,0,.36,1.33,1.33,0,0,1,1,.76,1.69,1.69,0,0,0-.89.08.18.18,0,1,0,.1.34,1.13,1.13,0,0,1,.81,0c.18.1.26.35.34.63a4.24,4.24,0,0,0,.18.5.2.2,0,0,0,.17.11l.06,0a.18.18,0,0,0,.11-.21C181.83,89.05,181.09,88.69,180.44,88.61Z"></path><path fill="#fff" d="M190.58,101.71,190.35,99l-.19-2.12h-4.88L185,99.09l-.31,2.7c-.43.2-.88.41-1.36.65l-.11,0c-.07.25,1.6,9.05,1.6,9.05s7.84-8.77,7.77-9c-.34-.16-.68-.29-1-.43Z"></path><path fill="#061833" d="M192.72,102.44l-.06,0-.79-.33-.22-.09h0l-.94-.37L190.47,99l-.19-2.22h-5.12l-.57,4.91-1.3.63-.1,0-.06,0v.06c-.07.25,1.1,6.45,1.6,9.1l.05.25.17-.19c7.87-8.82,7.81-9,7.79-9.13Zm-7.8,8.82c-.63-3.32-1.52-8.1-1.56-8.69l0,0c.48-.24.93-.45,1.36-.65l.06,0,.57-4.83h4.66l.41,4.68v.08l.07,0,1,.39.23.09.66.28C191.92,103.35,187.8,108,184.92,111.26Z"></path><path fill="#061833" d="M185.28 96.91l-.13 1.18a5.6 5.6 0 003.28 1.28 4.58 4.58 0 001.92-.34l-.19-2.12zM187.55 81.42a6 6 0 106.39 6A6.19 6.19 0 00187.55 81.42z"></path><ellipse cx="187.63" cy="90.81" fill="#fff" rx="6.17" ry="7.95"></ellipse><path fill="#061833" d="M187.63,82.73c-3.47,0-6.3,3.62-6.3,8.08s2.83,8.08,6.3,8.08,6.3-3.63,6.3-8.08S191.1,82.73,187.63,82.73Zm0,15.91c-3.33,0-6-3.52-6-7.83s2.72-7.83,6-7.83,6.05,3.51,6.05,7.83S191,98.64,187.63,98.64Z"></path><path fill="#fff" d="M194.81,88c-.94-.07-1.76.86-1.85,2.06s-.16,2.9.77,3,2.53-1.52,2.61-2.73A2,2,0,0,0,194.81,88Z"></path><path fill="#061833" d="M194.82,87.88a1.68,1.68,0,0,0-1.35.59,2.66,2.66,0,0,0-.63,1.58,9,9,0,0,0,0,1.94c.11.74.41,1.13.88,1.16h.07a2.7,2.7,0,0,0,1.66-.92,3.34,3.34,0,0,0,1-1.92,2.62,2.62,0,0,0-.41-1.65A1.61,1.61,0,0,0,194.82,87.88Zm.45,4.17a2.34,2.34,0,0,1-1.53.85c-.35,0-.56-.33-.65-1a9.07,9.07,0,0,1,0-1.88,2.39,2.39,0,0,1,.57-1.43,1.41,1.41,0,0,1,1.05-.52h.09a1.41,1.41,0,0,1,1.06.66,2.45,2.45,0,0,1,.36,1.5A3.15,3.15,0,0,1,195.27,92.05Z"></path><path fill="#061833" d="M195.41 88.61c-.65.08-1.39.44-1.88 2.52a.18.18 0 00.11.21l.06 0a.2.2 0 00.17-.11 3 3 0 00.18-.5c.08-.28.16-.53.34-.63a1.13 1.13 0 01.81 0 .18.18 0 00.1-.34 1.66 1.66 0 00-.88-.08 1.3 1.3 0 011-.76.18.18 0 100-.36zM187.51 90a.2.2 0 00-.2-.17.18.18 0 00-.16.2l.16 2.17c0 .14 0 .32-.07.38a.38.38 0 01-.19 0 1.78 1.78 0 01-.9-.26.17.17 0 00-.24.07.17.17 0 00.06.24A2.25 2.25 0 00187 93h0a.7.7 0 00.38-.1.78.78 0 00.22-.71zM188.32 95.08a3.83 3.83 0 01-3.67-1.17.18.18 0 00-.25 0 .17.17 0 000 .25 4.2 4.2 0 003.13 1.38 3.8 3.8 0 00.89-.1.18.18 0 00.13-.22A.18.18 0 00188.32 95.08zM187.83 96A1.64 1.64 0 01186 96a.18.18 0 00-.22.29 2 2 0 002.29.08.18.18 0 00.05-.25A.17.17 0 00187.83 96z"></path><ellipse cx="189.71" cy="89.6" fill="#061833" rx=".42" ry=".7"></ellipse><path fill="#061833" d="M184.88 88.91c-.23 0-.42.31-.42.69s.19.7.42.7.42-.31.42-.7S185.11 88.91 184.88 88.91zM189 87.76c-.06 0-.12.08-.14.18s0 .24 0 .36 0 .23.12.19a1.18 1.18 0 011.14.05 1.52 1.52 0 01.51.6c.08.15.27-.06.22-.25a1.65 1.65 0 00-.47-.82A1.54 1.54 0 00189 87.76zM185.33 87.76a1.54 1.54 0 00-1.33.31 1.65 1.65 0 00-.47.82c-.05.19.14.4.22.25a1.52 1.52 0 01.51-.6 1.18 1.18 0 011.14-.05c.08 0 .14-.06.12-.19s0-.24-.06-.36S185.39 87.76 185.33 87.76zM191.27 84.08c-.39 0 .48 2.25.48 4.68A4.24 4.24 0 00193 92.14s.2-1.55.72-3.92C194.16 86.12 191.66 84.08 191.27 84.08zM181.48 88.76a31.43 31.43 0 00.12 3.38 5.1 5.1 0 00.89-3.38c0-2.43.62-4.68.34-4.68S181.48 86.33 181.48 88.76z"></path><path fill="#061833" d="M191.16 83a5.67 5.67 0 00-3.61-.87c-2 .1-4.2.92-5.13 2.72a1.94 1.94 0 00-.24 1.28.94.94 0 00.95.75c.84-.11 1-1.49 1.78-1.7 0 .39.05.78.08 1.18.34.2.79-.06 1-.39a9.47 9.47 0 01.59-1c.26-.3.8-.42 1-.1a.78.78 0 10.93 1.25c.21-.18.32-.47.51-.67s.6-.26.73 0a.72.72 0 000 .82.71.71 0 00.78.26 1.93 1.93 0 00.6-.44c.7-.66 1.56.3 1.29-1.07A3.26 3.26 0 00191.16 83zM148.92 114.33a.54.54 0 00-.67-.38l-6.69 1.87a.54.54 0 00-.37.67l3.43 12.31a.54.54 0 00.67.37l6.68-1.86a.54.54 0 00.38-.67z"></path><rect width="6.91" height="10.81" x="143.07" y="115.27" fill="#fff" transform="rotate(-15.57 146.534 120.661)"></rect><path fill="#061833" d="M146.66,114.89l-3.26.9a.22.22,0,0,0-.15.28v0a.22.22,0,0,0,.28.15l3.25-.9a.24.24,0,0,0,.16-.28v0A.22.22,0,0,0,146.66,114.89Z"></path><path fill="#fff" d="M148.62 126.46a.64.64 0 00-.51-.06.66.66 0 00-.46.82.68.68 0 00.31.41.8.8 0 00.33.08.52.52 0 00.18 0 .66.66 0 00.41-.32.64.64 0 00.06-.51A.67.67 0 00148.62 126.46zm.14.84a.5.5 0 01-.32.25.53.53 0 01-.41 0 .56.56 0 01-.25-.33.51.51 0 01.05-.4.54.54 0 01.32-.25l.15 0a.48.48 0 01.26.07.54.54 0 01.25.32A.55.55 0 01148.76 127.3zM144.34 124.49l-.11-.06c0-.07 0-.14 0-.18a2.3 2.3 0 00.1-.77.79.79 0 00-.32-.61.35.35 0 01-.59-.33 1 1 0 00-.34-.61.7.7 0 00-.28-.12 1.7 1.7 0 000-.5.69.69 0 00-.27-.49.74.74 0 00-.84 0 1 1 0 00-.4.78 1.31 1.31 0 00.29.8l.09.1a1 1 0 000 .34 1.61 1.61 0 00.37 1 2.74 2.74 0 00.25.26 1.42 1.42 0 00.33.92 2.18 2.18 0 00.27.28s0 .08 0 .12a1.71 1.71 0 00.38 1c.16.2.69.74 1 .61s.34-1 .38-1.22a2.12 2.12 0 000-.71A1 1 0 00144.34 124.49z"></path><path fill="#061833" d="M144.42 124.39l0 0 0-.08a2.65 2.65 0 00.1-.81.93.93 0 00-.38-.7.88.88 0 00-.52-.14s0-.08 0-.11a1.11 1.11 0 00-.39-.69.9.9 0 00-.22-.11 1.52 1.52 0 000-.43.88.88 0 00-.32-.58.9.9 0 00-1 .05 1.12 1.12 0 00-.44.88 1.37 1.37 0 00.31.88l.06 0a1.25 1.25 0 000 .31 1.81 1.81 0 00.4 1.05l.22.24a1.6 1.6 0 00.36 1 2.51 2.51 0 00.24.25v.07a1.74 1.74 0 00.4 1s.55.68 1 .68a.41.41 0 00.16 0c.23-.11.34-.54.43-1.2l0-.11a2.08 2.08 0 000-.75A1.1 1.1 0 00144.42 124.39zm.12 1.4l0 .11c-.09.62-.19 1-.3 1s-.6-.28-.83-.57a1.5 1.5 0 01-.35-.9v-.18l-.05 0a1.41 1.41 0 01-.25-.26 1.32 1.32 0 01-.31-.84v-.05l0 0-.23-.25a1.57 1.57 0 01-.35-.9 1 1 0 01.05-.31v-.07l-.08-.08-.05-.06a1.12 1.12 0 01-.26-.72.84.84 0 01.34-.68.68.68 0 01.4-.13.51.51 0 01.3.09.63.63 0 01.22.4 1.45 1.45 0 010 .47l0 .11.11 0a.67.67 0 01.24.1.84.84 0 01.29.53.76.76 0 010 .15v.2l.14 0a.69.69 0 01.49.08.72.72 0 01.27.53 2.07 2.07 0 01-.1.71l-.07.29.09 0 .05 0 .05 0a.84.84 0 01.29.53A2.13 2.13 0 01144.54 125.79zM194.13 106.44a46.83 46.83 0 00-7.73 5.19.18.18 0 000 .25.2.2 0 00.14.06.15.15 0 00.11 0 47.25 47.25 0 017.68-5.15.19.19 0 00.07-.24A.18.18 0 00194.13 106.44zM180 105.79a.17.17 0 000 .25 14.94 14.94 0 013.08 5 .16.16 0 00.16.12h.06a.18.18 0 00.11-.23 15.09 15.09 0 00-3.16-5.12A.17.17 0 00180 105.79z"></path></svg>