<svg xmlns="http://www.w3.org/2000/svg" xmlns:xlink="http://www.w3.org/1999/xlink" viewBox="0 0 512 512" id="digital-wallet"><defs><linearGradient id="b" x1="252.07" x2="252.07" y1="236.55" y2="141.08" gradientUnits="userSpaceOnUse"><stop offset="0" stop-color="#a9afc4"></stop><stop offset="1" stop-color="#d4d8e5"></stop></linearGradient><linearGradient id="a" x1="252.07" x2="252.07" y1="228.37" y2="171.13" gradientUnits="userSpaceOnUse"><stop offset="0" stop-color="#cacfdd"></stop><stop offset="1" stop-color="#eef0f1"></stop></linearGradient><linearGradient id="c" x1="257.47" x2="257.47" y1="131.89" y2="244.19" xlink:href="#a"></linearGradient><linearGradient id="d" x1="93.98" x2="410.16" y1="319.08" y2="319.08" xlink:href="#a"></linearGradient><linearGradient id="e" x1="367.86" x2="64.08" y1="319.08" y2="319.08" xlink:href="#a"></linearGradient><linearGradient id="f" x1="306.55" x2="410.16" y1="336.31" y2="336.31" xlink:href="#a"></linearGradient><linearGradient id="g" x1="436.27" x2="408.18" y1="336.32" y2="336.32" xlink:href="#b"></linearGradient></defs><g style="isolation:isolate"><g data-name="Digital Wallet"><path fill="#5e6175" d="M68.25 168.53a11.8 11.8 0 117-21.3C84.3 153.88 79.77 168.53 68.25 168.53zm0-17.59a5.79 5.79 0 10.85 11.52h0a5.79 5.79 0 00-.85-11.52zM113.51 119.65a9.11 9.11 0 115.42-16.45C125.89 108.33 122.41 119.65 113.51 119.65zm0-12.22a3.11 3.11 0 10.46 6.18h0a3.11 3.11 0 00-.46-6.18z"></path><path fill="url(#b)" d="M410.16,147.51v72H130a36,36,0,1,1,0-72Z"></path><path d="M410.16,147.51v72H130a36,36,0,1,1,0-72Z" style="mix-blend-mode:multiply" fill="url(#a)"></path><path d="M352.46,147.51c-10.39,42.6-40,77.25-79.25,98.81l-14.32,7.86L244,247.39a146.43,146.43,0,0,1-81.56-99.88Z" style="mix-blend-mode:multiply" fill="url(#c)"></path><path fill="#5e6175" d="M413.16,222.46H130a39,39,0,1,1,0-78h283.2ZM130,150.5a33,33,0,1,0,0,66h277.2v-66Z"></path><path fill="#f5f5f5" d="M250.79,232.59a130.07,130.07,0,0,1-75.83-118V55.35h28c14,0,30.87-5.26,46.26-14.41l8.3-4.94,8.31,4.91c15.51,9.18,32.38,14.44,46.3,14.44h28v59.22c0,47.88-27.95,91.8-74.77,117.49L258.22,236Z"></path><path fill="#5e6175" d="M258.34,239.34l-8.8-4A133.08,133.08,0,0,1,172,114.57V52.35h31c13.48,0,29.79-5.1,44.73-14l9.83-5.85,9.84,5.82c15.06,8.91,31.37,14,44.77,14h31v62.22c0,49-28.53,93.89-76.32,120.12Zm-6.3-9.48,6.06,2.77,5.84-3.2c45.84-25.16,73.21-68.09,73.21-114.86V58.35h-25c-14.44,0-31.87-5.41-47.83-14.85l-6.77-4-6.77,4C234.92,52.94,217.5,58.35,203,58.35H178v56.22A127.07,127.07,0,0,0,252,229.86Z"></path><path fill="#e1830e" d="M323.88,114.57V71.62H312.14c-18.34,0-38.38-7.11-54.59-16.7-16.2,9.64-36,16.7-54.58,16.7H191.23v42.95a113.49,113.49,0,0,0,66.32,103.22C295.57,196.93,323.88,159.76,323.88,114.57Z"></path><polygon fill="#f5f5f5" points="249.51 158.67 221.37 130.54 231.09 120.81 249.51 139.23 291.19 97.54 300.92 107.26 249.51 158.67"></polygon><path fill="url(#d)" d="M410.16,219.46V454.68H130a36,36,0,0,1-36-36V183.48a36,36,0,0,0,36,36Z"></path><path fill="url(#e)" d="M410.16,219.46V454.69H130a36,36,0,0,1-36-36V183.48a36,36,0,0,0,36,36Z"></path><path d="M410.16,282.19V390.44H339.58a33.07,33.07,0,0,1-33-33V315.22a33.07,33.07,0,0,1,33-33Z" style="mix-blend-mode:multiply" fill="url(#f)"></path><path fill="#5e6175" d="M413.16,457.68H130a39,39,0,0,1-39-39V183.48h6a33,33,0,0,0,33,33h283.2ZM97,204.24V418.71a33,33,0,0,0,33,33h277.2V222.46H130A39,39,0,0,1,97,204.24Z"></path><path fill="#f5f5f5" d="M410.16,372.81h-72a14,14,0,0,1-14-14v-45a14,14,0,0,1,14-14h72Z"></path><path fill="url(#g)" d="M413.43,372.81h-3.27v-73h3.27a14,14,0,0,1,14,14v45A14,14,0,0,1,413.43,372.81Z"></path><path fill="#5e6175" d="M410.16 375.81h-72a17 17 0 01-17-17v-45a17 17 0 0117-17h72v6h-72a11 11 0 00-11 11v45a11 11 0 0011 11h72zM413.43 375.81h-3.27v-6h3.27a11 11 0 0011-11v-45a11 11 0 00-11-11h-3.27v-6h3.27a17 17 0 0117 17v45A17 17 0 01413.43 375.81z"></path><circle cx="356.98" cy="336.32" r="13.2" fill="#5e6175"></circle><polygon fill="#5e6175" points="236.05 345.47 130.99 345.47 93.98 308.47 93.98 285.45 137.73 329.2 236.05 329.2 236.05 345.47"></polygon><polygon fill="#5e6175" points="410.17 426.11 261.68 426.11 230.57 395.01 174.96 395.01 174.96 378.73 237.31 378.73 268.42 409.84 410.17 409.84 410.17 426.11"></polygon><polygon fill="#5e6175" points="257.02 295.54 178.03 295.54 178.03 279.26 250.28 279.26 281.3 248.24 410.16 248.24 410.16 264.51 288.04 264.51 257.02 295.54"></polygon><circle cx="236.05" cy="337.33" r="20.95" fill="#a9afc4"></circle><circle cx="170.6" cy="287.4" r="20.95" fill="#a9afc4"></circle><circle cx="170.6" cy="386.87" r="20.95" fill="#a9afc4"></circle><rect width="19.97" height="6" x="418.61" y="125.63" fill="#5e6175" transform="rotate(-45 428.6 128.628)"></rect><rect width="6" height="19.97" x="402.07" y="105.26" fill="#5e6175"></rect><rect width="19.97" height="6" x="432.54" y="147.95" fill="#5e6175"></rect><path fill="#a9afc4" d="M209,479h-6v-6h6Zm-16,0h-6v-6h6Zm-16,0h-6v-6h6Zm-16,0h-6v-6h6Zm-16,0h-6v-6h6Zm-16,0a60.49,60.49,0,0,1-6.27-.27l.57-6a56.43,56.43,0,0,0,5.7.24Zm-16.61-2.19a60.22,60.22,0,0,1-6-2l2.23-5.58A53.83,53.83,0,0,0,114,471ZM97,470a60.74,60.74,0,0,1-5.17-3.62l3.7-4.72a53.06,53.06,0,0,0,4.65,3.25Zm-12.84-10.8a56.43,56.43,0,0,1-4-4.92l4.86-3.51a56.08,56.08,0,0,0,3.56,4.43Zm-9.34-14a61.7,61.7,0,0,1-2.42-5.83l5.66-2a54.49,54.49,0,0,0,2.17,5.24Zm-5-16A57.4,57.4,0,0,1,69.1,423l6-.33a53.13,53.13,0,0,0,.61,5.64ZM75,412.81H69v-6h6Z"></path></g></g></svg>