<svg width="54" height="32" viewBox="0 0 54 32" fill="none" xmlns="http://www.w3.org/2000/svg">
<path d="M53.2578 15.2861C49.1584 6.35446 38.5039 0.364258 26.7308 0.364258H26.6771C14.9326 0.382134 4.29606 6.37941 0.20743 15.2861L0 15.7328L0.20743 16.1795C4.30686 25.1111 14.9613 31.1015 26.7345 31.1015H26.7881C38.5291 31.0835 49.1692 25.0862 53.2578 16.1795L53.4651 15.7328L53.2578 15.2861ZM26.7844 28.9571H26.7308C15.9869 28.9571 6.27251 23.6674 2.36599 15.7328C6.26525 7.81976 15.9583 2.52654 26.6807 2.50848H26.7308C37.4781 2.50848 47.189 7.79816 51.0953 15.7328C47.1998 23.646 37.5068 28.9393 26.7844 28.9571Z" fill="#00B2F4"/>
</svg>
