<svg xmlns="http://www.w3.org/2000/svg" enable-background="new 0 0 4000 3000" viewBox="0 0 4000 3000" id="gift-shopping-on-black-friday"><g><g><ellipse cx="1956.2" cy="1339.5" fill="#f5b7aa" rx="1632.9" ry="944.6"></ellipse></g><g><path fill="#d84861" d="m344.1 1049.6-108.4 195.5L472.4 1393l124.6-17.7v-157.8l-252.9-167.9zM501.4 1339c-23.8 0-43.1-19.3-43.1-43.1s19.3-43.1 43.1-43.1 43.1 19.3 43.1 43.1-19.3 43.1-43.1 43.1z"></path></g><g><path fill="#35322b" d="M722.1 1662.9h-.7c-2.7-.4-4.7-2.9-4.3-5.6.1-.4 5.5-45.5-14.8-108.8-18.7-58.4-63.8-144.8-172.2-224.8-2.2-1.6-2.7-4.8-1.1-7s4.8-2.7 7-1.1c48.9 36 89.4 76.4 120.3 120.1 24.8 35 43.5 72.1 55.7 110.3 20.8 65.3 15.2 110.6 15 112.5-.3 2.6-2.5 4.4-4.9 4.4z"></path></g><g><path fill="#8c2e77" d="m3589.7 1604.9-88.2 250.5 78.8 75 104.8-16.5 79.2-263-174.6-46zm22.4 276.7c-21.1 0-38.2-17.1-38.2-38.2s17.1-38.2 38.2-38.2 38.2 17.1 38.2 38.2-17.1 38.2-38.2 38.2z"></path></g><g><path fill="#35322b" d="M3365.9 2069.9c-46.6 0-80.3-11.5-82.1-12.2-2.6-.9-4-3.8-3.1-6.4.9-2.6 3.8-4 6.4-3.1.7.2 56.3 19.2 121.8 8.1 87.5-14.8 150.5-73.5 187.1-174.3.9-2.6 3.8-3.9 6.4-3 2.6.9 3.9 3.8 3 6.4-20.8 57.4-50.7 102.2-88.7 133.2-30.6 24.9-66.4 40.9-106.5 47.6-15.6 2.6-30.5 3.7-44.3 3.7z"></path></g><g><path fill="#f7971f" d="m3054.8 602.9-195.7 43 70.5 202.7 295.9 115.8 120.7-226.9-291.4-134.6zm-61.9 176.9c-28.9 0-52.4-23.5-52.4-52.4s23.5-52.4 52.4-52.4 52.4 23.5 52.4 52.4-23.5 52.4-52.4 52.4z"></path></g><g><path fill="#35322b" d="M2524.6 833c-.5 0-1-.1-1.5-.2-2.6-.8-4.1-3.6-3.3-6.2.5-1.5 11.5-37.1 37.5-78.7 24.1-38.5 66.2-89.3 129.4-112.6 77.5-28.6 168.3-10.2 269.7 54.5 2.3 1.5 3 4.6 1.5 6.9-1.5 2.3-4.6 3-6.9 1.5-98.7-62.9-186.5-80.9-260.9-53.5-60.6 22.3-101.1 71.4-124.4 108.5-25.3 40.5-36.3 75.9-36.5 76.3-.4 2.1-2.4 3.5-4.6 3.5z"></path></g><g><path fill="#f7971f" d="M2797.8 1540.7c-82.2 0-70.5-145.5-225.4-100.6l-41.6 70.9 26.6 100.2s5.4 66.6 79.7 75l155.4-16.5 62.5-73.3-57.2-55.7z"></path></g><g><path fill="#35322b" d="m2855 1596.3-62.5 73.3-90.4 9.6c-58.7-63.4-47.9-145.6-47.9-145.6l19.8 7.4c26.7 11.6 56 28.9 97.1 36.4h-.1c2-15.4.9-30.6-2.2-44 8.3 4.5 17.8 7.1 28.9 7.1l57.3 55.8z"></path></g><g><path fill="#f7971f" d="M2894.7 1540.9c54-14.2 103.2-146.7 234.4-93 131.2 53.7 23.2 206.9 23.2 206.9l-235-3.6-22.6-110.3z"></path></g><g><path fill="#35322b" d="M3083.7 1539.8s-9.7 55.3-38.3 113.4l-128.1-1.9-22.5-110.4c16.2-4.3 31.9-19.1 49.6-36.4 15.6 15.1 29.5 39.3 38.6 76.8 25.8-7.1 48.4-18.7 69.4-28.5l31.3-13z"></path></g><g><path fill="#d84861" d="m3309.9 1881.1-89.3 619.9h-741.4l-47.3-696 561-78z"></path></g><g><path fill="#f7971f" d="m2872.8 2501 53.2-645.7 135.1 6.2-60.3 639.5z"></path></g><g><path fill="#35322b" d="m2431.9 1805.2 13.3 195 245-80.2 609.4 32.9 10.3-71.7-317-154.1z"></path></g><g><path fill="#8c2e77" d="M1405.4 732.3c-120.4-79.9-168.8 96.7-202.8 118l-17.4 69.5 237.9 51.5-17.7-239z"></path></g><g><path fill="#35322b" d="M1285.1 885.1c-14.2 14.2-33.8 30.1-53.3 44.8l-46.5-10.1 17.4-69.5c8-5 16.9-18.8 27.3-35.8-1 16.7 0 36.4 8.3 46.2l33.9-32 25.8-24.3c-.1.1 28 39.8-12.9 80.7z"></path></g><g><path fill="#8c2e77" d="M983.1 948.9c-114.8 24.3-197.4-151.6-128.4-195.2C987 670 1100 859.6 1145.1 850.3L1121 951.2l-137.9-2.3z"></path></g><g><path fill="#35322b" d="m1136 888.2-15.1 62.9-137.8-2.3c-56-41.3-46.2-122.8-46.1-123.9 68.7 20.7 117.6 83.7 183.9 68.2l15.1-4.9z"></path></g><g><path fill="#35322b" d="m1145.1 850.3-9.4 39.4-14.7 3.5c-13.2 3.1-25.8 3-37.9.8 7.8-30 18.1-48.5 26-59.2 14.6 10.9 26.7 17.4 36 15.5z"></path></g><g><path fill="#d84861" d="m1285.1 885.1-558.6 118 27.3 190.6 50-3.7 461.4-71.4 313.9 90.8 45.9-145.2z"></path></g><g><path fill="#35322b" d="m1625 1064.2-45.9 145.2-264.4-76.5-29.6-247.8z"></path></g><g><path fill="#d84861" d="M889.4 1639.6 803.8 1190l461.8-71.4 240.5 177.2-35.9 559.6z"></path></g><g><path fill="#8c2e77" d="m995.4 1160.4 64.7 460.6 142.5 24.1-81.6-504.2z"></path></g><g><path fill="#35322b" d="M1265.6 1118.6 803.8 1190l11.5 60.2 556.9-53z"></path></g><g><path fill="#f7971f" d="M1423 2501H682.1l-89.4-619.9 567-101.6 263.3 134.4z"></path></g><g><path fill="#8c2e77" d="M1030 2501H901.9l-62.6-664.1 133.9-24.1z"></path></g><g><path fill="#35322b" d="m592.7 1881.2 10.2 71.1 611.2-15.9 208.9 49.2v-71.7l-263.3-134.4z"></path></g><g><path fill="#fff" d="M2173.7 1101.8c252.8-131.4 196-251.6 196-251.6-138.1 20.7-186 249.7-326.4 249.7l-27.6-129.5c140 0 171.1-389.8 370.7-327.6s193.5 388.9-82.8 461.9c0 0-52 24.8-87.1 24.8-35.1.1-42.8-27.7-42.8-27.7z"></path></g><g><path fill="#fff" d="M1729.1 1101.8c-252.8-131.4-196-251.6-196-251.6 138.1 20.7 186 249.7 326.4 249.7l27.6-129.5c-140 0-171.1-389.8-370.7-327.6s-193.5 388.9 82.8 461.9c0 0 47.2 11.6 83.8 11.6s46.1-14.5 46.1-14.5z"></path></g><g><path fill="#8c2e77" d="M2637 1118.6V1355H1265v-236.4s297.4-18.7 691-18.7 681 18.7 681 18.7z"></path></g><g><path fill="#fff" d="M2116 1100.9V1355h-329v-254c54-.7 110.3-1.1 169-1.1 55.6 0 109 .3 160 1z"></path></g><g><path fill="#8c2e77" d="m2579.9 1355-107.3 1222.7S2233 2605 1951.3 2605s-521.2-27.4-521.2-27.4L1322.8 1355h1257.1z"></path></g><g><path fill="#fff" d="m2075.9 1355-13.3 1248.6c-36 .9-73.2 1.4-111.3 1.4-38 0-75.2-.6-111.2-1.4L1826.8 1355h249.1z"></path></g><g><path fill="#35322b" d="M1331.1 1449h1240.5l8.3-94H1322.8z"></path></g><g><path fill="#f7971f" d="m555.6 1883.7 604.2-40.6 212.1 70.8-14.7-168-206.6-134.8-604.9 66.1z"></path></g><g><path fill="#8c2e77" d="m938.1 1858-134.3 9-14.9-216.4 144.2-15.7z"></path></g><g><path fill="#35322b" d="M1272.9 2506.2c-2.5 0-4.7-1.9-5-4.5l-63.4-610.7c-.3-2.7 1.7-5.2 4.5-5.5 2.7-.3 5.2 1.7 5.5 4.5l63.4 610.7c.3 2.7-1.7 5.2-4.5 5.5h-.5z"></path></g><g><path fill="#35322b" d="M1159.8 1848.1c-2.7 0-4.9-2.1-5-4.8l-9.2-231.9c-.1-2.8 2-5.1 4.8-5.2 2.8-.1 5.1 2 5.2 4.8l9.2 231.9c.1 2.8-2 5.1-4.8 5.2h-.2z"></path></g><g><path fill="#8c2e77" d="m958.8 1166-39.6-203.6 140.9-29.7 32.1 212.7z"></path></g><g><path fill="#35322b" d="M1100 900.7c-33.6 0-63.1-17.7-94-36.2-37.2-22.3-75.7-45.4-125.6-40.1-2.7.3-5.2-1.7-5.5-4.4-.3-2.7 1.7-5.2 4.4-5.5 53.2-5.7 93.2 18.2 131.8 41.4 35.7 21.4 69.4 41.6 108.6 32.5 2.7-.6 5.4 1 6 3.7s-1 5.4-3.7 6c-7.5 1.8-14.8 2.6-22 2.6z"></path></g><g><path fill="#35322b" d="M1199.8 882c-2.3 0-4.4-1.6-4.9-4-.6-2.7 1.2-5.3 3.9-5.9 34-7 51.7-26.7 68.8-45.8 19.3-21.5 37.5-41.8 75.3-33.8 2.7.6 4.4 3.2 3.9 5.9s-3.2 4.4-5.9 3.9c-32.1-6.8-46.9 9.8-65.7 30.7-17.3 19.3-37 41.2-74.2 48.9-.5 0-.8.1-1.2.1z"></path></g><g><path fill="#fff" d="M2015.5 970.5s-25.5-23.9-64.5-23.9v.1c-39 0-64.1 23.8-64.1 23.8l-27.4 129.5h183.9l-27.9-129.5z"></path></g><g><path fill="#35322b" d="M2057.9 957.7c-13 8.1-27 12.8-42.2 12.8l27.6 129.5c15.5 0 29.8-2.8 43.3-7.7l-28.7-134.6z"></path></g><g><path fill="#35322b" d="M1816.2 1092.1c13.5 5 27.8 7.8 43.3 7.8l27.6-129.5c-15.3 0-29.2-4.6-42.3-12.8l-28.6 134.5z"></path></g><g><path fill="#d84861" d="m3347.1 1883.7-604.2-40.6-212 70.8 14.6-168 206.6-134.8 605 66.1z"></path></g><g><path fill="#35322b" d="M2629.9 2506.2h-.5c-2.7-.3-4.7-2.7-4.5-5.5l63-606.8c.3-2.7 2.7-4.7 5.5-4.5 2.7.3 4.7 2.7 4.5 5.5l-63 606.8c-.3 2.6-2.5 4.5-5 4.5z"></path></g><g><path fill="#35322b" d="M2742.9 1848.1h-.2c-2.8-.1-4.9-2.4-4.8-5.2l9.2-231.9c.1-2.8 2.4-4.9 5.2-4.8 2.8.1 4.9 2.4 4.8 5.2l-9.2 231.9c-.1 2.6-2.3 4.8-5 4.8z"></path></g><g><path fill="#f7971f" d="m2964.7 1858 4.9-223.1 144.2 15.7-14.9 216.4z"></path></g><g><path fill="#35322b" d="M2936.9 1592.7c-2.8 0-5-2.2-5-5s2.2-5 5-5c40.7 0 74.4-16 104.1-30.2 36.6-17.4 68.2-32.5 102-14.1 2.4 1.3 3.3 4.4 2 6.8-1.3 2.4-4.4 3.3-6.8 2-29.3-16-57.4-2.6-92.9 14.3-30.6 14.7-65.3 31.2-108.4 31.2z"></path></g><g><path fill="#35322b" d="M2813.4 1586.3c-54.6 0-92.5-17.8-123-32.2-31.4-14.8-56.1-26.4-86.9-14.3-2.6 1-5.5-.3-6.5-2.8-1-2.6.3-5.5 2.8-6.5 34.8-13.7 62.6-.6 94.8 14.6 31.1 14.6 66.3 31.2 118.7 31.2 2.8 0 5 2.2 5 5s-2.1 5-4.9 5z"></path></g><g><path fill="#35322b" d="M2813.1 1586.3c-14.8 0-29.1-1.3-43.1-3.8 0-.1-.7-.3-1.2-.5-2.5-1.3-3.3-4.3-2-6.7 1.1-2.1 3.5-3.1 5.7-2.6 13.4 2.4 26.8 3.6 40.9 3.6 2.8 0 4.9 2.2 4.9 5s-2.4 5-5.2 5z"></path></g><g><path fill="#35322b" d="M2771.4 1577.5c-41.1-7.5-70.6-24.9-97.3-36.4l97.3 36.4z"></path></g><g><path fill="#f7971f" d="M2937.3 1631.3s16.6-69.4-42.7-90.6c-59.3-21.2-96.8 0-96.8 0s23.6 31.7 14.9 77l124.6 13.6z"></path></g><g><path fill="#b23998" d="M1121 919.8s-7.4-52.9 24.1-69.5 57.5 0 57.5 0-7.1 30.9 1.5 51.9l-83.1 17.6z"></path></g><g><path fill="#35322b" d="M1639.5 1047.2c-275.4-133.3-186.4-212.4-106.5-197 .1 0-41.9 88.7 106.5 197z"></path></g><g><path fill="#35322b" d="M2213.9 1079.5c206.3-122.4 155.7-229.3 155.7-229.3 106.9-22.1 113.4 124.2-155.7 229.3z"></path></g></g></svg>