<svg width="36" height="50" viewBox="0 0 36 50" fill="none" xmlns="http://www.w3.org/2000/svg">
<path d="M34.6672 48.7821V47.665H1.66406V48.7821C1.66406 48.7821 1.66356 49.1256 3.80801 49.3357L7.21549 49.646H29.2937L32.7032 49.3357C34.8477 49.1256 34.6672 48.7821 34.6672 48.7821Z" fill="#00B2F4"/>
<path d="M34.7854 25.9834H1.48997C1.0317 25.9834 0.660156 26.3549 0.660156 26.8137L1.83897 46.3675H34.4375L35.6162 26.8137C35.6157 26.3549 35.2442 25.9834 34.7854 25.9834ZM18.1377 40.2891C16.5583 40.2891 15.2778 39.0086 15.2778 37.4292C15.2778 35.8498 16.5583 34.5692 18.1377 34.5692C19.7171 34.5692 20.9976 35.8498 20.9976 37.4292C20.9976 39.0086 19.7171 40.2891 18.1377 40.2891Z" fill="#00B2F4"/>
<path fill-rule="evenodd" clip-rule="evenodd" d="M13.4606 15.8991C14.1996 16.7485 15.8447 18.2712 18.138 18.2712C20.4309 18.2712 22.076 16.749 22.815 15.8996C22.9108 15.7713 23.0136 15.6394 23.1249 15.503C25.2879 12.8587 25.4679 8.65302 24.9274 5.40851C24.3869 2.164 21.3224 0 18.1375 0C14.9527 0 11.8882 2.1635 11.3477 5.40851C10.8072 8.65302 10.9872 12.8592 13.1502 15.503C13.2625 15.6394 13.3648 15.7713 13.4606 15.8991Z" fill="#00B2F4"/>
<path d="M19.176 19.3232H17.1037C14.9608 19.3232 12.8795 20.0262 11.1677 21.3148C9.92579 22.2504 8.48982 23.2436 7.32057 23.8117C6.60208 24.1607 5.81691 24.5262 5.05078 24.8907H31.2295C30.4633 24.5262 29.6781 24.1607 28.9596 23.8117C27.7904 23.2436 26.3544 22.2504 25.1125 21.3148C23.4002 20.0262 21.3184 19.3232 19.176 19.3232Z" fill="#00B2F4"/>
</svg>
