<svg width="40" height="39" viewBox="0 0 40 39" fill="none" xmlns="http://www.w3.org/2000/svg">
<path d="M34.3793 38.7588C34.1905 38.7588 34.005 38.7488 33.8195 38.7289C33.7499 38.7488 33.6771 38.7588 33.6009 38.7588H4.38935C1.96775 38.7588 0 36.791 0 34.3694V0.828179C0 0.371024 0.371024 0 0.828179 0H29.9569C30.414 0 30.7851 0.371024 30.7851 0.828179V33.5081C30.7851 35.4891 32.3983 37.1024 34.3793 37.1024C36.3603 37.1024 37.9736 35.4891 37.9736 33.5081V6.35047C37.9736 5.89332 38.3447 5.52229 38.8018 5.52229C39.259 5.52229 39.63 5.89332 39.63 6.35047V33.5081C39.63 36.4034 37.2747 38.7588 34.3793 38.7588ZM1.65636 1.65636V34.3694C1.65636 35.8767 2.88206 37.1024 4.38935 37.1024H30.5565C29.672 36.1616 29.1287 34.8961 29.1287 33.5081V1.65636H1.65636Z" fill="#00B2F4"/>
</svg>
