<svg width="40" height="39" viewBox="0 0 40 39" fill="none" xmlns="http://www.w3.org/2000/svg">
<path d="M34.0547 34.5652C33.5976 34.5652 33.2266 34.1942 33.2266 33.737V7.78521C33.2266 7.32806 33.5976 6.95703 34.0547 6.95703C34.5119 6.95703 34.8829 7.32806 34.8829 7.78521V33.7337C34.8829 34.1942 34.5119 34.5652 34.0547 34.5652Z" fill="#00B2F4"/>
<path d="M34.3793 38.7588C34.1905 38.7588 34.005 38.7488 33.8195 38.7289C33.7499 38.7488 33.6771 38.7588 33.6009 38.7588H4.38935C1.96775 38.7588 0 36.791 0 34.3694V0.828179C0 0.371024 0.371024 0 0.828179 0H29.9569C30.414 0 30.7851 0.371024 30.7851 0.828179V33.5081C30.7851 35.4891 32.3983 37.1024 34.3793 37.1024C36.3603 37.1024 37.9736 35.4891 37.9736 33.5081V6.35047C37.9736 5.89332 38.3447 5.52229 38.8018 5.52229C39.259 5.52229 39.63 5.89332 39.63 6.35047V33.5081C39.63 36.4034 37.2747 38.7588 34.3793 38.7588ZM1.65636 1.65636V34.3694C1.65636 35.8767 2.88206 37.1024 4.38935 37.1024H30.5565C29.672 36.1616 29.1287 34.8961 29.1287 33.5081V1.65636H1.65636Z" fill="#00B2F4"/>
<path d="M13.357 19.2205H5.41645C5.05205 19.2205 4.75391 18.9223 4.75391 18.5579V13.6518C4.75391 13.2874 5.05205 12.9893 5.41645 12.9893H13.3603C13.7247 12.9893 14.0229 13.2874 14.0229 13.6518V18.5579C14.0196 18.9256 13.7247 19.2205 13.357 19.2205ZM6.07899 17.8954H12.6978V14.3143H6.07899V17.8954Z" fill="#00B2F4"/>
<path d="M13.357 22.0292H5.41645C5.05205 22.0292 4.75391 21.731 4.75391 21.3666C4.75391 21.0022 5.05205 20.7041 5.41645 20.7041H13.3603C13.7247 20.7041 14.0229 21.0022 14.0229 21.3666C14.0196 21.7344 13.7247 22.0292 13.357 22.0292Z" fill="#00B2F4"/>
<path d="M13.357 25.2597H5.41645C5.05205 25.2597 4.75391 24.9615 4.75391 24.5971C4.75391 24.2327 5.05205 23.9346 5.41645 23.9346H13.3603C13.7247 23.9346 14.0229 24.2327 14.0229 24.5971C14.0196 24.9615 13.7247 25.2597 13.357 25.2597Z" fill="#00B2F4"/>
<path d="M13.357 28.4891H5.41645C5.05205 28.4891 4.75391 28.191 4.75391 27.8266C4.75391 27.4622 5.05205 27.1641 5.41645 27.1641H13.3603C13.7247 27.1641 14.0229 27.4622 14.0229 27.8266C14.0196 28.191 13.7247 28.4891 13.357 28.4891Z" fill="#00B2F4"/>
<path d="M13.357 31.7157H5.41645C5.05205 31.7157 4.75391 31.4176 4.75391 31.0532C4.75391 30.6888 5.05205 30.3906 5.41645 30.3906H13.3603C13.7247 30.3906 14.0229 30.6888 14.0229 31.0532C14.0196 31.4209 13.7247 31.7157 13.357 31.7157Z" fill="#00B2F4"/>
<path d="M26.4703 18.8026H18.5297C18.1653 18.8026 17.8672 18.5045 17.8672 18.1401C17.8672 17.7757 18.1653 17.4775 18.5297 17.4775H26.4703C26.8347 17.4775 27.1329 17.7757 27.1329 18.1401C27.1329 18.5045 26.838 18.8026 26.4703 18.8026Z" fill="#00B2F4"/>
<path d="M26.4703 22.0292H18.5297C18.1653 22.0292 17.8672 21.731 17.8672 21.3666C17.8672 21.0022 18.1653 20.7041 18.5297 20.7041H26.4703C26.8347 20.7041 27.1329 21.0022 27.1329 21.3666C27.1329 21.7344 26.838 22.0292 26.4703 22.0292Z" fill="#00B2F4"/>
<path d="M26.4703 25.2597H18.5297C18.1653 25.2597 17.8672 24.9615 17.8672 24.5971C17.8672 24.2327 18.1653 23.9346 18.5297 23.9346H26.4703C26.8347 23.9346 27.1329 24.2327 27.1329 24.5971C27.1329 24.9615 26.838 25.2597 26.4703 25.2597Z" fill="#00B2F4"/>
<path d="M26.4703 28.4891H18.5297C18.1653 28.4891 17.8672 28.191 17.8672 27.8266C17.8672 27.4622 18.1653 27.1641 18.5297 27.1641H26.4703C26.8347 27.1641 27.1329 27.4622 27.1329 27.8266C27.1329 28.191 26.838 28.4891 26.4703 28.4891Z" fill="#00B2F4"/>
<path d="M26.4703 31.7157H18.5297C18.1653 31.7157 17.8672 31.4176 17.8672 31.0532C17.8672 30.6888 18.1653 30.3906 18.5297 30.3906H26.4703C26.8347 30.3906 27.1329 30.6888 27.1329 31.0532C27.1329 31.4209 26.838 31.7157 26.4703 31.7157Z" fill="#00B2F4"/>
</svg>
