<svg xmlns="http://www.w3.org/2000/svg" enable-background="new 0 0 3000 3000" viewBox="0 0 3000 3000" id="businessman-is-measuring-internet-wifi-speed"><g><g><g><g><path fill="#585a5e" d="M1706.9,230.3c-6.8-3.3-12.1-9.7-13.7-17.7c-2.8-13.7,6.1-27.1,19.8-29.8
					c287.7-58.1,492.4,42.3,608.3,298.5c5.8,12.7,0.1,27.7-12.6,33.5c-12.7,5.8-27.7,0.1-33.5-12.6
					c-106.3-235-286.9-323.2-552.1-269.7C1717.3,233.5,1711.7,232.7,1706.9,230.3z"></path></g><g><path fill="#585a5e" d="M1711.4,350.2c-6.8-3.3-12.1-9.7-13.7-17.7c-2.8-13.7,6.1-27.1,19.8-29.8
					c239.4-48.3,409.8,35.3,506.3,248.5c5.8,12.7,0.1,27.7-12.6,33.5c-12.7,5.8-27.7,0.1-33.5-12.6
					c-86.7-191.5-233.9-263.4-450.1-219.8C1721.9,353.4,1716.2,352.6,1711.4,350.2z"></path></g><g><path fill="#585a5e" d="M1743.9,477.6c-6.8-3.3-12.1-9.7-13.7-17.7c-2.8-13.7,6.1-27.1,19.8-29.8c167-33.7,285.9,24.7,353.2,173.6
					c5.8,12.7,0.1,27.7-12.6,33.5c-12.7,5.8-27.7,0.1-33.5-12.6C2000,498.2,1902.8,450.8,1760,479.6
					C1754.4,480.8,1748.7,479.9,1743.9,477.6z"></path></g></g><circle cx="1855.5" cy="661.2" r="113.2" fill="#585a5e" transform="rotate(-45.001 1855.524 661.255)"></circle><g><g><path fill="#fabc3f" d="M1705.2,222.9c-6.8-3.3-12.1-9.7-13.7-17.7c-2.8-13.7,6.1-27.1,19.8-29.8
					c287.7-58.1,492.4,42.3,608.3,298.5c5.8,12.7,0.1,27.7-12.6,33.5c-12.7,5.8-27.7,0.1-33.5-12.6
					c-106.3-235-286.9-323.2-552.1-269.7C1715.7,226.1,1710.1,225.3,1705.2,222.9z"></path></g><g><path fill="#fabc3f" d="M1709.8,342.8c-6.8-3.3-12.1-9.7-13.7-17.7c-2.8-13.7,6.1-27.1,19.8-29.8
					c239.4-48.3,409.8,35.3,506.3,248.5c5.8,12.7,0.1,27.7-12.6,33.5c-12.7,5.8-27.7,0.1-33.5-12.6
					c-86.7-191.5-233.9-263.4-450.1-219.8C1720.2,346.1,1714.6,345.2,1709.8,342.8z"></path></g><g><path fill="#fabc3f" d="M1742.3,470.2c-6.8-3.3-12.1-9.7-13.7-17.7c-2.8-13.7,6.1-27.1,19.8-29.8c167-33.7,285.9,24.7,353.2,173.6
					c5.8,12.7,0.1,27.7-12.6,33.5c-12.7,5.8-27.7,0.1-33.5-12.6c-57.1-126.3-154.3-173.7-297.1-144.8
					C1752.7,473.4,1747.1,472.5,1742.3,470.2z"></path></g></g><circle cx="1853.9" cy="653.8" r="113.2" fill="#fabc3f" transform="rotate(-45.001 1853.875 653.86)"></circle></g><g><rect width="2950" height="22.7" x="25" y="2761.6" fill="#2a84b5"></rect><g><path fill="#3f98d7" d="M2823,2761.6H2242c0-409.8-332.2-742-742-742c-409.7,0-741.9,332.2-741.9,742H177
				c0-730.7,592.3-1323.1,1323-1323.1C2230.7,1438.5,2823,2030.8,2823,2761.6z"></path></g><path fill="#98c65d" d="M2720.2,2761.6h-374c-36.4-280.1-166.4-515.2-361-676.8l232.2-310.3c48.1,35,93.4,73.4,135.8,114.8
			c4.6,4.5,9.2,9,13.7,13.6c106.9,107.8,193.7,235.5,254.6,377c2.6,5.9,5,11.8,7.5,17.8C2687.8,2440.7,2720.2,2597.3,2720.2,2761.6z
			"></path><path fill="#fabc3f" d="M2217.4,1774.5l-232.2,310.3c-227.1-188.8-542.2-277.5-899.1-220.8c-12.3,2-24.6,4.2-36.8,6.9l-125.5-185.3
			c36.7-19.7,74.6-37.6,113.5-53.5h0c5.9-2.5,11.9-4.9,17.9-7.2c137.1-53.8,286.4-83.3,442.5-83.6h2.3c5.7,0,11.4,0,17,0.1
			c156.2,2.2,305.3,33.7,442,89.2c6,2.4,11.9,4.9,17.8,7.4C2062.5,1674.4,2143.1,1720.4,2217.4,1774.5z"></path><path fill="#e25651" d="M1049.3,1870.9c-52.4,10.8-103.5,27.4-152.1,49.7c-191.4,87.7-337.4,211.7-441.3,369.4
			c-3.6,5.4-7.1,10.9-10.6,16.5c-82.2,130-136.7,282.3-165.5,455.1c0-171.4,35.3-334.6,99.2-482.6c2.5-5.9,5.1-11.8,7.8-17.6
			c62.7-139.5,150.9-265,258.6-370.7c4.6-4.5,9.2-9,13.8-13.4c78.9-75.1,167.9-139.7,264.6-191.7L1049.3,1870.9z"></path><g><g><path fill="#3f98d7" d="M1770.5,2761.6h-118.8c0-83.8-68-151.7-151.7-151.7c-83.7,0-151.6,68-151.6,151.7h-118.8
					c0-149.4,121.1-270.4,270.4-270.4C1649.3,2491.2,1770.5,2612.2,1770.5,2761.6z"></path></g></g><path fill="#2a84b5" d="M1651.7,2761.6h-303.4c0-83.8,68-151.7,151.6-151.7C1583.7,2609.8,1651.7,2677.8,1651.7,2761.6z"></path><g><path fill="#585a5e" d="M1517,1541.4v83.1c0,5.3-4.3,9.6-9.6,9.6c-5.3,0-9.6-4.3-9.6-9.6v-83.2h2.3
				C1505.6,1541.3,1511.3,1541.3,1517,1541.4z"></path></g><g><path fill="#585a5e" d="M1081.7,1714c-1.2,0.5-2.5,0.7-3.7,0.7c-3.8,0-7.4-2.2-8.9-5.9l-31.8-76.7c5.9-2.5,11.9-4.9,17.9-7.2
				l31.7,76.6C1089,1706.4,1086.7,1712,1081.7,1714z"></path></g><g><path fill="#585a5e" d="M719.1,1950.8c-1.9,1.9-4.3,2.8-6.8,2.8c-2.5,0-4.9-0.9-6.8-2.8l-60.1-60.1c4.6-4.5,9.2-9,13.8-13.4
				l59.9,59.9C722.9,1940.9,722.9,1947,719.1,1950.8z"></path></g><g><path fill="#585a5e" d="M474.6,2308.2c-1.5,3.7-5.1,5.9-8.9,5.9c-1.2,0-2.5-0.2-3.7-0.7l-16.8-7L379,2279c2.5-5.9,5.1-11.8,7.8-17.6
				l69.1,28.6l13.6,5.6C474.4,2297.7,476.7,2303.3,474.6,2308.2z"></path></g><g><path fill="#585a5e" d="M2629,2297.7l-91,37.7c-1.2,0.5-2.5,0.8-3.7,0.8c-3.8,0-7.4-2.3-8.9-6c-2-4.9,0.3-10.6,5.3-12.6l90.9-37.7
				C2624.1,2285.8,2626.5,2291.7,2629,2297.7z"></path></g><g><path fill="#585a5e" d="M2366.9,1902.9l-64.6,64.6c-1.9,1.9-4.4,2.8-6.8,2.8c-2.5,0-4.9-1-6.8-2.8c-3.8-3.8-3.8-9.9,0-13.6
				l64.6-64.6C2357.9,1893.8,2362.4,1898.3,2366.9,1902.9z"></path></g><g><path fill="#585a5e" d="M1976.8,1638l-33.1,79.8c-1.5,3.7-5.2,6-8.9,6c-1.3,0-2.5-0.2-3.7-0.7c-4.9-2.1-7.2-7.7-5.2-12.6l33.1-79.9
				C1965,1633,1970.9,1635.5,1976.8,1638z"></path></g><g><path fill="#585a5e" d="M1418.8,2811c-38-39.9-34.5-103.6,7.7-139l809.4-680.1c12-10,29.8-9.1,40.6,2.2c5.4,5.7,8.1,13,8.2,20.2
				c0.1,7.4-2.6,14.7-7.9,20.4l-718.8,775.3C1520.5,2850.4,1456.8,2850.9,1418.8,2811z"></path><path fill="#414143" d="M1418.8,2811l857.7-816.9c5.4,5.7,8.1,13,8.2,20.2c0.1,7.4-2.6,14.7-7.9,20.4l-718.8,775.3
				C1520.5,2850.4,1456.8,2850.9,1418.8,2811z"></path></g><path fill="#eaa22f" d="M1535.2,2700l-88.4,84.2c-23.3-24.4-22.3-63.1,2-86.3C1473.3,2674.6,1512,2675.6,1535.2,2700z"></path><path fill="#f4b037" d="M1533.1,2786.4c-24.4,23.2-63.1,22.3-86.3-2.2l88.4-84.2C1558.5,2724.5,1557.6,2763.1,1533.1,2786.4z"></path></g><g><g><g><g><rect width="74.8" height="72.9" x="1798" y="1821.1" fill="#fdbab3" transform="matrix(.06106 -.9981 .9981 .06106 -130.799 3576.13)"></rect></g><g><path fill="#2a2a2c" d="M2031,1946.8c0,0,9.5,51.2-95.6,41.1c-10.3-1-20.5-3-30.5-5.8c-14.3-4-37.8-9-54.4-10.5l-0.7,17.2
						l-62.8-3.5c-6.7-0.6-11.7-6.4-11.4-13.1l3.2-38.4c0,0,105.5,3.1,107.2,3.9c1.8,0.8,91.3,20.2,91.3,20.2L2031,1946.8z"></path><path fill="#414143" d="M1979.6,1980.7l-3.4,0.2c-10.7,0.5-23.5,0.1-38.8-1.3c-10.3-1-20.5-2.9-30.4-5.7
						c-14.3-4-37.8-10.1-54.4-11.6c0,0-12.5-0.3-27.2-1c-1.1-0.1-2.1-0.1-3.2-0.2c-2.5-0.1-5-0.3-7.6-0.4c-1.1-0.1-2.2-0.1-3.3-0.2
						c-2-0.1-3.9-0.3-5.8-0.4c-1.1-0.1-2.2-0.2-3.3-0.3c-13.5-1.2-24.4-3-24.2-5.6c-1-10.1-1.3-20.2-0.8-30.2
						c0.5-12,2.1-23.9,4.8-35.9c1.8-7.9,9.2-13.3,17.3-12.3l57.2,6.6c4.4,0.5,8.7-1,11.8-4c0.3-0.4,0.6-0.7,1-1.1l0.2-0.2l0.8-1
						l0.1-0.1l0.1-0.1l2-2.4l0.1-0.1l2-2.4l0.1-0.2c2.6-3.1,7.4-3.1,10-0.1c11.1,12.8,23,24.4,35.7,34.7
						c16.3,13.3,35.7,22.3,56.2,26c1.1,0.2,2.4,0.4,3.6,0.6c4.5,0.6,9,1.1,13.6,1.2c37.8,1.2,37.2,13.7,37.2,13.7
						S2039.1,1977,1979.6,1980.7z"></path></g><g><g><circle cx="1869.8" cy="1883.5" r="3.4" fill="#c6c7cd"></circle><g><path fill="#2a2a2c" d="M1869.7,1885.1c0.5,0,0.9-0.1,1.3-0.5l13.8-13.5c0.7-0.6,0.7-1.7,0-2.3s-1.7-0.7-2.3,0l-13.8,13.5
								c-0.7,0.6-0.7,1.7,0,2.3C1868.9,1884.9,1869.3,1885.1,1869.7,1885.1z"></path></g></g><g><circle cx="1878.1" cy="1890" r="3.4" fill="#c6c7cd"></circle><g><path fill="#2a2a2c" d="M1877.9,1891.7c0.5,0,0.9-0.1,1.3-0.5l12.8-12.8c0.7-0.6,0.7-1.7,0-2.3s-1.7-0.7-2.3,0l-12.8,12.8
								c-0.7,0.6-0.7,1.7,0,2.3C1877.2,1891.5,1877.5,1891.6,1877.9,1891.7z"></path></g></g><g><circle cx="1886.3" cy="1897" r="3.4" fill="#c6c7cd"></circle><g><path fill="#2a2a2c" d="M1886.1,1898.6c0.5,0,0.9-0.1,1.3-0.5l12.2-12.4c0.7-0.6,0.7-1.7,0-2.3c-0.6-0.7-1.7-0.7-2.3,0
								l-12.2,12.4c-0.7,0.6-0.7,1.7,0,2.3C1885.4,1898.4,1885.7,1898.6,1886.1,1898.6z"></path></g></g></g><g><g><circle cx="1893.9" cy="1903.9" r="3.4" fill="#c6c7cd"></circle><g><path fill="#2a2a2c" d="M1893.8,1905.5c0.5,0,0.9-0.2,1.3-0.5l11.4-12.3c0.6-0.7,0.6-1.7-0.1-2.3c-0.7-0.6-1.7-0.6-2.3,0.1
								l-11.4,12.3c-0.6,0.7-0.6,1.7,0.1,2.3C1893.1,1905.4,1893.5,1905.5,1893.8,1905.5z"></path></g></g><g><circle cx="1902.4" cy="1910" r="3.4" fill="#c6c7cd"></circle><g><path fill="#2a2a2c" d="M1902.3,1911.7c0.5,0,0.9-0.2,1.3-0.5l11-11.8c0.6-0.7,0.6-1.7-0.1-2.3s-1.7-0.6-2.3,0.1l-11,11.8
								c-0.6,0.7-0.6,1.7,0.1,2.3C1901.6,1911.5,1901.9,1911.7,1902.3,1911.7z"></path></g></g><g><circle cx="1910.9" cy="1916.6" r="3.4" fill="#c6c7cd"></circle><g><path fill="#2a2a2c" d="M1910.8,1918.3c0.5,0,0.9-0.2,1.3-0.5l10.6-11.1c0.6-0.7,0.6-1.7-0.1-2.3s-1.7-0.6-2.3,0.1l-10.6,11.1
								c-0.6,0.7-0.6,1.7,0.1,2.3C1910.1,1918.1,1910.4,1918.3,1910.8,1918.3z"></path></g></g></g><g><path fill="#2a2a2c" d="M1925.1,1924.8c0.1,5.8-2.4,11.4-6.8,15.1c-4.6,4-10.7,5.6-16.6,4.3l-55.5-11.1c-4.5-0.9-9.2,0.1-12.9,2.9
						c-3.7,2.7-6.1,6.9-6.6,11.4l-1.5,13.7c-1.1-0.1-2.1-0.1-3.2-0.2l1.5-13.8c0.6-5.4,3.5-10.5,7.9-13.7c4.4-3.2,10-4.5,15.4-3.4
						l55.5,11.1c5,1,10-0.3,13.9-3.6c3.7-3.1,5.7-7.8,5.7-12.6c-0.1-4.9-2.3-9.4-6.1-12.5l-45.4-36.6l2-2.4l45.4,36.6
						C1922.4,1913.5,1925.1,1919,1925.1,1924.8z"></path></g></g><g><g><rect width="74.8" height="72.9" x="1734.4" y="1857.9" fill="#fdbab3" transform="matrix(.06106 -.9981 .9981 .06106 -227.266 3547.172)"></rect></g><g><path fill="#2a2a2c" d="M1967.4,1983.6c0,0,9.5,51.2-95.6,41.1c-10.3-1-20.5-3-30.5-5.8c-14.3-4-37.8-9-54.4-10.5l-0.7,17.2
						l-62.8-3.5c-6.7-0.6-11.7-6.4-11.4-13.1l3.2-38.4c0,0,105.5,3.1,107.2,3.9c1.8,0.8,91.3,20.2,91.3,20.2L1967.4,1983.6z"></path><path fill="#414143" d="M1916,2017.4l-3.4,0.2c-10.7,0.5-23.5,0.1-38.8-1.3c-10.3-1-20.5-2.9-30.4-5.7
						c-14.3-4-37.8-10.1-54.4-11.6c0,0-12.5-0.3-27.2-1c-1.1-0.1-2.1-0.1-3.2-0.2c-2.5-0.1-5-0.3-7.6-0.4c-1.1-0.1-2.2-0.1-3.3-0.2
						c-2-0.1-3.9-0.3-5.8-0.4c-1.1-0.1-2.2-0.2-3.3-0.3c-13.5-1.2-24.4-3-24.2-5.6c-1-10.1-1.3-20.2-0.8-30.2
						c0.5-12,2.1-23.9,4.8-35.9c1.8-7.9,9.2-13.3,17.3-12.3l57.2,6.6c4.4,0.5,8.7-1,11.8-4c0.3-0.4,0.6-0.7,1-1.1l0.2-0.2l0.8-1
						l0.1-0.1l0.1-0.1l2-2.4l0.1-0.1l2-2.4l0.1-0.2c2.6-3.1,7.4-3.1,10-0.1c11.1,12.8,23,24.4,35.7,34.7
						c16.3,13.3,35.7,22.3,56.2,26c1.1,0.2,2.4,0.4,3.6,0.6c4.5,0.6,9,1.1,13.6,1.2c37.8,1.2,37.2,13.7,37.2,13.7
						S1975.5,2013.7,1916,2017.4z"></path></g><g><g><circle cx="1806.2" cy="1920.3" r="3.4" fill="#c6c7cd"></circle><g><path fill="#2a2a2c" d="M1806.1,1921.9c0.5,0,0.9-0.1,1.3-0.5l13.8-13.5c0.7-0.6,0.7-1.7,0-2.3c-0.6-0.7-1.7-0.7-2.3,0
								l-13.8,13.5c-0.7,0.6-0.7,1.7,0,2.3C1805.3,1921.7,1805.7,1921.9,1806.1,1921.9z"></path></g></g><g><circle cx="1814.4" cy="1926.8" r="3.4" fill="#c6c7cd"></circle><g><path fill="#2a2a2c" d="M1814.3,1928.4c0.5,0,0.9-0.1,1.3-0.5l12.8-12.8c0.7-0.6,0.7-1.7,0-2.3c-0.6-0.7-1.7-0.7-2.3,0
								l-12.8,12.8c-0.7,0.6-0.7,1.7,0,2.3C1813.5,1928.2,1813.9,1928.4,1814.3,1928.4z"></path></g></g><g><circle cx="1822.6" cy="1933.7" r="3.4" fill="#c6c7cd"></circle><g><path fill="#2a2a2c" d="M1822.5,1935.4c0.5,0,0.9-0.1,1.3-0.5l12.2-12.4c0.7-0.6,0.7-1.7,0-2.3c-0.6-0.7-1.7-0.7-2.3,0
								l-12.2,12.4c-0.7,0.6-0.7,1.7,0,2.3C1821.7,1935.2,1822.1,1935.4,1822.5,1935.4z"></path></g></g></g><g><g><circle cx="1830.3" cy="1940.7" r="3.4" fill="#c6c7cd"></circle><g><path fill="#2a2a2c" d="M1830.2,1942.3c0.5,0,0.9-0.2,1.3-0.5l11.4-12.3c0.6-0.7,0.6-1.7-0.1-2.3s-1.7-0.6-2.3,0.1l-11.4,12.3
								c-0.6,0.7-0.6,1.7,0.1,2.3C1829.4,1942.2,1829.8,1942.3,1830.2,1942.3z"></path></g></g><g><circle cx="1838.8" cy="1946.8" r="3.4" fill="#c6c7cd"></circle><g><path fill="#2a2a2c" d="M1838.7,1948.5c0.5,0,0.9-0.2,1.3-0.5l11-11.8c0.6-0.7,0.6-1.7-0.1-2.3s-1.7-0.6-2.3,0.1l-11,11.8
								c-0.6,0.7-0.6,1.7,0.1,2.3C1837.9,1948.3,1838.3,1948.5,1838.7,1948.5z"></path></g></g><g><circle cx="1847.3" cy="1953.4" r="3.4" fill="#c6c7cd"></circle><g><path fill="#2a2a2c" d="M1847.2,1955.1c0.5,0,0.9-0.2,1.3-0.5l10.6-11.1c0.6-0.7,0.6-1.7-0.1-2.3s-1.7-0.6-2.3,0.1l-10.6,11.1
								c-0.6,0.7-0.6,1.7,0.1,2.3C1846.4,1954.9,1846.8,1955.1,1847.2,1955.1z"></path></g></g></g><g><path fill="#2a2a2c" d="M1861.5,1961.6c0.1,5.8-2.4,11.4-6.8,15.1c-4.6,4-10.7,5.6-16.6,4.3l-55.5-11.1c-4.5-0.9-9.2,0.1-12.9,2.9
						c-3.7,2.7-6.1,6.9-6.6,11.4l-1.5,13.7c-1.1-0.1-2.1-0.1-3.2-0.2l1.5-13.8c0.6-5.4,3.5-10.5,7.9-13.7c4.4-3.2,10-4.5,15.4-3.4
						l55.5,11.1c5,1,10-0.3,13.9-3.6c3.7-3.1,5.7-7.8,5.7-12.6c-0.1-4.9-2.3-9.4-6.1-12.5l-45.4-36.6l2-2.4l45.4,36.6
						C1858.7,1950.3,1861.4,1955.8,1861.5,1961.6z"></path></g></g><g><path fill="#353535" d="M1778.1,1850.3h112.5l8.4-486.3c1-59.6-46.7-108.7-106.3-109.4l-353.9-1.6l44.9,65.4l179.9,55.7l79.2,101.1
					c0,0,19.3,73.4,19.3,75.4c0,1.9,31.8,166.7,31.8,166.7L1778.1,1850.3z"></path><path fill="#414143" d="M1156.4,1199.1l-11.3,63.5c-18.6,104.2,60.9,200.1,166.7,201.1l363.9,3.7c10.5,0.1,19.1,8.3,19.8,18.8
					l24.4,404.2h104.8l16.5-487.1c1.8-51.5-34.9-96.4-85.7-105l-299.8-45.2c-16.8-2.9-29-17.6-28.7-34.7l-20.3-19.3
					C1296.8,1223.5,1239.5,1227.1,1156.4,1199.1z"></path></g></g><g><path fill="#fdbab3" d="M1720,1115.1l53.3,35c5.8,3.8,11.2,8.1,16.3,12.8c15.6,14.2,59.2,45.4,105.4,2.9c7.1-6.5,4.1-18.4-5.3-20.4
				c-16.8-3.6-45-11.6-50.2-23.8l25.9-9.5c4.9-1.8,7.2-7.3,5.1-12l0,0c-1.6-3.7-5.5-5.8-9.5-5.3l-32.6,4.6c-8,1.1-16.1-0.3-23.2-4.1
				l-52.1-27.8"></path><path fill="#585a5e" d="M1327.9,860.5l151.5,139.3c7,6.5,14.7,12.1,23,16.9l268.7,141.6l42.3-67l-250-159.5
				c-11-7.8-20.5-17.5-28.1-28.7l-108.3-182.3l-25.1,6.4l-79.4,72L1327.9,860.5z"></path></g><g><rect width="81.9" height="146.2" x="1271.7" y="590.7" fill="#fdbab3"></rect><path fill="#fdbab3" d="M1412.9,568.2c4.8,65.6-34.3,99.6-77,99.6c-42.7,0-77.6-43.7-77.6-99.6s34.6-101.3,77.3-101.3
				C1378.2,466.9,1408.8,512.4,1412.9,568.2z"></path><path fill="#414143" d="M1372.9,461.6c-34.5-27.7-63.9-2.7-63.9-2.7c-50.7-14.1-58.8,41.8-58.8,41.8c-58-1.5,21.6,139.5,21.6,139.5
				l5.4-18.8c2.7-9.7,2.3-20.1-1.7-29.3c-7.7-17.8-9.7-39.5,8.8-42.5c16-2.6,24.6,21.5,27.8,33.1c0.9,3.3,4.3,5.3,7.7,4.5l0,0
				c3.2-0.8,5.2-3.9,4.7-7.1l-7.2-46.8c22.8,6.9,68-1.5,77.7-5.1c0,0,41.8-12.9,34.7-57.1c0,0-5.5,11.1-28.2,12
				c0,0,18.7-4.3,16.4-31.1C1417.8,452.1,1393.1,477.9,1372.9,461.6z"></path></g><g><g><path fill="#e5e5e5" d="M1422.2,951.5c0,2.7,0,295.1,0,295.1c-90.3,43.2-172.9,11.1-172.7,11.8l4.4-497.1l17.9-85l64.1,42.7
					l40.2-33.7l25.8,22.7l5.3,116C1407.2,824.1,1422.2,948.9,1422.2,951.5z"></path><path fill="#585a5e" d="M1127 1285c-2.6 11-.2 22.3 10.8 25.2 0 0 225.9 18.9 201.5-236.4l-11.7-258.8c0-47.8-15.1-97.5-50.1-130l-5.8-8.7-43.4 18.2c-47.8 23.2-76.9 72.7-74 125.7l.5 99.2C1158.8 1001.1 1132.6 1260.7 1127 1285zM1353.5 679.4l22.5 6c34.8 10.2 62.6 37.9 62.6 73.4v60.9c0 36.9 2.4 73.8 7.2 110.4l27.5 302.4c1.7 12.8-4.3 17.9-19.1 26.8l-55.9 22.9c-9.4 2.3-17.1-7.7-12.5-16.2v0c16.8-31.4 23.9-98.9 20.5-134.2l-20-206c-1.8-18.3-2.9-36.6-3.3-55L1353.5 679.4z"></path></g><polygon fill="#c6c7cd" points="1353.5 679.4 1361.9 733.9 1313.2 738.3 1271.7 676.3 1335.8 719.1"></polygon><path fill="#e25651" d="M1335.8,719.1l-10.2,12.4l3.8,15.4l-3.8,31.3c-10.5,87.2-60.7,164.7-135.9,210.1l-13.7,8.3
				c-41.5,25-75.6,60.4-99.2,102.7l-29.2,52.5l21.7,39.9l44.2-18.1l35.4-63.7c15.9-28.7,37.4-54,63.1-74.5l26.7-21.3
				c67.7-54,107.2-135.9,107.4-222.5l0.1-43.2l1.6-17.7L1335.8,719.1z"></path></g><path fill="#414143" d="M1412.6,591.8L1412.6,591.8l-84.7-0.5l-5.3-21.9l-13.8,4l11.8,62.2c3.8,19.9,22.6,33.2,42.6,30.1h0
			C1396.2,660.8,1416.2,625,1412.6,591.8z"></path><g><g><polyline fill="#b2b2b2" points="1447.7 1267 1671.1 1267 1649.4 1289.4 1447.7 1289.4"></polyline><polygon fill="#e2e2e2" points="1762.7 1050.1 1649.4 1289.4 1940 1289.4 2056.6 1052.9"></polygon></g><ellipse cx="1853" cy="1169.7" fill="#b2b2b2" rx="23.4" ry="20.2" transform="rotate(-63.914 1853.014 1169.785)"></ellipse></g><g><path fill="#fdbab3" d="M1599.3,1144.6l58.2,26.2c6.3,2.8,12.4,6.3,18.2,10.1c17.7,11.5,65.7,35.5,104.6-13.8
				c6-7.5,1.2-18.8-8.4-19.3c-17.1-0.9-46.3-4.3-53.4-15.6l24-13.5c4.5-2.5,5.9-8.3,3.1-12.7l0,0c-2.2-3.4-6.3-4.9-10.2-3.7
				l-31.4,9.7c-7.7,2.4-15.9,2.2-23.5-0.4l-55.8-19.2"></path><path fill="#585a5e" d="M1650.9,1176.5c0,0-308.4-122.2-316-130.7c-17.5-19.7-59-61.3-96.8-98.5c-7.6-7.4-15-14.7-22-21.6
				c-29-28.5-51.6-50.2-51.6-50.2l59.1-84.9l62-0.6l118.7,170.4c3.9,7.3,290.1,142.2,290.1,142.2L1650.9,1176.5z"></path></g></g></g></svg>