<svg width="51" height="31" viewBox="0 0 51 31" fill="none" xmlns="http://www.w3.org/2000/svg">
<path d="M8.05515 0.383789L0 14.3343L8.30452 19.1292C9.83846 14.2438 12.4478 9.57665 16.3597 5.17803L8.05515 0.383789Z" fill="#00B2F4"/>
<path d="M42.5396 1.04782L49.8263 13.67L43.0042 17.6083C41.4576 13.1036 39.0072 8.86918 35.7055 4.99206L42.5396 1.04782ZM42.8207 0L34.5156 4.79426C38.4269 9.19408 41.0368 13.8595 42.5708 18.7442L50.8753 13.95L42.8207 0Z" fill="#00B2F4"/>
<path d="M27.4557 10.8374C28.4381 12.3618 32.6209 18.6978 34.8035 19.4884C35.7422 19.8301 36.7834 20.0243 37.6591 20.0243C39.4437 20.0243 40.5298 19.251 40.7192 17.8472C41.1173 14.9088 34.6056 6.9693 33.8612 6.07435L33.7754 5.97125L33.6454 5.94368C33.5129 5.91551 30.4072 5.27051 28.3842 5.27051C27.8423 5.27051 27.4287 5.31668 27.1224 5.40959C26.1141 5.7189 24.4471 7.15993 23.2752 8.26168L18.5163 6.42382C12.5034 10.7032 10.7891 19.1425 10.7891 19.1425C10.7891 19.1425 10.9587 19.4147 11.2764 19.8714C11.2776 19.8702 11.2776 19.8702 11.2788 19.8691C11.2578 19.89 11.2308 19.9056 11.2111 19.9278C10.7183 20.4595 10.6967 21.3329 11.1523 22.3867C11.5635 23.341 12.3266 24.3642 13.3007 25.2669C14.7363 26.5983 16.362 27.4237 17.5471 27.4237C17.8737 27.4237 18.1573 27.3535 18.3982 27.2295C19.72 28.1574 21.1718 28.9492 22.7183 29.445C23.0109 29.5391 25.7796 30.5401 26.2574 30.3597C26.7363 30.1793 26.6098 29.5187 25.9948 28.933L23.0654 26.1403C22.7585 25.8478 22.7471 25.361 23.0396 25.0559C23.3322 24.7478 23.8195 24.7346 24.1252 25.029L27.3777 28.1304C27.9909 28.7155 28.9093 28.809 29.2629 28.5446C29.6166 28.2815 29.7113 27.3212 29.0981 26.7361L25.9631 23.7474C25.6561 23.4554 25.6448 22.9693 25.9361 22.6636C26.2286 22.3561 26.7172 22.3429 27.0217 22.636L30.2388 25.7045C30.8526 26.289 31.7338 26.3243 32.0335 26.0096C32.3344 25.6973 32.3824 24.9336 31.7691 24.3486L28.8601 21.5762C28.5532 21.2837 28.5418 20.7982 28.8343 20.4919C29.1269 20.1844 29.6142 20.1724 29.9187 20.4661L32.7588 23.1737C33.372 23.7594 34.0302 23.8199 34.6404 23.3182C35.048 22.9831 35.0103 22.054 34.7411 21.8208C31.9969 19.4459 28.2667 14.8194 25.8222 11.6401C25.7125 11.7132 26.9078 11.0328 27.4557 10.8374ZM17.5465 26.6558C16.5628 26.6558 15.1008 25.8903 13.8222 24.7053C12.9242 23.8714 12.2253 22.9411 11.8554 22.0822C11.5383 21.3455 11.5066 20.7346 11.7721 20.4481C11.9124 20.2982 12.1947 20.1052 12.4687 19.968C13.3546 19.5238 16.127 19.6461 17.4056 20.8317C19.3058 22.5935 18.7741 25.8298 18.2178 26.428C18.0787 26.5791 17.8528 26.6558 17.5465 26.6558ZM37.6586 19.257C36.8685 19.257 35.9226 19.0784 35.0642 18.7685C33.2917 18.1235 29.3217 12.3468 27.9412 10.1739L27.7853 9.92868L27.5054 10.0138C27.2758 10.084 25.2377 10.7277 24.6041 11.7803C24.4111 12.1022 24.3326 12.517 24.2505 12.9558C24.0209 14.1865 23.7799 14.8878 22.3083 14.6468C22.1351 14.6204 22.02 14.5401 21.9337 14.3897C21.4769 13.5888 22.0764 11.3158 22.5775 10.0168C23.5641 9.00736 26.1878 6.49935 27.3459 6.14509C27.5755 6.07435 27.9244 6.03778 28.383 6.03778C30.1003 6.03778 32.7414 6.54551 33.3552 6.6678C35.3747 9.11407 40.2523 15.5681 39.9586 17.7435C39.8237 18.7475 39.0498 19.257 37.6586 19.257Z" fill="#00B2F4"/>
</svg>
