<svg width="1598" height="1520" viewBox="0 0 1598 1520" fill="none" xmlns="http://www.w3.org/2000/svg">
<path d="M19.1719 313.353L18.7284 314.026L19.0564 314.762L18.3833 314.319L17.6469 314.647L18.0905 313.974L17.7624 313.238L18.4356 313.681L19.1719 313.353Z" fill="white"/>
<path d="M210.582 370.762L210.138 371.436L210.466 372.172L209.793 371.728L209.057 372.056L209.5 371.383L209.172 370.647L209.845 371.091L210.582 370.762Z" fill="white"/>
<path d="M93.5816 436.762L93.138 437.436L93.4661 438.172L92.793 437.728L92.0566 438.056L92.5002 437.383L92.1721 436.647L92.8452 437.091L93.5816 436.762Z" fill="white"/>
<path d="M111.582 331.762L111.138 332.436L111.466 333.172L110.793 332.728L110.057 333.056L110.5 332.383L110.172 331.647L110.845 332.091L111.582 331.762Z" fill="white"/>
<path d="M56.5816 356.762L56.138 357.436L56.4661 358.172L55.793 357.728L55.0566 358.056L55.5002 357.383L55.1721 356.647L55.8452 357.091L56.5816 356.762Z" fill="white"/>
<path d="M404.582 419.762L404.138 420.436L404.466 421.172L403.793 420.728L403.057 421.056L403.5 420.383L403.172 419.647L403.845 420.091L404.582 419.762Z" fill="white"/>
<path d="M229.582 315.762L229.138 316.436L229.466 317.172L228.793 316.728L228.057 317.056L228.5 316.383L228.172 315.647L228.845 316.091L229.582 315.762Z" fill="white"/>
<path d="M653.582 373.762L653.138 374.436L653.466 375.172L652.793 374.728L652.057 375.056L652.5 374.383L652.172 373.647L652.845 374.091L653.582 373.762Z" fill="white"/>
<path d="M421.582 537.762L421.138 538.436L421.466 539.172L420.793 538.728L420.057 539.056L420.5 538.383L420.172 537.647L420.845 538.091L421.582 537.762Z" fill="white"/>
<path d="M228.582 458.762L228.138 459.436L228.466 460.172L227.793 459.728L227.057 460.056L227.5 459.383L227.172 458.647L227.845 459.091L228.582 458.762Z" fill="white"/>
<path d="M220.582 613.762L220.138 614.436L220.466 615.172L219.793 614.728L219.057 615.056L219.5 614.383L219.172 613.647L219.845 614.091L220.582 613.762Z" fill="white"/>
<path d="M818.582 599.762L818.138 600.436L818.466 601.172L817.793 600.728L817.057 601.056L817.5 600.383L817.172 599.647L817.845 600.091L818.582 599.762Z" fill="white"/>
<path d="M1011.58 402.762L1011.14 403.436L1011.47 404.172L1010.79 403.728L1010.06 404.056L1010.5 403.383L1010.17 402.647L1010.84 403.091L1011.58 402.762Z" fill="white"/>
<path d="M1286.58 578.762L1286.14 579.436L1286.47 580.172L1285.79 579.728L1285.06 580.056L1285.5 579.383L1285.17 578.647L1285.85 579.091L1286.58 578.762Z" fill="white"/>
<path d="M1160.58 892.762L1160.14 893.436L1160.47 894.172L1159.79 893.728L1159.06 894.056L1159.5 893.383L1159.17 892.647L1159.85 893.091L1160.58 892.762Z" fill="white"/>
<path d="M1289.58 1092.76L1289.14 1093.44L1289.47 1094.17L1288.79 1093.73L1288.06 1094.06L1288.5 1093.38L1288.17 1092.65L1288.85 1093.09L1289.58 1092.76Z" fill="white"/>
<path d="M980.582 1127.76L980.138 1128.44L980.466 1129.17L979.793 1128.73L979.057 1129.06L979.5 1128.38L979.172 1127.65L979.845 1128.09L980.582 1127.76Z" fill="white"/>
<path d="M624.582 1089.76L624.138 1090.44L624.466 1091.17L623.793 1090.73L623.057 1091.06L623.5 1090.38L623.172 1089.65L623.845 1090.09L624.582 1089.76Z" fill="white"/>
<path d="M800.582 710.762L800.138 711.436L800.466 712.172L799.793 711.728L799.057 712.056L799.5 711.383L799.172 710.647L799.845 711.091L800.582 710.762Z" fill="white"/>
<path d="M528.582 631.762L528.138 632.436L528.466 633.172L527.793 632.728L527.057 633.056L527.5 632.383L527.172 631.647L527.845 632.091L528.582 631.762Z" fill="white"/>
<path d="M319.582 1009.76L319.138 1010.44L319.466 1011.17L318.793 1010.73L318.057 1011.06L318.5 1010.38L318.172 1009.65L318.845 1010.09L319.582 1009.76Z" fill="white"/>
<path d="M76.5816 895.762L76.138 896.436L76.4661 897.172L75.793 896.728L75.0566 897.056L75.5002 896.383L75.1721 895.647L75.8452 896.091L76.5816 895.762Z" fill="white"/>
<path d="M79.5816 548.762L79.138 549.436L79.4661 550.172L78.793 549.728L78.0566 550.056L78.5002 549.383L78.1721 548.647L78.8452 549.091L79.5816 548.762Z" fill="white"/>
<path d="M401.582 581.762L401.138 582.436L401.466 583.172L400.793 582.728L400.057 583.056L400.5 582.383L400.172 581.647L400.845 582.091L401.582 581.762Z" fill="white"/>
<path d="M968.582 584.762L968.138 585.436L968.466 586.172L967.793 585.728L967.057 586.056L967.5 585.383L967.172 584.647L967.845 585.091L968.582 584.762Z" fill="white"/>
<path d="M859.582 819.762L859.138 820.436L859.466 821.172L858.793 820.728L858.057 821.056L858.5 820.383L858.172 819.647L858.845 820.091L859.582 819.762Z" fill="white"/>
<path d="M726.582 942.762L726.138 943.436L726.466 944.172L725.793 943.728L725.057 944.056L725.5 943.383L725.172 942.647L725.845 943.091L726.582 942.762Z" fill="white"/>
<path d="M542.582 664.762L542.138 665.436L542.466 666.172L541.793 665.728L541.057 666.056L541.5 665.383L541.172 664.647L541.845 665.091L542.582 664.762Z" fill="white"/>
<path d="M759.582 483.762L759.138 484.436L759.466 485.172L758.793 484.728L758.057 485.056L758.5 484.383L758.172 483.647L758.845 484.091L759.582 483.762Z" fill="white"/>
<path d="M114.582 998.762L114.138 999.436L114.466 1000.17L113.793 999.728L113.057 1000.06L113.5 999.383L113.172 998.647L113.845 999.091L114.582 998.762Z" fill="white"/>
<path d="M90.5816 696.762L90.138 697.436L90.4661 698.172L89.793 697.728L89.0566 698.056L89.5002 697.383L89.1721 696.647L89.8452 697.091L90.5816 696.762Z" fill="white"/>
<path d="M641.582 685.762L641.138 686.436L641.466 687.172L640.793 686.728L640.057 687.056L640.5 686.383L640.172 685.647L640.845 686.091L641.582 685.762Z" fill="white"/>
<path d="M862.582 1110.76L862.138 1111.44L862.466 1112.17L861.793 1111.73L861.057 1112.06L861.5 1111.38L861.172 1110.65L861.845 1111.09L862.582 1110.76Z" fill="white"/>
<path d="M484.582 1198.76L484.138 1199.44L484.466 1200.17L483.793 1199.73L483.057 1200.06L483.5 1199.38L483.172 1198.65L483.845 1199.09L484.582 1198.76Z" fill="white"/>
<path d="M481.582 829.762L481.138 830.436L481.466 831.172L480.793 830.728L480.057 831.056L480.5 830.383L480.172 829.647L480.845 830.091L481.582 829.762Z" fill="white"/>
<path d="M1257.58 376.762L1257.14 377.436L1257.47 378.172L1256.79 377.728L1256.06 378.056L1256.5 377.383L1256.17 376.647L1256.85 377.091L1257.58 376.762Z" fill="white"/>
<path d="M1342.58 334.762L1342.14 335.436L1342.47 336.172L1341.79 335.728L1341.06 336.056L1341.5 335.383L1341.17 334.647L1341.85 335.091L1342.58 334.762Z" fill="white"/>
<path d="M1353.58 1124.76L1353.14 1125.44L1353.47 1126.17L1352.79 1125.73L1352.06 1126.06L1352.5 1125.38L1352.17 1124.65L1352.85 1125.09L1353.58 1124.76Z" fill="white"/>
<path d="M1147.58 1245.76L1147.14 1246.44L1147.47 1247.17L1146.79 1246.73L1146.06 1247.06L1146.5 1246.38L1146.17 1245.65L1146.85 1246.09L1147.58 1245.76Z" fill="white"/>
<path d="M1012.58 814.762L1012.14 815.436L1012.47 816.172L1011.79 815.728L1011.06 816.056L1011.5 815.383L1011.17 814.647L1011.84 815.091L1012.58 814.762Z" fill="white"/>
<path d="M588.229 898.525L587.341 899.871L587.998 901.344L586.651 900.457L585.179 901.113L586.066 899.767L585.41 898.294L586.756 899.181L588.229 898.525Z" fill="white"/>
<path d="M340.753 728.525L339.866 729.871L340.523 731.344L339.176 730.457L337.704 731.113L338.591 729.767L337.935 728.294L339.281 729.181L340.753 728.525Z" fill="white"/>
<path d="M938.753 440.525L937.866 441.871L938.523 443.344L937.176 442.457L935.704 443.113L936.591 441.767L935.935 440.294L937.281 441.181L938.753 440.525Z" fill="white"/>
<path d="M705.753 314.525L704.866 315.871L705.523 317.344L704.176 316.457L702.704 317.113L703.591 315.767L702.935 314.294L704.281 315.181L705.753 314.525Z" fill="white"/>
<path d="M487.753 317.525L486.866 318.871L487.523 320.344L486.176 319.457L484.704 320.113L485.591 318.767L484.935 317.294L486.281 318.181L487.753 317.525Z" fill="white"/>
<path d="M1115.75 285.525L1114.87 286.871L1115.52 288.344L1114.18 287.457L1112.7 288.113L1113.59 286.767L1112.93 285.294L1114.28 286.181L1115.75 285.525Z" fill="white"/>
<path d="M913.753 901.525L912.866 902.871L913.523 904.344L912.176 903.457L910.704 904.113L911.591 902.767L910.935 901.294L912.281 902.181L913.753 901.525Z" fill="white"/>
<path d="M215.753 877.525L214.866 878.871L215.523 880.344L214.176 879.457L212.704 880.113L213.591 878.767L212.935 877.294L214.281 878.181L215.753 877.525Z" fill="white"/>
<path d="M182.753 1193.52L181.866 1194.87L182.523 1196.34L181.176 1195.46L179.704 1196.11L180.591 1194.77L179.935 1193.29L181.281 1194.18L182.753 1193.52Z" fill="white"/>
<path d="M72.7535 818.525L71.8664 819.871L72.5225 821.344L71.1763 820.457L69.7036 821.113L70.5907 819.767L69.9345 818.294L71.2808 819.181L72.7535 818.525Z" fill="white"/>
<path d="M61.7535 1131.52L60.8664 1132.87L61.5225 1134.34L60.1763 1133.46L58.7036 1134.11L59.5907 1132.77L58.9345 1131.29L60.2808 1132.18L61.7535 1131.52Z" fill="white"/>
<path d="M23.7535 585.525L22.8664 586.871L23.5225 588.344L22.1763 587.457L20.7036 588.113L21.5907 586.767L20.9345 585.294L22.2808 586.181L23.7535 585.525Z" fill="white"/>
<path d="M553.118 1.36705L552.328 1.52939L552.039 2.28206L551.877 1.49244L551.124 1.20375L551.914 1.04141L552.203 0.288739L552.365 1.07836L553.118 1.36705Z" fill="white"/>
<path d="M647.87 177.309L647.08 177.471L646.792 178.224L646.629 177.434L645.877 177.145L646.666 176.983L646.955 176.23L647.117 177.02L647.87 177.309Z" fill="white"/>
<path d="M518.47 141.246L517.68 141.409L517.391 142.161L517.229 141.372L516.476 141.083L517.266 140.921L517.555 140.168L517.717 140.957L518.47 141.246Z" fill="white"/>
<path d="M605.444 79.7279L604.654 79.8902L604.365 80.6429L604.203 79.8533L603.45 79.5646L604.24 79.4022L604.529 78.6496L604.691 79.4392L605.444 79.7279Z" fill="white"/>
<path d="M548.875 58.5147L548.086 58.677L547.797 59.4297L547.634 58.6401L546.882 58.3514L547.671 58.189L547.96 57.4364L548.122 58.226L548.875 58.5147Z" fill="white"/>
<path d="M750.401 349.136L749.611 349.298L749.322 350.051L749.16 349.261L748.407 348.972L749.197 348.81L749.486 348.057L749.648 348.847L750.401 349.136Z" fill="white"/>
<path d="M700.196 151.853L699.406 152.015L699.118 152.768L698.955 151.978L698.203 151.689L698.992 151.527L699.281 150.774L699.443 151.564L700.196 151.853Z" fill="white"/>
<path d="M958.997 492.678L958.207 492.841L957.919 493.593L957.756 492.804L957.004 492.515L957.793 492.353L958.082 491.6L958.244 492.39L958.997 492.678Z" fill="white"/>
<path d="M678.983 444.595L678.193 444.757L677.904 445.51L677.742 444.72L676.989 444.432L677.779 444.269L678.068 443.517L678.23 444.306L678.983 444.595Z" fill="white"/>
<path d="M598.373 252.262L597.583 252.424L597.294 253.177L597.132 252.387L596.379 252.099L597.169 251.936L597.458 251.184L597.62 251.973L598.373 252.262Z" fill="white"/>
<path d="M483.114 356.207L482.325 356.369L482.036 357.122L481.873 356.332L481.121 356.043L481.91 355.881L482.199 355.128L482.361 355.918L483.114 356.207Z" fill="white"/>
<path d="M915.863 769.157L915.074 769.319L914.785 770.072L914.623 769.282L913.87 768.994L914.66 768.831L914.948 768.079L915.111 768.868L915.863 769.157Z" fill="white"/>
<path d="M1191.64 766.329L1190.85 766.491L1190.56 767.244L1190.39 766.454L1189.64 766.165L1190.43 766.003L1190.72 765.25L1190.88 766.04L1191.64 766.329Z" fill="white"/>
<path d="M1261.64 1085.23L1260.85 1085.4L1260.56 1086.15L1260.4 1085.36L1259.65 1085.07L1260.43 1084.91L1260.72 1084.16L1260.89 1084.95L1261.64 1085.23Z" fill="white"/>
<path d="M950.512 1218.17L949.722 1218.33L949.434 1219.08L949.271 1218.3L948.519 1218.01L949.308 1217.84L949.597 1217.09L949.759 1217.88L950.512 1218.17Z" fill="white"/>
<path d="M900.307 1450.81L899.518 1450.97L899.229 1451.72L899.067 1450.93L898.314 1450.64L899.104 1450.48L899.392 1449.73L899.555 1450.52L900.307 1450.81Z" fill="white"/>
<path d="M657.062 1257.06L656.273 1257.22L655.984 1257.98L655.822 1257.19L655.069 1256.9L655.859 1256.73L656.147 1255.98L656.31 1256.77L657.062 1257.06Z" fill="white"/>
<path d="M432.203 978.461L431.413 978.623L431.124 979.376L430.962 978.586L430.209 978.297L430.999 978.135L431.288 977.382L431.45 978.172L432.203 978.461Z" fill="white"/>
<path d="M824.647 834.918L823.857 835.08L823.569 835.833L823.406 835.043L822.654 834.755L823.443 834.592L823.732 833.84L823.894 834.629L824.647 834.918Z" fill="white"/>
<path d="M688.175 586.723L687.386 586.886L687.097 587.638L686.935 586.849L686.182 586.56L686.971 586.398L687.26 585.645L687.423 586.435L688.175 586.723Z" fill="white"/>
<path d="M273.103 706.225L272.314 706.387L272.025 707.14L271.863 706.35L271.11 706.061L271.9 705.899L272.188 705.146L272.351 705.936L273.103 706.225Z" fill="white"/>
<path d="M181.887 453.787L181.097 453.95L180.808 454.702L180.646 453.913L179.893 453.624L180.683 453.462L180.972 452.709L181.134 453.499L181.887 453.787Z" fill="white"/>
<path d="M429.374 210.543L428.585 210.705L428.296 211.458L428.134 210.668L427.381 210.379L428.17 210.217L428.459 209.464L428.621 210.254L429.374 210.543Z" fill="white"/>
<path d="M633.728 461.566L632.938 461.728L632.65 462.481L632.487 461.691L631.735 461.402L632.524 461.24L632.813 460.487L632.975 461.277L633.728 461.566Z" fill="white"/>
<path d="M1032.54 864.616L1031.75 864.779L1031.46 865.531L1031.3 864.742L1030.54 864.453L1031.33 864.291L1031.62 863.538L1031.78 864.328L1032.54 864.616Z" fill="white"/>
<path d="M789.291 953.712L788.502 953.874L788.213 954.627L788.051 953.837L787.298 953.549L788.088 953.386L788.376 952.634L788.539 953.423L789.291 953.712Z" fill="white"/>
<path d="M608.272 946.641L607.482 946.803L607.194 947.556L607.031 946.766L606.279 946.478L607.068 946.315L607.357 945.563L607.519 946.352L608.272 946.641Z" fill="white"/>
<path d="M674.74 619.957L673.951 620.12L673.662 620.872L673.499 620.083L672.747 619.794L673.536 619.632L673.825 618.879L673.987 619.669L674.74 619.957Z" fill="white"/>
<path d="M956.169 645.413L955.379 645.576L955.09 646.328L954.928 645.539L954.175 645.25L954.965 645.088L955.254 644.335L955.416 645.125L956.169 645.413Z" fill="white"/>
<path d="M135.925 553.489L135.135 553.652L134.846 554.404L134.684 553.615L133.931 553.326L134.721 553.164L135.01 552.411L135.172 553.201L135.925 553.489Z" fill="white"/>
<path d="M332.5 322.973L331.711 323.135L331.422 323.888L331.26 323.098L330.507 322.809L331.297 322.647L331.585 321.894L331.748 322.684L332.5 322.973Z" fill="white"/>
<path d="M729.894 704.81L729.105 704.973L728.816 705.725L728.654 704.936L727.901 704.647L728.691 704.485L728.979 703.732L729.142 704.522L729.894 704.81Z" fill="white"/>
<path d="M585.645 1161.6L584.855 1161.76L584.566 1162.52L584.404 1161.73L583.651 1161.44L584.441 1161.28L584.73 1160.52L584.892 1161.31L585.645 1161.6Z" fill="white"/>
<path d="M256.133 956.54L255.343 956.703L255.055 957.455L254.892 956.666L254.14 956.377L254.929 956.215L255.218 955.462L255.38 956.252L256.133 956.54Z" fill="white"/>
<path d="M514.934 693.497L514.144 693.659L513.856 694.412L513.693 693.622L512.941 693.333L513.73 693.171L514.019 692.418L514.181 693.208L514.934 693.497Z" fill="white"/>
<path d="M1383.97 921.892L1383.18 922.054L1382.89 922.807L1382.73 922.017L1381.97 921.729L1382.76 921.566L1383.05 920.814L1383.22 921.603L1383.97 921.892Z" fill="white"/>
<path d="M1473.77 952.298L1472.98 952.46L1472.69 953.213L1472.53 952.423L1471.78 952.134L1472.57 951.972L1472.86 951.219L1473.02 952.009L1473.77 952.298Z" fill="white"/>
<path d="M922.935 1518.69L922.145 1518.85L921.856 1519.61L921.694 1518.82L920.941 1518.53L921.731 1518.36L922.02 1517.61L922.182 1518.4L922.935 1518.69Z" fill="white"/>
<path d="M691.711 1458.59L690.921 1458.75L690.632 1459.5L690.47 1458.71L689.717 1458.42L690.507 1458.26L690.796 1457.51L690.958 1458.3L691.711 1458.59Z" fill="white"/>
<path d="M901.014 1058.36L900.225 1058.53L899.936 1059.28L899.774 1058.49L899.021 1058.2L899.811 1058.04L900.099 1057.29L900.262 1058.07L901.014 1058.36Z" fill="white"/>
<path d="M541.722 817.53L540.143 817.855L539.566 819.36L539.241 817.781L537.736 817.203L539.315 816.879L539.892 815.373L540.217 816.952L541.722 817.53Z" fill="white"/>
<path d="M486.939 522.33L485.36 522.655L484.783 524.16L484.458 522.581L482.953 522.004L484.532 521.679L485.109 520.174L485.434 521.753L486.939 522.33Z" fill="white"/>
<path d="M1113.44 741.533L1111.86 741.858L1111.28 743.363L1110.95 741.784L1109.45 741.207L1111.03 740.882L1111.61 739.377L1111.93 740.956L1113.44 741.533Z" fill="white"/>
<path d="M1037.78 487.682L1036.2 488.007L1035.62 489.512L1035.29 487.933L1033.79 487.356L1035.37 487.031L1035.95 485.526L1036.27 487.105L1037.78 487.682Z" fill="white"/>
<path d="M881.505 335.654L879.926 335.979L879.348 337.484L879.024 335.905L877.518 335.328L879.098 335.003L879.675 333.498L880 335.077L881.505 335.654Z" fill="white"/>
<path d="M1348.2 757.09L1346.62 757.415L1346.04 758.92L1345.71 757.341L1344.21 756.763L1345.79 756.439L1346.37 754.933L1346.69 756.512L1348.2 757.09Z" fill="white"/>
<path d="M769.782 1049.83L768.203 1050.16L767.625 1051.66L767.301 1050.08L765.795 1049.51L767.375 1049.18L767.952 1047.68L768.277 1049.25L769.782 1049.83Z" fill="white"/>
<path d="M293.192 539.301L291.613 539.626L291.035 541.131L290.711 539.552L289.205 538.974L290.785 538.65L291.362 537.144L291.687 538.724L293.192 539.301Z" fill="white"/>
<path d="M46.4116 739.412L44.8324 739.737L44.255 741.242L43.9303 739.663L42.425 739.086L44.0042 738.761L44.5816 737.256L44.9063 738.835L46.4116 739.412Z" fill="white"/>
<path d="M233.795 396.465L232.216 396.79L231.638 398.295L231.314 396.716L229.808 396.139L231.388 395.814L231.965 394.309L232.29 395.888L233.795 396.465Z" fill="white"/>
<path d="M4.69241 610.012L3.11317 610.336L2.53578 611.842L2.2111 610.262L0.705765 609.685L2.285 609.36L2.86239 607.855L3.18708 609.434L4.69241 610.012Z" fill="white"/>
<path d="M363.903 197.061L362.323 197.386L361.746 198.891L361.421 197.312L359.916 196.735L361.495 196.41L362.073 194.905L362.397 196.484L363.903 197.061Z" fill="white"/>
</svg>
